%TF.GenerationSoftware,KiCad,Pcbnew,(5.1.9)-1*%
%TF.CreationDate,2021-05-06T00:14:11+03:00*%
%TF.ProjectId,hardware,68617264-7761-4726-952e-6b696361645f,rev?*%
%TF.SameCoordinates,Original*%
%TF.FileFunction,Legend,Top*%
%TF.FilePolarity,Positive*%
%FSLAX46Y46*%
G04 Gerber Fmt 4.6, Leading zero omitted, Abs format (unit mm)*
G04 Created by KiCad (PCBNEW (5.1.9)-1) date 2021-05-06 00:14:11*
%MOMM*%
%LPD*%
G01*
G04 APERTURE LIST*
%ADD10C,0.120000*%
%ADD11C,0.152400*%
%ADD12C,0.150000*%
%ADD13C,0.200000*%
%ADD14C,0.254000*%
G04 APERTURE END LIST*
D10*
%TO.C,R16*%
X204514564Y-116285000D02*
X204060436Y-116285000D01*
X204514564Y-114815000D02*
X204060436Y-114815000D01*
D11*
%TO.C,U2*%
X231796000Y-88221000D02*
X231796000Y-87459000D01*
X215794000Y-88221000D02*
X231796000Y-88221000D01*
X215794000Y-87459000D02*
X215794000Y-88221000D01*
D10*
%TO.C,Q1*%
X261860000Y-75830000D02*
X261860000Y-74900000D01*
X261860000Y-72670000D02*
X261860000Y-73600000D01*
X261860000Y-72670000D02*
X259700000Y-72670000D01*
X261860000Y-75830000D02*
X260400000Y-75830000D01*
%TO.C,R25*%
X213146359Y-76980000D02*
X213453641Y-76980000D01*
X213146359Y-76220000D02*
X213453641Y-76220000D01*
%TO.C,R24*%
X213146359Y-78980000D02*
X213453641Y-78980000D01*
X213146359Y-78220000D02*
X213453641Y-78220000D01*
%TO.C,R23*%
X265543641Y-119620000D02*
X265236359Y-119620000D01*
X265543641Y-120380000D02*
X265236359Y-120380000D01*
%TO.C,R22*%
X265543641Y-118520000D02*
X265236359Y-118520000D01*
X265543641Y-119280000D02*
X265236359Y-119280000D01*
%TO.C,C13*%
X270160000Y-99107836D02*
X270160000Y-98892164D01*
X269440000Y-99107836D02*
X269440000Y-98892164D01*
%TO.C,R21*%
X212881029Y-83359416D02*
X213188311Y-83359416D01*
X212881029Y-82599416D02*
X213188311Y-82599416D01*
%TO.C,R14*%
X224422500Y-109812258D02*
X224422500Y-109337742D01*
X223377500Y-109812258D02*
X223377500Y-109337742D01*
%TO.C,R20*%
X249820000Y-68236359D02*
X249820000Y-68543641D01*
X250580000Y-68236359D02*
X250580000Y-68543641D01*
%TO.C,R19*%
X250920000Y-68236359D02*
X250920000Y-68543641D01*
X251680000Y-68236359D02*
X251680000Y-68543641D01*
%TO.C,D9*%
X246215000Y-69360000D02*
X248900000Y-69360000D01*
X246215000Y-67440000D02*
X246215000Y-69360000D01*
X248900000Y-67440000D02*
X246215000Y-67440000D01*
%TO.C,D8*%
X255285000Y-67440000D02*
X252600000Y-67440000D01*
X255285000Y-69360000D02*
X255285000Y-67440000D01*
X252600000Y-69360000D02*
X255285000Y-69360000D01*
%TO.C,RESET1*%
X264050000Y-63970000D02*
X264050000Y-63320000D01*
X264050000Y-63320000D02*
X265950000Y-63320000D01*
X265950000Y-63320000D02*
X265950000Y-63970000D01*
X266750000Y-67070000D02*
X263250000Y-67070000D01*
X263250000Y-63970000D02*
X266750000Y-63970000D01*
%TO.C,PB2*%
X252650000Y-63970000D02*
X252650000Y-63320000D01*
X252650000Y-63320000D02*
X254550000Y-63320000D01*
X254550000Y-63320000D02*
X254550000Y-63970000D01*
X255350000Y-67070000D02*
X251850000Y-67070000D01*
X251850000Y-63970000D02*
X255350000Y-63970000D01*
%TO.C,PB1*%
X246950000Y-63970000D02*
X246950000Y-63320000D01*
X246950000Y-63320000D02*
X248850000Y-63320000D01*
X248850000Y-63320000D02*
X248850000Y-63970000D01*
X249650000Y-67070000D02*
X246150000Y-67070000D01*
X246150000Y-63970000D02*
X249650000Y-63970000D01*
%TO.C,FLASH1*%
X258350000Y-63970000D02*
X258350000Y-63320000D01*
X258350000Y-63320000D02*
X260250000Y-63320000D01*
X260250000Y-63320000D02*
X260250000Y-63970000D01*
X261050000Y-67070000D02*
X257550000Y-67070000D01*
X257550000Y-63970000D02*
X261050000Y-63970000D01*
%TO.C,TEMP1*%
X277510000Y-82340000D02*
X277510000Y-75660000D01*
X271290000Y-74960000D02*
X271290000Y-76240000D01*
X269690000Y-74960000D02*
X271290000Y-74960000D01*
X269690000Y-73940000D02*
X269690000Y-74960000D01*
X273940000Y-73940000D02*
X269690000Y-73940000D01*
X271290000Y-81760000D02*
X268400000Y-81760000D01*
X271290000Y-83040000D02*
X271290000Y-81760000D01*
X269690000Y-83040000D02*
X271290000Y-83040000D01*
X269690000Y-84060000D02*
X269690000Y-83040000D01*
X273940000Y-84060000D02*
X269690000Y-84060000D01*
%TO.C,StepperMotor1*%
X273940000Y-97060000D02*
X269690000Y-97060000D01*
X269690000Y-97060000D02*
X269690000Y-96040000D01*
X269690000Y-96040000D02*
X271290000Y-96040000D01*
X271290000Y-96040000D02*
X271290000Y-94760000D01*
X271290000Y-94760000D02*
X268400000Y-94760000D01*
X273940000Y-84940000D02*
X269690000Y-84940000D01*
X269690000Y-84940000D02*
X269690000Y-85960000D01*
X269690000Y-85960000D02*
X271290000Y-85960000D01*
X271290000Y-85960000D02*
X271290000Y-87240000D01*
X277510000Y-95340000D02*
X277510000Y-86660000D01*
%TO.C,PROG1*%
X197060000Y-91190000D02*
X201310000Y-91190000D01*
X201310000Y-91190000D02*
X201310000Y-92210000D01*
X201310000Y-92210000D02*
X199710000Y-92210000D01*
X199710000Y-92210000D02*
X199710000Y-93490000D01*
X199710000Y-93490000D02*
X202600000Y-93490000D01*
X197060000Y-103310000D02*
X201310000Y-103310000D01*
X201310000Y-103310000D02*
X201310000Y-102290000D01*
X201310000Y-102290000D02*
X199710000Y-102290000D01*
X199710000Y-102290000D02*
X199710000Y-101010000D01*
X193490000Y-92910000D02*
X193490000Y-101590000D01*
%TO.C,J5*%
X273940000Y-73010000D02*
X269690000Y-73010000D01*
X269690000Y-73010000D02*
X269690000Y-71990000D01*
X269690000Y-71990000D02*
X271290000Y-71990000D01*
X271290000Y-71990000D02*
X271290000Y-70710000D01*
X271290000Y-70710000D02*
X268400000Y-70710000D01*
X273940000Y-64890000D02*
X269690000Y-64890000D01*
X269690000Y-64890000D02*
X269690000Y-65910000D01*
X269690000Y-65910000D02*
X271290000Y-65910000D01*
X271290000Y-65910000D02*
X271290000Y-67190000D01*
X277510000Y-71290000D02*
X277510000Y-66610000D01*
%TO.C,Analog3*%
X273940000Y-130410000D02*
X269690000Y-130410000D01*
X269690000Y-130410000D02*
X269690000Y-129390000D01*
X269690000Y-129390000D02*
X271290000Y-129390000D01*
X271290000Y-129390000D02*
X271290000Y-128110000D01*
X271290000Y-128110000D02*
X268400000Y-128110000D01*
X273940000Y-120290000D02*
X269690000Y-120290000D01*
X269690000Y-120290000D02*
X269690000Y-121310000D01*
X269690000Y-121310000D02*
X271290000Y-121310000D01*
X271290000Y-121310000D02*
X271290000Y-122590000D01*
X277510000Y-128690000D02*
X277510000Y-122010000D01*
%TO.C,Analog2*%
X273940000Y-117710000D02*
X269690000Y-117710000D01*
X269690000Y-117710000D02*
X269690000Y-116690000D01*
X269690000Y-116690000D02*
X271290000Y-116690000D01*
X271290000Y-116690000D02*
X271290000Y-115410000D01*
X271290000Y-115410000D02*
X268400000Y-115410000D01*
X273940000Y-107590000D02*
X269690000Y-107590000D01*
X269690000Y-107590000D02*
X269690000Y-108610000D01*
X269690000Y-108610000D02*
X271290000Y-108610000D01*
X271290000Y-108610000D02*
X271290000Y-109890000D01*
X277510000Y-115990000D02*
X277510000Y-109310000D01*
%TO.C,U3*%
X202140000Y-122250000D02*
X202140000Y-120940000D01*
X202140000Y-120940000D02*
X204860000Y-120940000D01*
X206000000Y-125430000D02*
X204860000Y-125430000D01*
X202140000Y-125660000D02*
X202140000Y-124350000D01*
X204860000Y-125660000D02*
X202140000Y-125660000D01*
X204860000Y-125660000D02*
X204860000Y-125430000D01*
X204860000Y-120940000D02*
X204860000Y-121170000D01*
D12*
%TO.C,U1*%
X241355000Y-73950000D02*
X241150000Y-73950000D01*
X241355000Y-79450000D02*
X241055000Y-79450000D01*
X235845000Y-79450000D02*
X236145000Y-79450000D01*
X235845000Y-73950000D02*
X236145000Y-73950000D01*
X241355000Y-73950000D02*
X241355000Y-79450000D01*
X235845000Y-73950000D02*
X235845000Y-79450000D01*
X241150000Y-73950000D02*
X241150000Y-72200000D01*
D10*
%TO.C,R18*%
X212881029Y-83820000D02*
X213188311Y-83820000D01*
X212881029Y-84580000D02*
X213188311Y-84580000D01*
%TO.C,R17*%
X214577500Y-109862258D02*
X214577500Y-109387742D01*
X215622500Y-109862258D02*
X215622500Y-109387742D01*
%TO.C,R15*%
X258736359Y-69620000D02*
X259043641Y-69620000D01*
X258736359Y-70380000D02*
X259043641Y-70380000D01*
%TO.C,R13*%
X263080000Y-68736359D02*
X263080000Y-69043641D01*
X262320000Y-68736359D02*
X262320000Y-69043641D01*
%TO.C,R12*%
X265020000Y-77863641D02*
X265020000Y-77556359D01*
X265780000Y-77863641D02*
X265780000Y-77556359D01*
%TO.C,R11*%
X213643641Y-75180000D02*
X213336359Y-75180000D01*
X213643641Y-74420000D02*
X213336359Y-74420000D01*
%TO.C,R10*%
X213663641Y-74080000D02*
X213356359Y-74080000D01*
X213663641Y-73320000D02*
X213356359Y-73320000D01*
%TO.C,R9*%
X269080000Y-98846359D02*
X269080000Y-99153641D01*
X268320000Y-98846359D02*
X268320000Y-99153641D01*
%TO.C,R8*%
X234443641Y-78580000D02*
X234136359Y-78580000D01*
X234443641Y-77820000D02*
X234136359Y-77820000D01*
%TO.C,R7*%
X234280000Y-83956359D02*
X234280000Y-84263641D01*
X233520000Y-83956359D02*
X233520000Y-84263641D01*
%TO.C,R6*%
X234443641Y-77380000D02*
X234136359Y-77380000D01*
X234443641Y-76620000D02*
X234136359Y-76620000D01*
%TO.C,R5*%
X234463641Y-80980000D02*
X234156359Y-80980000D01*
X234463641Y-80220000D02*
X234156359Y-80220000D01*
%TO.C,R4*%
X213180000Y-122346359D02*
X213180000Y-122653641D01*
X212420000Y-122346359D02*
X212420000Y-122653641D01*
%TO.C,R3*%
X213496359Y-115960000D02*
X213803641Y-115960000D01*
X213496359Y-116720000D02*
X213803641Y-116720000D01*
%TO.C,R2*%
X213336359Y-72220000D02*
X213643641Y-72220000D01*
X213336359Y-72980000D02*
X213643641Y-72980000D01*
%TO.C,R1*%
X211620000Y-116063641D02*
X211620000Y-115756359D01*
X212380000Y-116063641D02*
X212380000Y-115756359D01*
%TO.C,Q5*%
X216940000Y-106470000D02*
X216940000Y-107400000D01*
X216940000Y-109630000D02*
X216940000Y-108700000D01*
X216940000Y-109630000D02*
X219100000Y-109630000D01*
X216940000Y-106470000D02*
X218400000Y-106470000D01*
%TO.C,Q4*%
X216120000Y-112360000D02*
X217050000Y-112360000D01*
X219280000Y-112360000D02*
X218350000Y-112360000D01*
X219280000Y-112360000D02*
X219280000Y-110200000D01*
X216120000Y-112360000D02*
X216120000Y-110900000D01*
%TO.C,Q3*%
X222880000Y-107240000D02*
X221950000Y-107240000D01*
X219720000Y-107240000D02*
X220650000Y-107240000D01*
X219720000Y-107240000D02*
X219720000Y-109400000D01*
X222880000Y-107240000D02*
X222880000Y-108700000D01*
%TO.C,Q2*%
X222060000Y-113180000D02*
X222060000Y-112250000D01*
X222060000Y-110020000D02*
X222060000Y-110950000D01*
X222060000Y-110020000D02*
X219900000Y-110020000D01*
X222060000Y-113180000D02*
X220600000Y-113180000D01*
%TO.C,L1*%
X218990000Y-117090000D02*
X218990000Y-118115000D01*
X218990000Y-117090000D02*
X220015000Y-117090000D01*
X223760000Y-117090000D02*
X222735000Y-117090000D01*
X223760000Y-117090000D02*
X223760000Y-118115000D01*
X223760000Y-121310000D02*
X223760000Y-120285000D01*
X218990000Y-121310000D02*
X218990000Y-120285000D01*
X223760000Y-121310000D02*
X222735000Y-121310000D01*
X218990000Y-121310000D02*
X220015000Y-121310000D01*
%TO.C,J2*%
X242000000Y-90030000D02*
X236800000Y-90030000D01*
X242000000Y-82290000D02*
X236800000Y-82290000D01*
X243440000Y-89460000D02*
X242000000Y-89460000D01*
X242000000Y-90030000D02*
X242000000Y-89460000D01*
X236800000Y-90030000D02*
X236800000Y-89460000D01*
X242000000Y-82860000D02*
X242000000Y-82290000D01*
X236800000Y-82860000D02*
X236800000Y-82290000D01*
X242000000Y-87940000D02*
X242000000Y-86920000D01*
X236800000Y-87940000D02*
X236800000Y-86920000D01*
X242000000Y-85400000D02*
X242000000Y-84380000D01*
X236800000Y-85400000D02*
X236800000Y-84380000D01*
D13*
%TO.C,IC2*%
X203475000Y-117600000D02*
X204325000Y-117600000D01*
X204325000Y-117600000D02*
X204325000Y-120500000D01*
X204325000Y-120500000D02*
X203475000Y-120500000D01*
X203475000Y-120500000D02*
X203475000Y-117600000D01*
X202075000Y-117575000D02*
X203125000Y-117575000D01*
%TO.C,IC1*%
X215550000Y-118850000D02*
X215550000Y-119450000D01*
X215550000Y-119450000D02*
X212650000Y-119450000D01*
X212650000Y-119450000D02*
X212650000Y-118850000D01*
X212650000Y-118850000D02*
X215550000Y-118850000D01*
X215700000Y-117300000D02*
X215700000Y-118500000D01*
D10*
%TO.C,D7*%
X208210000Y-102500000D02*
X208210000Y-100500000D01*
X208210000Y-100500000D02*
X204310000Y-100500000D01*
X208210000Y-102500000D02*
X204310000Y-102500000D01*
%TO.C,D6*%
X213050000Y-102500000D02*
X213050000Y-100500000D01*
X213050000Y-100500000D02*
X209150000Y-100500000D01*
X213050000Y-102500000D02*
X209150000Y-102500000D01*
%TO.C,D5*%
X208210000Y-100050000D02*
X208210000Y-98050000D01*
X208210000Y-98050000D02*
X204310000Y-98050000D01*
X208210000Y-100050000D02*
X204310000Y-100050000D01*
%TO.C,D4*%
X213050000Y-100050000D02*
X213050000Y-98050000D01*
X213050000Y-98050000D02*
X209150000Y-98050000D01*
X213050000Y-100050000D02*
X209150000Y-100050000D01*
%TO.C,D3*%
X260300000Y-67440000D02*
X257615000Y-67440000D01*
X257615000Y-67440000D02*
X257615000Y-69360000D01*
X257615000Y-69360000D02*
X260300000Y-69360000D01*
%TO.C,D2*%
X264000000Y-69360000D02*
X266685000Y-69360000D01*
X266685000Y-69360000D02*
X266685000Y-67440000D01*
X266685000Y-67440000D02*
X264000000Y-67440000D01*
%TO.C,D1*%
X218400000Y-119800000D02*
X216400000Y-119800000D01*
X216400000Y-119800000D02*
X216400000Y-123700000D01*
X218400000Y-119800000D02*
X218400000Y-123700000D01*
%TO.C,C12*%
X212010000Y-123684420D02*
X212010000Y-123965580D01*
X210990000Y-123684420D02*
X210990000Y-123965580D01*
%TO.C,C11*%
X206740000Y-121487836D02*
X206740000Y-121272164D01*
X207460000Y-121487836D02*
X207460000Y-121272164D01*
%TO.C,C10*%
X206340000Y-119627836D02*
X206340000Y-119412164D01*
X207060000Y-119627836D02*
X207060000Y-119412164D01*
%TO.C,C9*%
X200740000Y-119627836D02*
X200740000Y-119412164D01*
X201460000Y-119627836D02*
X201460000Y-119412164D01*
%TO.C,C8*%
X261810000Y-102088748D02*
X261810000Y-103511252D01*
X259990000Y-102088748D02*
X259990000Y-103511252D01*
%TO.C,C6*%
X225260000Y-121312164D02*
X225260000Y-121527836D01*
X224540000Y-121312164D02*
X224540000Y-121527836D01*
%TO.C,C5*%
X242260000Y-80772164D02*
X242260000Y-80987836D01*
X241540000Y-80772164D02*
X241540000Y-80987836D01*
%TO.C,C4*%
X215610000Y-123113748D02*
X215610000Y-124536252D01*
X213790000Y-123113748D02*
X213790000Y-124536252D01*
%TO.C,C3*%
X216872164Y-117540000D02*
X217087836Y-117540000D01*
X216872164Y-118260000D02*
X217087836Y-118260000D01*
%TO.C,C2*%
X213542164Y-114840000D02*
X213757836Y-114840000D01*
X213542164Y-115560000D02*
X213757836Y-115560000D01*
%TO.C,C1*%
X214260000Y-86972164D02*
X214260000Y-87187836D01*
X213540000Y-86972164D02*
X213540000Y-87187836D01*
%TO.C,R16*%
D12*
X204057142Y-117402380D02*
X203723809Y-116926190D01*
X203485714Y-117402380D02*
X203485714Y-116402380D01*
X203866666Y-116402380D01*
X203961904Y-116450000D01*
X204009523Y-116497619D01*
X204057142Y-116592857D01*
X204057142Y-116735714D01*
X204009523Y-116830952D01*
X203961904Y-116878571D01*
X203866666Y-116926190D01*
X203485714Y-116926190D01*
X205009523Y-117402380D02*
X204438095Y-117402380D01*
X204723809Y-117402380D02*
X204723809Y-116402380D01*
X204628571Y-116545238D01*
X204533333Y-116640476D01*
X204438095Y-116688095D01*
X205866666Y-116402380D02*
X205676190Y-116402380D01*
X205580952Y-116450000D01*
X205533333Y-116497619D01*
X205438095Y-116640476D01*
X205390476Y-116830952D01*
X205390476Y-117211904D01*
X205438095Y-117307142D01*
X205485714Y-117354761D01*
X205580952Y-117402380D01*
X205771428Y-117402380D01*
X205866666Y-117354761D01*
X205914285Y-117307142D01*
X205961904Y-117211904D01*
X205961904Y-116973809D01*
X205914285Y-116878571D01*
X205866666Y-116830952D01*
X205771428Y-116783333D01*
X205580952Y-116783333D01*
X205485714Y-116830952D01*
X205438095Y-116878571D01*
X205390476Y-116973809D01*
%TO.C,U2*%
X215148095Y-89552380D02*
X215148095Y-90361904D01*
X215195714Y-90457142D01*
X215243333Y-90504761D01*
X215338571Y-90552380D01*
X215529047Y-90552380D01*
X215624285Y-90504761D01*
X215671904Y-90457142D01*
X215719523Y-90361904D01*
X215719523Y-89552380D01*
X216148095Y-89647619D02*
X216195714Y-89600000D01*
X216290952Y-89552380D01*
X216529047Y-89552380D01*
X216624285Y-89600000D01*
X216671904Y-89647619D01*
X216719523Y-89742857D01*
X216719523Y-89838095D01*
X216671904Y-89980952D01*
X216100476Y-90552380D01*
X216719523Y-90552380D01*
%TO.C,Q1*%
X263347619Y-75845238D02*
X263300000Y-75940476D01*
X263204761Y-76035714D01*
X263061904Y-76178571D01*
X263014285Y-76273809D01*
X263014285Y-76369047D01*
X263252380Y-76321428D02*
X263204761Y-76416666D01*
X263109523Y-76511904D01*
X262919047Y-76559523D01*
X262585714Y-76559523D01*
X262395238Y-76511904D01*
X262300000Y-76416666D01*
X262252380Y-76321428D01*
X262252380Y-76130952D01*
X262300000Y-76035714D01*
X262395238Y-75940476D01*
X262585714Y-75892857D01*
X262919047Y-75892857D01*
X263109523Y-75940476D01*
X263204761Y-76035714D01*
X263252380Y-76130952D01*
X263252380Y-76321428D01*
X263252380Y-74940476D02*
X263252380Y-75511904D01*
X263252380Y-75226190D02*
X262252380Y-75226190D01*
X262395238Y-75321428D01*
X262490476Y-75416666D01*
X262538095Y-75511904D01*
%TO.C,R25*%
X210357142Y-77052380D02*
X210023809Y-76576190D01*
X209785714Y-77052380D02*
X209785714Y-76052380D01*
X210166666Y-76052380D01*
X210261904Y-76100000D01*
X210309523Y-76147619D01*
X210357142Y-76242857D01*
X210357142Y-76385714D01*
X210309523Y-76480952D01*
X210261904Y-76528571D01*
X210166666Y-76576190D01*
X209785714Y-76576190D01*
X210738095Y-76147619D02*
X210785714Y-76100000D01*
X210880952Y-76052380D01*
X211119047Y-76052380D01*
X211214285Y-76100000D01*
X211261904Y-76147619D01*
X211309523Y-76242857D01*
X211309523Y-76338095D01*
X211261904Y-76480952D01*
X210690476Y-77052380D01*
X211309523Y-77052380D01*
X212214285Y-76052380D02*
X211738095Y-76052380D01*
X211690476Y-76528571D01*
X211738095Y-76480952D01*
X211833333Y-76433333D01*
X212071428Y-76433333D01*
X212166666Y-76480952D01*
X212214285Y-76528571D01*
X212261904Y-76623809D01*
X212261904Y-76861904D01*
X212214285Y-76957142D01*
X212166666Y-77004761D01*
X212071428Y-77052380D01*
X211833333Y-77052380D01*
X211738095Y-77004761D01*
X211690476Y-76957142D01*
%TO.C,R24*%
X210357142Y-79052380D02*
X210023809Y-78576190D01*
X209785714Y-79052380D02*
X209785714Y-78052380D01*
X210166666Y-78052380D01*
X210261904Y-78100000D01*
X210309523Y-78147619D01*
X210357142Y-78242857D01*
X210357142Y-78385714D01*
X210309523Y-78480952D01*
X210261904Y-78528571D01*
X210166666Y-78576190D01*
X209785714Y-78576190D01*
X210738095Y-78147619D02*
X210785714Y-78100000D01*
X210880952Y-78052380D01*
X211119047Y-78052380D01*
X211214285Y-78100000D01*
X211261904Y-78147619D01*
X211309523Y-78242857D01*
X211309523Y-78338095D01*
X211261904Y-78480952D01*
X210690476Y-79052380D01*
X211309523Y-79052380D01*
X212166666Y-78385714D02*
X212166666Y-79052380D01*
X211928571Y-78004761D02*
X211690476Y-78719047D01*
X212309523Y-78719047D01*
%TO.C,R23*%
X262147142Y-120652380D02*
X261813809Y-120176190D01*
X261575714Y-120652380D02*
X261575714Y-119652380D01*
X261956666Y-119652380D01*
X262051904Y-119700000D01*
X262099523Y-119747619D01*
X262147142Y-119842857D01*
X262147142Y-119985714D01*
X262099523Y-120080952D01*
X262051904Y-120128571D01*
X261956666Y-120176190D01*
X261575714Y-120176190D01*
X262528095Y-119747619D02*
X262575714Y-119700000D01*
X262670952Y-119652380D01*
X262909047Y-119652380D01*
X263004285Y-119700000D01*
X263051904Y-119747619D01*
X263099523Y-119842857D01*
X263099523Y-119938095D01*
X263051904Y-120080952D01*
X262480476Y-120652380D01*
X263099523Y-120652380D01*
X263432857Y-119652380D02*
X264051904Y-119652380D01*
X263718571Y-120033333D01*
X263861428Y-120033333D01*
X263956666Y-120080952D01*
X264004285Y-120128571D01*
X264051904Y-120223809D01*
X264051904Y-120461904D01*
X264004285Y-120557142D01*
X263956666Y-120604761D01*
X263861428Y-120652380D01*
X263575714Y-120652380D01*
X263480476Y-120604761D01*
X263432857Y-120557142D01*
%TO.C,R22*%
X262157142Y-119152380D02*
X261823809Y-118676190D01*
X261585714Y-119152380D02*
X261585714Y-118152380D01*
X261966666Y-118152380D01*
X262061904Y-118200000D01*
X262109523Y-118247619D01*
X262157142Y-118342857D01*
X262157142Y-118485714D01*
X262109523Y-118580952D01*
X262061904Y-118628571D01*
X261966666Y-118676190D01*
X261585714Y-118676190D01*
X262538095Y-118247619D02*
X262585714Y-118200000D01*
X262680952Y-118152380D01*
X262919047Y-118152380D01*
X263014285Y-118200000D01*
X263061904Y-118247619D01*
X263109523Y-118342857D01*
X263109523Y-118438095D01*
X263061904Y-118580952D01*
X262490476Y-119152380D01*
X263109523Y-119152380D01*
X263490476Y-118247619D02*
X263538095Y-118200000D01*
X263633333Y-118152380D01*
X263871428Y-118152380D01*
X263966666Y-118200000D01*
X264014285Y-118247619D01*
X264061904Y-118342857D01*
X264061904Y-118438095D01*
X264014285Y-118580952D01*
X263442857Y-119152380D01*
X264061904Y-119152380D01*
%TO.C,C13*%
X271057142Y-98657142D02*
X271009523Y-98704761D01*
X270866666Y-98752380D01*
X270771428Y-98752380D01*
X270628571Y-98704761D01*
X270533333Y-98609523D01*
X270485714Y-98514285D01*
X270438095Y-98323809D01*
X270438095Y-98180952D01*
X270485714Y-97990476D01*
X270533333Y-97895238D01*
X270628571Y-97800000D01*
X270771428Y-97752380D01*
X270866666Y-97752380D01*
X271009523Y-97800000D01*
X271057142Y-97847619D01*
X272009523Y-98752380D02*
X271438095Y-98752380D01*
X271723809Y-98752380D02*
X271723809Y-97752380D01*
X271628571Y-97895238D01*
X271533333Y-97990476D01*
X271438095Y-98038095D01*
X272342857Y-97752380D02*
X272961904Y-97752380D01*
X272628571Y-98133333D01*
X272771428Y-98133333D01*
X272866666Y-98180952D01*
X272914285Y-98228571D01*
X272961904Y-98323809D01*
X272961904Y-98561904D01*
X272914285Y-98657142D01*
X272866666Y-98704761D01*
X272771428Y-98752380D01*
X272485714Y-98752380D01*
X272390476Y-98704761D01*
X272342857Y-98657142D01*
%TO.C,R21*%
X209957142Y-83452380D02*
X209623809Y-82976190D01*
X209385714Y-83452380D02*
X209385714Y-82452380D01*
X209766666Y-82452380D01*
X209861904Y-82500000D01*
X209909523Y-82547619D01*
X209957142Y-82642857D01*
X209957142Y-82785714D01*
X209909523Y-82880952D01*
X209861904Y-82928571D01*
X209766666Y-82976190D01*
X209385714Y-82976190D01*
X210338095Y-82547619D02*
X210385714Y-82500000D01*
X210480952Y-82452380D01*
X210719047Y-82452380D01*
X210814285Y-82500000D01*
X210861904Y-82547619D01*
X210909523Y-82642857D01*
X210909523Y-82738095D01*
X210861904Y-82880952D01*
X210290476Y-83452380D01*
X210909523Y-83452380D01*
X211861904Y-83452380D02*
X211290476Y-83452380D01*
X211576190Y-83452380D02*
X211576190Y-82452380D01*
X211480952Y-82595238D01*
X211385714Y-82690476D01*
X211290476Y-82738095D01*
%TO.C,R14*%
X225952380Y-110217857D02*
X225476190Y-110551190D01*
X225952380Y-110789285D02*
X224952380Y-110789285D01*
X224952380Y-110408333D01*
X225000000Y-110313095D01*
X225047619Y-110265476D01*
X225142857Y-110217857D01*
X225285714Y-110217857D01*
X225380952Y-110265476D01*
X225428571Y-110313095D01*
X225476190Y-110408333D01*
X225476190Y-110789285D01*
X225952380Y-109265476D02*
X225952380Y-109836904D01*
X225952380Y-109551190D02*
X224952380Y-109551190D01*
X225095238Y-109646428D01*
X225190476Y-109741666D01*
X225238095Y-109836904D01*
X225285714Y-108408333D02*
X225952380Y-108408333D01*
X224904761Y-108646428D02*
X225619047Y-108884523D01*
X225619047Y-108265476D01*
%TO.C,R20*%
X249352380Y-71542857D02*
X248876190Y-71876190D01*
X249352380Y-72114285D02*
X248352380Y-72114285D01*
X248352380Y-71733333D01*
X248400000Y-71638095D01*
X248447619Y-71590476D01*
X248542857Y-71542857D01*
X248685714Y-71542857D01*
X248780952Y-71590476D01*
X248828571Y-71638095D01*
X248876190Y-71733333D01*
X248876190Y-72114285D01*
X248447619Y-71161904D02*
X248400000Y-71114285D01*
X248352380Y-71019047D01*
X248352380Y-70780952D01*
X248400000Y-70685714D01*
X248447619Y-70638095D01*
X248542857Y-70590476D01*
X248638095Y-70590476D01*
X248780952Y-70638095D01*
X249352380Y-71209523D01*
X249352380Y-70590476D01*
X248352380Y-69971428D02*
X248352380Y-69876190D01*
X248400000Y-69780952D01*
X248447619Y-69733333D01*
X248542857Y-69685714D01*
X248733333Y-69638095D01*
X248971428Y-69638095D01*
X249161904Y-69685714D01*
X249257142Y-69733333D01*
X249304761Y-69780952D01*
X249352380Y-69876190D01*
X249352380Y-69971428D01*
X249304761Y-70066666D01*
X249257142Y-70114285D01*
X249161904Y-70161904D01*
X248971428Y-70209523D01*
X248733333Y-70209523D01*
X248542857Y-70161904D01*
X248447619Y-70114285D01*
X248400000Y-70066666D01*
X248352380Y-69971428D01*
%TO.C,R19*%
X250652380Y-71542857D02*
X250176190Y-71876190D01*
X250652380Y-72114285D02*
X249652380Y-72114285D01*
X249652380Y-71733333D01*
X249700000Y-71638095D01*
X249747619Y-71590476D01*
X249842857Y-71542857D01*
X249985714Y-71542857D01*
X250080952Y-71590476D01*
X250128571Y-71638095D01*
X250176190Y-71733333D01*
X250176190Y-72114285D01*
X250652380Y-70590476D02*
X250652380Y-71161904D01*
X250652380Y-70876190D02*
X249652380Y-70876190D01*
X249795238Y-70971428D01*
X249890476Y-71066666D01*
X249938095Y-71161904D01*
X250652380Y-70114285D02*
X250652380Y-69923809D01*
X250604761Y-69828571D01*
X250557142Y-69780952D01*
X250414285Y-69685714D01*
X250223809Y-69638095D01*
X249842857Y-69638095D01*
X249747619Y-69685714D01*
X249700000Y-69733333D01*
X249652380Y-69828571D01*
X249652380Y-70019047D01*
X249700000Y-70114285D01*
X249747619Y-70161904D01*
X249842857Y-70209523D01*
X250080952Y-70209523D01*
X250176190Y-70161904D01*
X250223809Y-70114285D01*
X250271428Y-70019047D01*
X250271428Y-69828571D01*
X250223809Y-69733333D01*
X250176190Y-69685714D01*
X250080952Y-69638095D01*
%TO.C,D9*%
X246461904Y-70652380D02*
X246461904Y-69652380D01*
X246700000Y-69652380D01*
X246842857Y-69700000D01*
X246938095Y-69795238D01*
X246985714Y-69890476D01*
X247033333Y-70080952D01*
X247033333Y-70223809D01*
X246985714Y-70414285D01*
X246938095Y-70509523D01*
X246842857Y-70604761D01*
X246700000Y-70652380D01*
X246461904Y-70652380D01*
X247509523Y-70652380D02*
X247700000Y-70652380D01*
X247795238Y-70604761D01*
X247842857Y-70557142D01*
X247938095Y-70414285D01*
X247985714Y-70223809D01*
X247985714Y-69842857D01*
X247938095Y-69747619D01*
X247890476Y-69700000D01*
X247795238Y-69652380D01*
X247604761Y-69652380D01*
X247509523Y-69700000D01*
X247461904Y-69747619D01*
X247414285Y-69842857D01*
X247414285Y-70080952D01*
X247461904Y-70176190D01*
X247509523Y-70223809D01*
X247604761Y-70271428D01*
X247795238Y-70271428D01*
X247890476Y-70223809D01*
X247938095Y-70176190D01*
X247985714Y-70080952D01*
%TO.C,D8*%
X251061904Y-70552380D02*
X251061904Y-69552380D01*
X251300000Y-69552380D01*
X251442857Y-69600000D01*
X251538095Y-69695238D01*
X251585714Y-69790476D01*
X251633333Y-69980952D01*
X251633333Y-70123809D01*
X251585714Y-70314285D01*
X251538095Y-70409523D01*
X251442857Y-70504761D01*
X251300000Y-70552380D01*
X251061904Y-70552380D01*
X252204761Y-69980952D02*
X252109523Y-69933333D01*
X252061904Y-69885714D01*
X252014285Y-69790476D01*
X252014285Y-69742857D01*
X252061904Y-69647619D01*
X252109523Y-69600000D01*
X252204761Y-69552380D01*
X252395238Y-69552380D01*
X252490476Y-69600000D01*
X252538095Y-69647619D01*
X252585714Y-69742857D01*
X252585714Y-69790476D01*
X252538095Y-69885714D01*
X252490476Y-69933333D01*
X252395238Y-69980952D01*
X252204761Y-69980952D01*
X252109523Y-70028571D01*
X252061904Y-70076190D01*
X252014285Y-70171428D01*
X252014285Y-70361904D01*
X252061904Y-70457142D01*
X252109523Y-70504761D01*
X252204761Y-70552380D01*
X252395238Y-70552380D01*
X252490476Y-70504761D01*
X252538095Y-70457142D01*
X252585714Y-70361904D01*
X252585714Y-70171428D01*
X252538095Y-70076190D01*
X252490476Y-70028571D01*
X252395238Y-69980952D01*
%TO.C,H3*%
X248938095Y-78652380D02*
X248938095Y-77652380D01*
X248938095Y-78128571D02*
X249509523Y-78128571D01*
X249509523Y-78652380D02*
X249509523Y-77652380D01*
X249890476Y-77652380D02*
X250509523Y-77652380D01*
X250176190Y-78033333D01*
X250319047Y-78033333D01*
X250414285Y-78080952D01*
X250461904Y-78128571D01*
X250509523Y-78223809D01*
X250509523Y-78461904D01*
X250461904Y-78557142D01*
X250414285Y-78604761D01*
X250319047Y-78652380D01*
X250033333Y-78652380D01*
X249938095Y-78604761D01*
X249890476Y-78557142D01*
%TO.C,H2*%
X218238095Y-105152380D02*
X218238095Y-104152380D01*
X218238095Y-104628571D02*
X218809523Y-104628571D01*
X218809523Y-105152380D02*
X218809523Y-104152380D01*
X219238095Y-104247619D02*
X219285714Y-104200000D01*
X219380952Y-104152380D01*
X219619047Y-104152380D01*
X219714285Y-104200000D01*
X219761904Y-104247619D01*
X219809523Y-104342857D01*
X219809523Y-104438095D01*
X219761904Y-104580952D01*
X219190476Y-105152380D01*
X219809523Y-105152380D01*
%TO.C,H1*%
X248238095Y-105152380D02*
X248238095Y-104152380D01*
X248238095Y-104628571D02*
X248809523Y-104628571D01*
X248809523Y-105152380D02*
X248809523Y-104152380D01*
X249809523Y-105152380D02*
X249238095Y-105152380D01*
X249523809Y-105152380D02*
X249523809Y-104152380D01*
X249428571Y-104295238D01*
X249333333Y-104390476D01*
X249238095Y-104438095D01*
%TO.C,RESET1*%
X267952380Y-71628571D02*
X267476190Y-71961904D01*
X267952380Y-72200000D02*
X266952380Y-72200000D01*
X266952380Y-71819047D01*
X267000000Y-71723809D01*
X267047619Y-71676190D01*
X267142857Y-71628571D01*
X267285714Y-71628571D01*
X267380952Y-71676190D01*
X267428571Y-71723809D01*
X267476190Y-71819047D01*
X267476190Y-72200000D01*
X267428571Y-71200000D02*
X267428571Y-70866666D01*
X267952380Y-70723809D02*
X267952380Y-71200000D01*
X266952380Y-71200000D01*
X266952380Y-70723809D01*
X267904761Y-70342857D02*
X267952380Y-70200000D01*
X267952380Y-69961904D01*
X267904761Y-69866666D01*
X267857142Y-69819047D01*
X267761904Y-69771428D01*
X267666666Y-69771428D01*
X267571428Y-69819047D01*
X267523809Y-69866666D01*
X267476190Y-69961904D01*
X267428571Y-70152380D01*
X267380952Y-70247619D01*
X267333333Y-70295238D01*
X267238095Y-70342857D01*
X267142857Y-70342857D01*
X267047619Y-70295238D01*
X267000000Y-70247619D01*
X266952380Y-70152380D01*
X266952380Y-69914285D01*
X267000000Y-69771428D01*
X267428571Y-69342857D02*
X267428571Y-69009523D01*
X267952380Y-68866666D02*
X267952380Y-69342857D01*
X266952380Y-69342857D01*
X266952380Y-68866666D01*
X266952380Y-68580952D02*
X266952380Y-68009523D01*
X267952380Y-68295238D02*
X266952380Y-68295238D01*
X267952380Y-67152380D02*
X267952380Y-67723809D01*
X267952380Y-67438095D02*
X266952380Y-67438095D01*
X267095238Y-67533333D01*
X267190476Y-67628571D01*
X267238095Y-67723809D01*
%TO.C,PB2*%
X256452380Y-69938095D02*
X255452380Y-69938095D01*
X255452380Y-69557142D01*
X255500000Y-69461904D01*
X255547619Y-69414285D01*
X255642857Y-69366666D01*
X255785714Y-69366666D01*
X255880952Y-69414285D01*
X255928571Y-69461904D01*
X255976190Y-69557142D01*
X255976190Y-69938095D01*
X255928571Y-68604761D02*
X255976190Y-68461904D01*
X256023809Y-68414285D01*
X256119047Y-68366666D01*
X256261904Y-68366666D01*
X256357142Y-68414285D01*
X256404761Y-68461904D01*
X256452380Y-68557142D01*
X256452380Y-68938095D01*
X255452380Y-68938095D01*
X255452380Y-68604761D01*
X255500000Y-68509523D01*
X255547619Y-68461904D01*
X255642857Y-68414285D01*
X255738095Y-68414285D01*
X255833333Y-68461904D01*
X255880952Y-68509523D01*
X255928571Y-68604761D01*
X255928571Y-68938095D01*
X255547619Y-67985714D02*
X255500000Y-67938095D01*
X255452380Y-67842857D01*
X255452380Y-67604761D01*
X255500000Y-67509523D01*
X255547619Y-67461904D01*
X255642857Y-67414285D01*
X255738095Y-67414285D01*
X255880952Y-67461904D01*
X256452380Y-68033333D01*
X256452380Y-67414285D01*
%TO.C,PB1*%
X246052380Y-69738095D02*
X245052380Y-69738095D01*
X245052380Y-69357142D01*
X245100000Y-69261904D01*
X245147619Y-69214285D01*
X245242857Y-69166666D01*
X245385714Y-69166666D01*
X245480952Y-69214285D01*
X245528571Y-69261904D01*
X245576190Y-69357142D01*
X245576190Y-69738095D01*
X245528571Y-68404761D02*
X245576190Y-68261904D01*
X245623809Y-68214285D01*
X245719047Y-68166666D01*
X245861904Y-68166666D01*
X245957142Y-68214285D01*
X246004761Y-68261904D01*
X246052380Y-68357142D01*
X246052380Y-68738095D01*
X245052380Y-68738095D01*
X245052380Y-68404761D01*
X245100000Y-68309523D01*
X245147619Y-68261904D01*
X245242857Y-68214285D01*
X245338095Y-68214285D01*
X245433333Y-68261904D01*
X245480952Y-68309523D01*
X245528571Y-68404761D01*
X245528571Y-68738095D01*
X246052380Y-67214285D02*
X246052380Y-67785714D01*
X246052380Y-67500000D02*
X245052380Y-67500000D01*
X245195238Y-67595238D01*
X245290476Y-67690476D01*
X245338095Y-67785714D01*
%TO.C,FLASH1*%
X261528571Y-71966666D02*
X261528571Y-72300000D01*
X262052380Y-72300000D02*
X261052380Y-72300000D01*
X261052380Y-71823809D01*
X262052380Y-70966666D02*
X262052380Y-71442857D01*
X261052380Y-71442857D01*
X261766666Y-70680952D02*
X261766666Y-70204761D01*
X262052380Y-70776190D02*
X261052380Y-70442857D01*
X262052380Y-70109523D01*
X262004761Y-69823809D02*
X262052380Y-69680952D01*
X262052380Y-69442857D01*
X262004761Y-69347619D01*
X261957142Y-69300000D01*
X261861904Y-69252380D01*
X261766666Y-69252380D01*
X261671428Y-69300000D01*
X261623809Y-69347619D01*
X261576190Y-69442857D01*
X261528571Y-69633333D01*
X261480952Y-69728571D01*
X261433333Y-69776190D01*
X261338095Y-69823809D01*
X261242857Y-69823809D01*
X261147619Y-69776190D01*
X261100000Y-69728571D01*
X261052380Y-69633333D01*
X261052380Y-69395238D01*
X261100000Y-69252380D01*
X262052380Y-68823809D02*
X261052380Y-68823809D01*
X261528571Y-68823809D02*
X261528571Y-68252380D01*
X262052380Y-68252380D02*
X261052380Y-68252380D01*
X262052380Y-67252380D02*
X262052380Y-67823809D01*
X262052380Y-67538095D02*
X261052380Y-67538095D01*
X261195238Y-67633333D01*
X261290476Y-67728571D01*
X261338095Y-67823809D01*
%TO.C,TEMP1*%
X266652380Y-81285714D02*
X266652380Y-80714285D01*
X267652380Y-81000000D02*
X266652380Y-81000000D01*
X267128571Y-80380952D02*
X267128571Y-80047619D01*
X267652380Y-79904761D02*
X267652380Y-80380952D01*
X266652380Y-80380952D01*
X266652380Y-79904761D01*
X267652380Y-79476190D02*
X266652380Y-79476190D01*
X267366666Y-79142857D01*
X266652380Y-78809523D01*
X267652380Y-78809523D01*
X267652380Y-78333333D02*
X266652380Y-78333333D01*
X266652380Y-77952380D01*
X266700000Y-77857142D01*
X266747619Y-77809523D01*
X266842857Y-77761904D01*
X266985714Y-77761904D01*
X267080952Y-77809523D01*
X267128571Y-77857142D01*
X267176190Y-77952380D01*
X267176190Y-78333333D01*
X267652380Y-76809523D02*
X267652380Y-77380952D01*
X267652380Y-77095238D02*
X266652380Y-77095238D01*
X266795238Y-77190476D01*
X266890476Y-77285714D01*
X266938095Y-77380952D01*
%TO.C,StepperMotor1*%
X267604761Y-96190476D02*
X267652380Y-96047619D01*
X267652380Y-95809523D01*
X267604761Y-95714285D01*
X267557142Y-95666666D01*
X267461904Y-95619047D01*
X267366666Y-95619047D01*
X267271428Y-95666666D01*
X267223809Y-95714285D01*
X267176190Y-95809523D01*
X267128571Y-96000000D01*
X267080952Y-96095238D01*
X267033333Y-96142857D01*
X266938095Y-96190476D01*
X266842857Y-96190476D01*
X266747619Y-96142857D01*
X266700000Y-96095238D01*
X266652380Y-96000000D01*
X266652380Y-95761904D01*
X266700000Y-95619047D01*
X266985714Y-95333333D02*
X266985714Y-94952380D01*
X266652380Y-95190476D02*
X267509523Y-95190476D01*
X267604761Y-95142857D01*
X267652380Y-95047619D01*
X267652380Y-94952380D01*
X267604761Y-94238095D02*
X267652380Y-94333333D01*
X267652380Y-94523809D01*
X267604761Y-94619047D01*
X267509523Y-94666666D01*
X267128571Y-94666666D01*
X267033333Y-94619047D01*
X266985714Y-94523809D01*
X266985714Y-94333333D01*
X267033333Y-94238095D01*
X267128571Y-94190476D01*
X267223809Y-94190476D01*
X267319047Y-94666666D01*
X266985714Y-93761904D02*
X267985714Y-93761904D01*
X267033333Y-93761904D02*
X266985714Y-93666666D01*
X266985714Y-93476190D01*
X267033333Y-93380952D01*
X267080952Y-93333333D01*
X267176190Y-93285714D01*
X267461904Y-93285714D01*
X267557142Y-93333333D01*
X267604761Y-93380952D01*
X267652380Y-93476190D01*
X267652380Y-93666666D01*
X267604761Y-93761904D01*
X266985714Y-92857142D02*
X267985714Y-92857142D01*
X267033333Y-92857142D02*
X266985714Y-92761904D01*
X266985714Y-92571428D01*
X267033333Y-92476190D01*
X267080952Y-92428571D01*
X267176190Y-92380952D01*
X267461904Y-92380952D01*
X267557142Y-92428571D01*
X267604761Y-92476190D01*
X267652380Y-92571428D01*
X267652380Y-92761904D01*
X267604761Y-92857142D01*
X267604761Y-91571428D02*
X267652380Y-91666666D01*
X267652380Y-91857142D01*
X267604761Y-91952380D01*
X267509523Y-92000000D01*
X267128571Y-92000000D01*
X267033333Y-91952380D01*
X266985714Y-91857142D01*
X266985714Y-91666666D01*
X267033333Y-91571428D01*
X267128571Y-91523809D01*
X267223809Y-91523809D01*
X267319047Y-92000000D01*
X267652380Y-91095238D02*
X266985714Y-91095238D01*
X267176190Y-91095238D02*
X267080952Y-91047619D01*
X267033333Y-91000000D01*
X266985714Y-90904761D01*
X266985714Y-90809523D01*
X267652380Y-90476190D02*
X266652380Y-90476190D01*
X267366666Y-90142857D01*
X266652380Y-89809523D01*
X267652380Y-89809523D01*
X267652380Y-89190476D02*
X267604761Y-89285714D01*
X267557142Y-89333333D01*
X267461904Y-89380952D01*
X267176190Y-89380952D01*
X267080952Y-89333333D01*
X267033333Y-89285714D01*
X266985714Y-89190476D01*
X266985714Y-89047619D01*
X267033333Y-88952380D01*
X267080952Y-88904761D01*
X267176190Y-88857142D01*
X267461904Y-88857142D01*
X267557142Y-88904761D01*
X267604761Y-88952380D01*
X267652380Y-89047619D01*
X267652380Y-89190476D01*
X266985714Y-88571428D02*
X266985714Y-88190476D01*
X266652380Y-88428571D02*
X267509523Y-88428571D01*
X267604761Y-88380952D01*
X267652380Y-88285714D01*
X267652380Y-88190476D01*
X267652380Y-87714285D02*
X267604761Y-87809523D01*
X267557142Y-87857142D01*
X267461904Y-87904761D01*
X267176190Y-87904761D01*
X267080952Y-87857142D01*
X267033333Y-87809523D01*
X266985714Y-87714285D01*
X266985714Y-87571428D01*
X267033333Y-87476190D01*
X267080952Y-87428571D01*
X267176190Y-87380952D01*
X267461904Y-87380952D01*
X267557142Y-87428571D01*
X267604761Y-87476190D01*
X267652380Y-87571428D01*
X267652380Y-87714285D01*
X267652380Y-86952380D02*
X266985714Y-86952380D01*
X267176190Y-86952380D02*
X267080952Y-86904761D01*
X267033333Y-86857142D01*
X266985714Y-86761904D01*
X266985714Y-86666666D01*
X267652380Y-85809523D02*
X267652380Y-86380952D01*
X267652380Y-86095238D02*
X266652380Y-86095238D01*
X266795238Y-86190476D01*
X266890476Y-86285714D01*
X266938095Y-86380952D01*
%TO.C,PROG1*%
X198538095Y-105252380D02*
X198538095Y-104252380D01*
X198919047Y-104252380D01*
X199014285Y-104300000D01*
X199061904Y-104347619D01*
X199109523Y-104442857D01*
X199109523Y-104585714D01*
X199061904Y-104680952D01*
X199014285Y-104728571D01*
X198919047Y-104776190D01*
X198538095Y-104776190D01*
X200109523Y-105252380D02*
X199776190Y-104776190D01*
X199538095Y-105252380D02*
X199538095Y-104252380D01*
X199919047Y-104252380D01*
X200014285Y-104300000D01*
X200061904Y-104347619D01*
X200109523Y-104442857D01*
X200109523Y-104585714D01*
X200061904Y-104680952D01*
X200014285Y-104728571D01*
X199919047Y-104776190D01*
X199538095Y-104776190D01*
X200728571Y-104252380D02*
X200919047Y-104252380D01*
X201014285Y-104300000D01*
X201109523Y-104395238D01*
X201157142Y-104585714D01*
X201157142Y-104919047D01*
X201109523Y-105109523D01*
X201014285Y-105204761D01*
X200919047Y-105252380D01*
X200728571Y-105252380D01*
X200633333Y-105204761D01*
X200538095Y-105109523D01*
X200490476Y-104919047D01*
X200490476Y-104585714D01*
X200538095Y-104395238D01*
X200633333Y-104300000D01*
X200728571Y-104252380D01*
X202109523Y-104300000D02*
X202014285Y-104252380D01*
X201871428Y-104252380D01*
X201728571Y-104300000D01*
X201633333Y-104395238D01*
X201585714Y-104490476D01*
X201538095Y-104680952D01*
X201538095Y-104823809D01*
X201585714Y-105014285D01*
X201633333Y-105109523D01*
X201728571Y-105204761D01*
X201871428Y-105252380D01*
X201966666Y-105252380D01*
X202109523Y-105204761D01*
X202157142Y-105157142D01*
X202157142Y-104823809D01*
X201966666Y-104823809D01*
X203109523Y-105252380D02*
X202538095Y-105252380D01*
X202823809Y-105252380D02*
X202823809Y-104252380D01*
X202728571Y-104395238D01*
X202633333Y-104490476D01*
X202538095Y-104538095D01*
%TO.C,J5*%
X268252380Y-72733333D02*
X268966666Y-72733333D01*
X269109523Y-72780952D01*
X269204761Y-72876190D01*
X269252380Y-73019047D01*
X269252380Y-73114285D01*
X268252380Y-71780952D02*
X268252380Y-72257142D01*
X268728571Y-72304761D01*
X268680952Y-72257142D01*
X268633333Y-72161904D01*
X268633333Y-71923809D01*
X268680952Y-71828571D01*
X268728571Y-71780952D01*
X268823809Y-71733333D01*
X269061904Y-71733333D01*
X269157142Y-71780952D01*
X269204761Y-71828571D01*
X269252380Y-71923809D01*
X269252380Y-72161904D01*
X269204761Y-72257142D01*
X269157142Y-72304761D01*
%TO.C,Analog3*%
X267366666Y-128135714D02*
X267366666Y-127659523D01*
X267652380Y-128230952D02*
X266652380Y-127897619D01*
X267652380Y-127564285D01*
X266985714Y-127230952D02*
X267652380Y-127230952D01*
X267080952Y-127230952D02*
X267033333Y-127183333D01*
X266985714Y-127088095D01*
X266985714Y-126945238D01*
X267033333Y-126850000D01*
X267128571Y-126802380D01*
X267652380Y-126802380D01*
X267652380Y-125897619D02*
X267128571Y-125897619D01*
X267033333Y-125945238D01*
X266985714Y-126040476D01*
X266985714Y-126230952D01*
X267033333Y-126326190D01*
X267604761Y-125897619D02*
X267652380Y-125992857D01*
X267652380Y-126230952D01*
X267604761Y-126326190D01*
X267509523Y-126373809D01*
X267414285Y-126373809D01*
X267319047Y-126326190D01*
X267271428Y-126230952D01*
X267271428Y-125992857D01*
X267223809Y-125897619D01*
X267652380Y-125278571D02*
X267604761Y-125373809D01*
X267509523Y-125421428D01*
X266652380Y-125421428D01*
X267652380Y-124754761D02*
X267604761Y-124850000D01*
X267557142Y-124897619D01*
X267461904Y-124945238D01*
X267176190Y-124945238D01*
X267080952Y-124897619D01*
X267033333Y-124850000D01*
X266985714Y-124754761D01*
X266985714Y-124611904D01*
X267033333Y-124516666D01*
X267080952Y-124469047D01*
X267176190Y-124421428D01*
X267461904Y-124421428D01*
X267557142Y-124469047D01*
X267604761Y-124516666D01*
X267652380Y-124611904D01*
X267652380Y-124754761D01*
X266985714Y-123564285D02*
X267795238Y-123564285D01*
X267890476Y-123611904D01*
X267938095Y-123659523D01*
X267985714Y-123754761D01*
X267985714Y-123897619D01*
X267938095Y-123992857D01*
X267604761Y-123564285D02*
X267652380Y-123659523D01*
X267652380Y-123850000D01*
X267604761Y-123945238D01*
X267557142Y-123992857D01*
X267461904Y-124040476D01*
X267176190Y-124040476D01*
X267080952Y-123992857D01*
X267033333Y-123945238D01*
X266985714Y-123850000D01*
X266985714Y-123659523D01*
X267033333Y-123564285D01*
X266652380Y-123183333D02*
X266652380Y-122564285D01*
X267033333Y-122897619D01*
X267033333Y-122754761D01*
X267080952Y-122659523D01*
X267128571Y-122611904D01*
X267223809Y-122564285D01*
X267461904Y-122564285D01*
X267557142Y-122611904D01*
X267604761Y-122659523D01*
X267652380Y-122754761D01*
X267652380Y-123040476D01*
X267604761Y-123135714D01*
X267557142Y-123183333D01*
%TO.C,Analog2*%
X267366666Y-115435714D02*
X267366666Y-114959523D01*
X267652380Y-115530952D02*
X266652380Y-115197619D01*
X267652380Y-114864285D01*
X266985714Y-114530952D02*
X267652380Y-114530952D01*
X267080952Y-114530952D02*
X267033333Y-114483333D01*
X266985714Y-114388095D01*
X266985714Y-114245238D01*
X267033333Y-114150000D01*
X267128571Y-114102380D01*
X267652380Y-114102380D01*
X267652380Y-113197619D02*
X267128571Y-113197619D01*
X267033333Y-113245238D01*
X266985714Y-113340476D01*
X266985714Y-113530952D01*
X267033333Y-113626190D01*
X267604761Y-113197619D02*
X267652380Y-113292857D01*
X267652380Y-113530952D01*
X267604761Y-113626190D01*
X267509523Y-113673809D01*
X267414285Y-113673809D01*
X267319047Y-113626190D01*
X267271428Y-113530952D01*
X267271428Y-113292857D01*
X267223809Y-113197619D01*
X267652380Y-112578571D02*
X267604761Y-112673809D01*
X267509523Y-112721428D01*
X266652380Y-112721428D01*
X267652380Y-112054761D02*
X267604761Y-112150000D01*
X267557142Y-112197619D01*
X267461904Y-112245238D01*
X267176190Y-112245238D01*
X267080952Y-112197619D01*
X267033333Y-112150000D01*
X266985714Y-112054761D01*
X266985714Y-111911904D01*
X267033333Y-111816666D01*
X267080952Y-111769047D01*
X267176190Y-111721428D01*
X267461904Y-111721428D01*
X267557142Y-111769047D01*
X267604761Y-111816666D01*
X267652380Y-111911904D01*
X267652380Y-112054761D01*
X266985714Y-110864285D02*
X267795238Y-110864285D01*
X267890476Y-110911904D01*
X267938095Y-110959523D01*
X267985714Y-111054761D01*
X267985714Y-111197619D01*
X267938095Y-111292857D01*
X267604761Y-110864285D02*
X267652380Y-110959523D01*
X267652380Y-111150000D01*
X267604761Y-111245238D01*
X267557142Y-111292857D01*
X267461904Y-111340476D01*
X267176190Y-111340476D01*
X267080952Y-111292857D01*
X267033333Y-111245238D01*
X266985714Y-111150000D01*
X266985714Y-110959523D01*
X267033333Y-110864285D01*
X266747619Y-110435714D02*
X266700000Y-110388095D01*
X266652380Y-110292857D01*
X266652380Y-110054761D01*
X266700000Y-109959523D01*
X266747619Y-109911904D01*
X266842857Y-109864285D01*
X266938095Y-109864285D01*
X267080952Y-109911904D01*
X267652380Y-110483333D01*
X267652380Y-109864285D01*
%TO.C,U3*%
X202738095Y-126252380D02*
X202738095Y-127061904D01*
X202785714Y-127157142D01*
X202833333Y-127204761D01*
X202928571Y-127252380D01*
X203119047Y-127252380D01*
X203214285Y-127204761D01*
X203261904Y-127157142D01*
X203309523Y-127061904D01*
X203309523Y-126252380D01*
X203690476Y-126252380D02*
X204309523Y-126252380D01*
X203976190Y-126633333D01*
X204119047Y-126633333D01*
X204214285Y-126680952D01*
X204261904Y-126728571D01*
X204309523Y-126823809D01*
X204309523Y-127061904D01*
X204261904Y-127157142D01*
X204214285Y-127204761D01*
X204119047Y-127252380D01*
X203833333Y-127252380D01*
X203738095Y-127204761D01*
X203690476Y-127157142D01*
%TO.C,U1*%
X241732380Y-77461904D02*
X242541904Y-77461904D01*
X242637142Y-77414285D01*
X242684761Y-77366666D01*
X242732380Y-77271428D01*
X242732380Y-77080952D01*
X242684761Y-76985714D01*
X242637142Y-76938095D01*
X242541904Y-76890476D01*
X241732380Y-76890476D01*
X242732380Y-75890476D02*
X242732380Y-76461904D01*
X242732380Y-76176190D02*
X241732380Y-76176190D01*
X241875238Y-76271428D01*
X241970476Y-76366666D01*
X242018095Y-76461904D01*
%TO.C,R18*%
X209957142Y-84752380D02*
X209623809Y-84276190D01*
X209385714Y-84752380D02*
X209385714Y-83752380D01*
X209766666Y-83752380D01*
X209861904Y-83800000D01*
X209909523Y-83847619D01*
X209957142Y-83942857D01*
X209957142Y-84085714D01*
X209909523Y-84180952D01*
X209861904Y-84228571D01*
X209766666Y-84276190D01*
X209385714Y-84276190D01*
X210909523Y-84752380D02*
X210338095Y-84752380D01*
X210623809Y-84752380D02*
X210623809Y-83752380D01*
X210528571Y-83895238D01*
X210433333Y-83990476D01*
X210338095Y-84038095D01*
X211480952Y-84180952D02*
X211385714Y-84133333D01*
X211338095Y-84085714D01*
X211290476Y-83990476D01*
X211290476Y-83942857D01*
X211338095Y-83847619D01*
X211385714Y-83800000D01*
X211480952Y-83752380D01*
X211671428Y-83752380D01*
X211766666Y-83800000D01*
X211814285Y-83847619D01*
X211861904Y-83942857D01*
X211861904Y-83990476D01*
X211814285Y-84085714D01*
X211766666Y-84133333D01*
X211671428Y-84180952D01*
X211480952Y-84180952D01*
X211385714Y-84228571D01*
X211338095Y-84276190D01*
X211290476Y-84371428D01*
X211290476Y-84561904D01*
X211338095Y-84657142D01*
X211385714Y-84704761D01*
X211480952Y-84752380D01*
X211671428Y-84752380D01*
X211766666Y-84704761D01*
X211814285Y-84657142D01*
X211861904Y-84561904D01*
X211861904Y-84371428D01*
X211814285Y-84276190D01*
X211766666Y-84228571D01*
X211671428Y-84180952D01*
%TO.C,R17*%
X214122380Y-110267857D02*
X213646190Y-110601190D01*
X214122380Y-110839285D02*
X213122380Y-110839285D01*
X213122380Y-110458333D01*
X213170000Y-110363095D01*
X213217619Y-110315476D01*
X213312857Y-110267857D01*
X213455714Y-110267857D01*
X213550952Y-110315476D01*
X213598571Y-110363095D01*
X213646190Y-110458333D01*
X213646190Y-110839285D01*
X214122380Y-109315476D02*
X214122380Y-109886904D01*
X214122380Y-109601190D02*
X213122380Y-109601190D01*
X213265238Y-109696428D01*
X213360476Y-109791666D01*
X213408095Y-109886904D01*
X213122380Y-108982142D02*
X213122380Y-108315476D01*
X214122380Y-108744047D01*
%TO.C,R15*%
X257457142Y-71652380D02*
X257123809Y-71176190D01*
X256885714Y-71652380D02*
X256885714Y-70652380D01*
X257266666Y-70652380D01*
X257361904Y-70700000D01*
X257409523Y-70747619D01*
X257457142Y-70842857D01*
X257457142Y-70985714D01*
X257409523Y-71080952D01*
X257361904Y-71128571D01*
X257266666Y-71176190D01*
X256885714Y-71176190D01*
X258409523Y-71652380D02*
X257838095Y-71652380D01*
X258123809Y-71652380D02*
X258123809Y-70652380D01*
X258028571Y-70795238D01*
X257933333Y-70890476D01*
X257838095Y-70938095D01*
X259314285Y-70652380D02*
X258838095Y-70652380D01*
X258790476Y-71128571D01*
X258838095Y-71080952D01*
X258933333Y-71033333D01*
X259171428Y-71033333D01*
X259266666Y-71080952D01*
X259314285Y-71128571D01*
X259361904Y-71223809D01*
X259361904Y-71461904D01*
X259314285Y-71557142D01*
X259266666Y-71604761D01*
X259171428Y-71652380D01*
X258933333Y-71652380D01*
X258838095Y-71604761D01*
X258790476Y-71557142D01*
%TO.C,R13*%
X264352380Y-71442857D02*
X263876190Y-71776190D01*
X264352380Y-72014285D02*
X263352380Y-72014285D01*
X263352380Y-71633333D01*
X263400000Y-71538095D01*
X263447619Y-71490476D01*
X263542857Y-71442857D01*
X263685714Y-71442857D01*
X263780952Y-71490476D01*
X263828571Y-71538095D01*
X263876190Y-71633333D01*
X263876190Y-72014285D01*
X264352380Y-70490476D02*
X264352380Y-71061904D01*
X264352380Y-70776190D02*
X263352380Y-70776190D01*
X263495238Y-70871428D01*
X263590476Y-70966666D01*
X263638095Y-71061904D01*
X263352380Y-70157142D02*
X263352380Y-69538095D01*
X263733333Y-69871428D01*
X263733333Y-69728571D01*
X263780952Y-69633333D01*
X263828571Y-69585714D01*
X263923809Y-69538095D01*
X264161904Y-69538095D01*
X264257142Y-69585714D01*
X264304761Y-69633333D01*
X264352380Y-69728571D01*
X264352380Y-70014285D01*
X264304761Y-70109523D01*
X264257142Y-70157142D01*
%TO.C,R12*%
X264652380Y-78042857D02*
X264176190Y-78376190D01*
X264652380Y-78614285D02*
X263652380Y-78614285D01*
X263652380Y-78233333D01*
X263700000Y-78138095D01*
X263747619Y-78090476D01*
X263842857Y-78042857D01*
X263985714Y-78042857D01*
X264080952Y-78090476D01*
X264128571Y-78138095D01*
X264176190Y-78233333D01*
X264176190Y-78614285D01*
X264652380Y-77090476D02*
X264652380Y-77661904D01*
X264652380Y-77376190D02*
X263652380Y-77376190D01*
X263795238Y-77471428D01*
X263890476Y-77566666D01*
X263938095Y-77661904D01*
X263747619Y-76709523D02*
X263700000Y-76661904D01*
X263652380Y-76566666D01*
X263652380Y-76328571D01*
X263700000Y-76233333D01*
X263747619Y-76185714D01*
X263842857Y-76138095D01*
X263938095Y-76138095D01*
X264080952Y-76185714D01*
X264652380Y-76757142D01*
X264652380Y-76138095D01*
%TO.C,R11*%
X210357142Y-75452380D02*
X210023809Y-74976190D01*
X209785714Y-75452380D02*
X209785714Y-74452380D01*
X210166666Y-74452380D01*
X210261904Y-74500000D01*
X210309523Y-74547619D01*
X210357142Y-74642857D01*
X210357142Y-74785714D01*
X210309523Y-74880952D01*
X210261904Y-74928571D01*
X210166666Y-74976190D01*
X209785714Y-74976190D01*
X211309523Y-75452380D02*
X210738095Y-75452380D01*
X211023809Y-75452380D02*
X211023809Y-74452380D01*
X210928571Y-74595238D01*
X210833333Y-74690476D01*
X210738095Y-74738095D01*
X212261904Y-75452380D02*
X211690476Y-75452380D01*
X211976190Y-75452380D02*
X211976190Y-74452380D01*
X211880952Y-74595238D01*
X211785714Y-74690476D01*
X211690476Y-74738095D01*
%TO.C,R10*%
X210357142Y-74152380D02*
X210023809Y-73676190D01*
X209785714Y-74152380D02*
X209785714Y-73152380D01*
X210166666Y-73152380D01*
X210261904Y-73200000D01*
X210309523Y-73247619D01*
X210357142Y-73342857D01*
X210357142Y-73485714D01*
X210309523Y-73580952D01*
X210261904Y-73628571D01*
X210166666Y-73676190D01*
X209785714Y-73676190D01*
X211309523Y-74152380D02*
X210738095Y-74152380D01*
X211023809Y-74152380D02*
X211023809Y-73152380D01*
X210928571Y-73295238D01*
X210833333Y-73390476D01*
X210738095Y-73438095D01*
X211928571Y-73152380D02*
X212023809Y-73152380D01*
X212119047Y-73200000D01*
X212166666Y-73247619D01*
X212214285Y-73342857D01*
X212261904Y-73533333D01*
X212261904Y-73771428D01*
X212214285Y-73961904D01*
X212166666Y-74057142D01*
X212119047Y-74104761D01*
X212023809Y-74152380D01*
X211928571Y-74152380D01*
X211833333Y-74104761D01*
X211785714Y-74057142D01*
X211738095Y-73961904D01*
X211690476Y-73771428D01*
X211690476Y-73533333D01*
X211738095Y-73342857D01*
X211785714Y-73247619D01*
X211833333Y-73200000D01*
X211928571Y-73152380D01*
%TO.C,R9*%
X268552380Y-101066666D02*
X268076190Y-101400000D01*
X268552380Y-101638095D02*
X267552380Y-101638095D01*
X267552380Y-101257142D01*
X267600000Y-101161904D01*
X267647619Y-101114285D01*
X267742857Y-101066666D01*
X267885714Y-101066666D01*
X267980952Y-101114285D01*
X268028571Y-101161904D01*
X268076190Y-101257142D01*
X268076190Y-101638095D01*
X268552380Y-100590476D02*
X268552380Y-100400000D01*
X268504761Y-100304761D01*
X268457142Y-100257142D01*
X268314285Y-100161904D01*
X268123809Y-100114285D01*
X267742857Y-100114285D01*
X267647619Y-100161904D01*
X267600000Y-100209523D01*
X267552380Y-100304761D01*
X267552380Y-100495238D01*
X267600000Y-100590476D01*
X267647619Y-100638095D01*
X267742857Y-100685714D01*
X267980952Y-100685714D01*
X268076190Y-100638095D01*
X268123809Y-100590476D01*
X268171428Y-100495238D01*
X268171428Y-100304761D01*
X268123809Y-100209523D01*
X268076190Y-100161904D01*
X267980952Y-100114285D01*
%TO.C,R8*%
X234123333Y-79822380D02*
X233790000Y-79346190D01*
X233551904Y-79822380D02*
X233551904Y-78822380D01*
X233932857Y-78822380D01*
X234028095Y-78870000D01*
X234075714Y-78917619D01*
X234123333Y-79012857D01*
X234123333Y-79155714D01*
X234075714Y-79250952D01*
X234028095Y-79298571D01*
X233932857Y-79346190D01*
X233551904Y-79346190D01*
X234694761Y-79250952D02*
X234599523Y-79203333D01*
X234551904Y-79155714D01*
X234504285Y-79060476D01*
X234504285Y-79012857D01*
X234551904Y-78917619D01*
X234599523Y-78870000D01*
X234694761Y-78822380D01*
X234885238Y-78822380D01*
X234980476Y-78870000D01*
X235028095Y-78917619D01*
X235075714Y-79012857D01*
X235075714Y-79060476D01*
X235028095Y-79155714D01*
X234980476Y-79203333D01*
X234885238Y-79250952D01*
X234694761Y-79250952D01*
X234599523Y-79298571D01*
X234551904Y-79346190D01*
X234504285Y-79441428D01*
X234504285Y-79631904D01*
X234551904Y-79727142D01*
X234599523Y-79774761D01*
X234694761Y-79822380D01*
X234885238Y-79822380D01*
X234980476Y-79774761D01*
X235028095Y-79727142D01*
X235075714Y-79631904D01*
X235075714Y-79441428D01*
X235028095Y-79346190D01*
X234980476Y-79298571D01*
X234885238Y-79250952D01*
%TO.C,R7*%
X234352380Y-86266666D02*
X233876190Y-86600000D01*
X234352380Y-86838095D02*
X233352380Y-86838095D01*
X233352380Y-86457142D01*
X233400000Y-86361904D01*
X233447619Y-86314285D01*
X233542857Y-86266666D01*
X233685714Y-86266666D01*
X233780952Y-86314285D01*
X233828571Y-86361904D01*
X233876190Y-86457142D01*
X233876190Y-86838095D01*
X233352380Y-85933333D02*
X233352380Y-85266666D01*
X234352380Y-85695238D01*
%TO.C,R6*%
X234133333Y-76252380D02*
X233800000Y-75776190D01*
X233561904Y-76252380D02*
X233561904Y-75252380D01*
X233942857Y-75252380D01*
X234038095Y-75300000D01*
X234085714Y-75347619D01*
X234133333Y-75442857D01*
X234133333Y-75585714D01*
X234085714Y-75680952D01*
X234038095Y-75728571D01*
X233942857Y-75776190D01*
X233561904Y-75776190D01*
X234990476Y-75252380D02*
X234800000Y-75252380D01*
X234704761Y-75300000D01*
X234657142Y-75347619D01*
X234561904Y-75490476D01*
X234514285Y-75680952D01*
X234514285Y-76061904D01*
X234561904Y-76157142D01*
X234609523Y-76204761D01*
X234704761Y-76252380D01*
X234895238Y-76252380D01*
X234990476Y-76204761D01*
X235038095Y-76157142D01*
X235085714Y-76061904D01*
X235085714Y-75823809D01*
X235038095Y-75728571D01*
X234990476Y-75680952D01*
X234895238Y-75633333D01*
X234704761Y-75633333D01*
X234609523Y-75680952D01*
X234561904Y-75728571D01*
X234514285Y-75823809D01*
%TO.C,R5*%
X234143333Y-82222380D02*
X233810000Y-81746190D01*
X233571904Y-82222380D02*
X233571904Y-81222380D01*
X233952857Y-81222380D01*
X234048095Y-81270000D01*
X234095714Y-81317619D01*
X234143333Y-81412857D01*
X234143333Y-81555714D01*
X234095714Y-81650952D01*
X234048095Y-81698571D01*
X233952857Y-81746190D01*
X233571904Y-81746190D01*
X235048095Y-81222380D02*
X234571904Y-81222380D01*
X234524285Y-81698571D01*
X234571904Y-81650952D01*
X234667142Y-81603333D01*
X234905238Y-81603333D01*
X235000476Y-81650952D01*
X235048095Y-81698571D01*
X235095714Y-81793809D01*
X235095714Y-82031904D01*
X235048095Y-82127142D01*
X235000476Y-82174761D01*
X234905238Y-82222380D01*
X234667142Y-82222380D01*
X234571904Y-82174761D01*
X234524285Y-82127142D01*
%TO.C,R4*%
X213352380Y-124666666D02*
X212876190Y-125000000D01*
X213352380Y-125238095D02*
X212352380Y-125238095D01*
X212352380Y-124857142D01*
X212400000Y-124761904D01*
X212447619Y-124714285D01*
X212542857Y-124666666D01*
X212685714Y-124666666D01*
X212780952Y-124714285D01*
X212828571Y-124761904D01*
X212876190Y-124857142D01*
X212876190Y-125238095D01*
X212685714Y-123809523D02*
X213352380Y-123809523D01*
X212304761Y-124047619D02*
X213019047Y-124285714D01*
X213019047Y-123666666D01*
%TO.C,R3*%
X215333333Y-116852380D02*
X215000000Y-116376190D01*
X214761904Y-116852380D02*
X214761904Y-115852380D01*
X215142857Y-115852380D01*
X215238095Y-115900000D01*
X215285714Y-115947619D01*
X215333333Y-116042857D01*
X215333333Y-116185714D01*
X215285714Y-116280952D01*
X215238095Y-116328571D01*
X215142857Y-116376190D01*
X214761904Y-116376190D01*
X215666666Y-115852380D02*
X216285714Y-115852380D01*
X215952380Y-116233333D01*
X216095238Y-116233333D01*
X216190476Y-116280952D01*
X216238095Y-116328571D01*
X216285714Y-116423809D01*
X216285714Y-116661904D01*
X216238095Y-116757142D01*
X216190476Y-116804761D01*
X216095238Y-116852380D01*
X215809523Y-116852380D01*
X215714285Y-116804761D01*
X215666666Y-116757142D01*
%TO.C,R2*%
X211133333Y-72852380D02*
X210800000Y-72376190D01*
X210561904Y-72852380D02*
X210561904Y-71852380D01*
X210942857Y-71852380D01*
X211038095Y-71900000D01*
X211085714Y-71947619D01*
X211133333Y-72042857D01*
X211133333Y-72185714D01*
X211085714Y-72280952D01*
X211038095Y-72328571D01*
X210942857Y-72376190D01*
X210561904Y-72376190D01*
X211514285Y-71947619D02*
X211561904Y-71900000D01*
X211657142Y-71852380D01*
X211895238Y-71852380D01*
X211990476Y-71900000D01*
X212038095Y-71947619D01*
X212085714Y-72042857D01*
X212085714Y-72138095D01*
X212038095Y-72280952D01*
X211466666Y-72852380D01*
X212085714Y-72852380D01*
%TO.C,R1*%
X211282380Y-116076666D02*
X210806190Y-116410000D01*
X211282380Y-116648095D02*
X210282380Y-116648095D01*
X210282380Y-116267142D01*
X210330000Y-116171904D01*
X210377619Y-116124285D01*
X210472857Y-116076666D01*
X210615714Y-116076666D01*
X210710952Y-116124285D01*
X210758571Y-116171904D01*
X210806190Y-116267142D01*
X210806190Y-116648095D01*
X211282380Y-115124285D02*
X211282380Y-115695714D01*
X211282380Y-115410000D02*
X210282380Y-115410000D01*
X210425238Y-115505238D01*
X210520476Y-115600476D01*
X210568095Y-115695714D01*
%TO.C,Q5*%
X215504761Y-107247619D02*
X215409523Y-107200000D01*
X215314285Y-107104761D01*
X215171428Y-106961904D01*
X215076190Y-106914285D01*
X214980952Y-106914285D01*
X215028571Y-107152380D02*
X214933333Y-107104761D01*
X214838095Y-107009523D01*
X214790476Y-106819047D01*
X214790476Y-106485714D01*
X214838095Y-106295238D01*
X214933333Y-106200000D01*
X215028571Y-106152380D01*
X215219047Y-106152380D01*
X215314285Y-106200000D01*
X215409523Y-106295238D01*
X215457142Y-106485714D01*
X215457142Y-106819047D01*
X215409523Y-107009523D01*
X215314285Y-107104761D01*
X215219047Y-107152380D01*
X215028571Y-107152380D01*
X216361904Y-106152380D02*
X215885714Y-106152380D01*
X215838095Y-106628571D01*
X215885714Y-106580952D01*
X215980952Y-106533333D01*
X216219047Y-106533333D01*
X216314285Y-106580952D01*
X216361904Y-106628571D01*
X216409523Y-106723809D01*
X216409523Y-106961904D01*
X216361904Y-107057142D01*
X216314285Y-107104761D01*
X216219047Y-107152380D01*
X215980952Y-107152380D01*
X215885714Y-107104761D01*
X215838095Y-107057142D01*
%TO.C,Q4*%
X215904761Y-113847619D02*
X215809523Y-113800000D01*
X215714285Y-113704761D01*
X215571428Y-113561904D01*
X215476190Y-113514285D01*
X215380952Y-113514285D01*
X215428571Y-113752380D02*
X215333333Y-113704761D01*
X215238095Y-113609523D01*
X215190476Y-113419047D01*
X215190476Y-113085714D01*
X215238095Y-112895238D01*
X215333333Y-112800000D01*
X215428571Y-112752380D01*
X215619047Y-112752380D01*
X215714285Y-112800000D01*
X215809523Y-112895238D01*
X215857142Y-113085714D01*
X215857142Y-113419047D01*
X215809523Y-113609523D01*
X215714285Y-113704761D01*
X215619047Y-113752380D01*
X215428571Y-113752380D01*
X216714285Y-113085714D02*
X216714285Y-113752380D01*
X216476190Y-112704761D02*
X216238095Y-113419047D01*
X216857142Y-113419047D01*
%TO.C,Q3*%
X222904761Y-106947619D02*
X222809523Y-106900000D01*
X222714285Y-106804761D01*
X222571428Y-106661904D01*
X222476190Y-106614285D01*
X222380952Y-106614285D01*
X222428571Y-106852380D02*
X222333333Y-106804761D01*
X222238095Y-106709523D01*
X222190476Y-106519047D01*
X222190476Y-106185714D01*
X222238095Y-105995238D01*
X222333333Y-105900000D01*
X222428571Y-105852380D01*
X222619047Y-105852380D01*
X222714285Y-105900000D01*
X222809523Y-105995238D01*
X222857142Y-106185714D01*
X222857142Y-106519047D01*
X222809523Y-106709523D01*
X222714285Y-106804761D01*
X222619047Y-106852380D01*
X222428571Y-106852380D01*
X223190476Y-105852380D02*
X223809523Y-105852380D01*
X223476190Y-106233333D01*
X223619047Y-106233333D01*
X223714285Y-106280952D01*
X223761904Y-106328571D01*
X223809523Y-106423809D01*
X223809523Y-106661904D01*
X223761904Y-106757142D01*
X223714285Y-106804761D01*
X223619047Y-106852380D01*
X223333333Y-106852380D01*
X223238095Y-106804761D01*
X223190476Y-106757142D01*
%TO.C,Q2*%
X223547619Y-113395238D02*
X223500000Y-113490476D01*
X223404761Y-113585714D01*
X223261904Y-113728571D01*
X223214285Y-113823809D01*
X223214285Y-113919047D01*
X223452380Y-113871428D02*
X223404761Y-113966666D01*
X223309523Y-114061904D01*
X223119047Y-114109523D01*
X222785714Y-114109523D01*
X222595238Y-114061904D01*
X222500000Y-113966666D01*
X222452380Y-113871428D01*
X222452380Y-113680952D01*
X222500000Y-113585714D01*
X222595238Y-113490476D01*
X222785714Y-113442857D01*
X223119047Y-113442857D01*
X223309523Y-113490476D01*
X223404761Y-113585714D01*
X223452380Y-113680952D01*
X223452380Y-113871428D01*
X222547619Y-113061904D02*
X222500000Y-113014285D01*
X222452380Y-112919047D01*
X222452380Y-112680952D01*
X222500000Y-112585714D01*
X222547619Y-112538095D01*
X222642857Y-112490476D01*
X222738095Y-112490476D01*
X222880952Y-112538095D01*
X223452380Y-113109523D01*
X223452380Y-112490476D01*
%TO.C,L1*%
X224933333Y-118552380D02*
X224457142Y-118552380D01*
X224457142Y-117552380D01*
X225790476Y-118552380D02*
X225219047Y-118552380D01*
X225504761Y-118552380D02*
X225504761Y-117552380D01*
X225409523Y-117695238D01*
X225314285Y-117790476D01*
X225219047Y-117838095D01*
%TO.C,J2*%
X239066666Y-90482380D02*
X239066666Y-91196666D01*
X239019047Y-91339523D01*
X238923809Y-91434761D01*
X238780952Y-91482380D01*
X238685714Y-91482380D01*
X239495238Y-90577619D02*
X239542857Y-90530000D01*
X239638095Y-90482380D01*
X239876190Y-90482380D01*
X239971428Y-90530000D01*
X240019047Y-90577619D01*
X240066666Y-90672857D01*
X240066666Y-90768095D01*
X240019047Y-90910952D01*
X239447619Y-91482380D01*
X240066666Y-91482380D01*
%TO.C,IC2*%
D14*
X199760238Y-116874523D02*
X199760238Y-115604523D01*
X201090714Y-116753571D02*
X201030238Y-116814047D01*
X200848809Y-116874523D01*
X200727857Y-116874523D01*
X200546428Y-116814047D01*
X200425476Y-116693095D01*
X200365000Y-116572142D01*
X200304523Y-116330238D01*
X200304523Y-116148809D01*
X200365000Y-115906904D01*
X200425476Y-115785952D01*
X200546428Y-115665000D01*
X200727857Y-115604523D01*
X200848809Y-115604523D01*
X201030238Y-115665000D01*
X201090714Y-115725476D01*
X201574523Y-115725476D02*
X201635000Y-115665000D01*
X201755952Y-115604523D01*
X202058333Y-115604523D01*
X202179285Y-115665000D01*
X202239761Y-115725476D01*
X202300238Y-115846428D01*
X202300238Y-115967380D01*
X202239761Y-116148809D01*
X201514047Y-116874523D01*
X202300238Y-116874523D01*
%TO.C,IC1*%
X212274523Y-120339761D02*
X211004523Y-120339761D01*
X212153571Y-119009285D02*
X212214047Y-119069761D01*
X212274523Y-119251190D01*
X212274523Y-119372142D01*
X212214047Y-119553571D01*
X212093095Y-119674523D01*
X211972142Y-119735000D01*
X211730238Y-119795476D01*
X211548809Y-119795476D01*
X211306904Y-119735000D01*
X211185952Y-119674523D01*
X211065000Y-119553571D01*
X211004523Y-119372142D01*
X211004523Y-119251190D01*
X211065000Y-119069761D01*
X211125476Y-119009285D01*
X212274523Y-117799761D02*
X212274523Y-118525476D01*
X212274523Y-118162619D02*
X211004523Y-118162619D01*
X211185952Y-118283571D01*
X211306904Y-118404523D01*
X211367380Y-118525476D01*
%TO.C,D7*%
D12*
X205221904Y-103952380D02*
X205221904Y-102952380D01*
X205460000Y-102952380D01*
X205602857Y-103000000D01*
X205698095Y-103095238D01*
X205745714Y-103190476D01*
X205793333Y-103380952D01*
X205793333Y-103523809D01*
X205745714Y-103714285D01*
X205698095Y-103809523D01*
X205602857Y-103904761D01*
X205460000Y-103952380D01*
X205221904Y-103952380D01*
X206126666Y-102952380D02*
X206793333Y-102952380D01*
X206364761Y-103952380D01*
%TO.C,D6*%
X210061904Y-103952380D02*
X210061904Y-102952380D01*
X210300000Y-102952380D01*
X210442857Y-103000000D01*
X210538095Y-103095238D01*
X210585714Y-103190476D01*
X210633333Y-103380952D01*
X210633333Y-103523809D01*
X210585714Y-103714285D01*
X210538095Y-103809523D01*
X210442857Y-103904761D01*
X210300000Y-103952380D01*
X210061904Y-103952380D01*
X211490476Y-102952380D02*
X211300000Y-102952380D01*
X211204761Y-103000000D01*
X211157142Y-103047619D01*
X211061904Y-103190476D01*
X211014285Y-103380952D01*
X211014285Y-103761904D01*
X211061904Y-103857142D01*
X211109523Y-103904761D01*
X211204761Y-103952380D01*
X211395238Y-103952380D01*
X211490476Y-103904761D01*
X211538095Y-103857142D01*
X211585714Y-103761904D01*
X211585714Y-103523809D01*
X211538095Y-103428571D01*
X211490476Y-103380952D01*
X211395238Y-103333333D01*
X211204761Y-103333333D01*
X211109523Y-103380952D01*
X211061904Y-103428571D01*
X211014285Y-103523809D01*
%TO.C,D5*%
X205221904Y-97452380D02*
X205221904Y-96452380D01*
X205460000Y-96452380D01*
X205602857Y-96500000D01*
X205698095Y-96595238D01*
X205745714Y-96690476D01*
X205793333Y-96880952D01*
X205793333Y-97023809D01*
X205745714Y-97214285D01*
X205698095Y-97309523D01*
X205602857Y-97404761D01*
X205460000Y-97452380D01*
X205221904Y-97452380D01*
X206698095Y-96452380D02*
X206221904Y-96452380D01*
X206174285Y-96928571D01*
X206221904Y-96880952D01*
X206317142Y-96833333D01*
X206555238Y-96833333D01*
X206650476Y-96880952D01*
X206698095Y-96928571D01*
X206745714Y-97023809D01*
X206745714Y-97261904D01*
X206698095Y-97357142D01*
X206650476Y-97404761D01*
X206555238Y-97452380D01*
X206317142Y-97452380D01*
X206221904Y-97404761D01*
X206174285Y-97357142D01*
%TO.C,D4*%
X210061904Y-97452380D02*
X210061904Y-96452380D01*
X210300000Y-96452380D01*
X210442857Y-96500000D01*
X210538095Y-96595238D01*
X210585714Y-96690476D01*
X210633333Y-96880952D01*
X210633333Y-97023809D01*
X210585714Y-97214285D01*
X210538095Y-97309523D01*
X210442857Y-97404761D01*
X210300000Y-97452380D01*
X210061904Y-97452380D01*
X211490476Y-96785714D02*
X211490476Y-97452380D01*
X211252380Y-96404761D02*
X211014285Y-97119047D01*
X211633333Y-97119047D01*
%TO.C,D3*%
X257552380Y-70338095D02*
X256552380Y-70338095D01*
X256552380Y-70100000D01*
X256600000Y-69957142D01*
X256695238Y-69861904D01*
X256790476Y-69814285D01*
X256980952Y-69766666D01*
X257123809Y-69766666D01*
X257314285Y-69814285D01*
X257409523Y-69861904D01*
X257504761Y-69957142D01*
X257552380Y-70100000D01*
X257552380Y-70338095D01*
X256552380Y-69433333D02*
X256552380Y-68814285D01*
X256933333Y-69147619D01*
X256933333Y-69004761D01*
X256980952Y-68909523D01*
X257028571Y-68861904D01*
X257123809Y-68814285D01*
X257361904Y-68814285D01*
X257457142Y-68861904D01*
X257504761Y-68909523D01*
X257552380Y-69004761D01*
X257552380Y-69290476D01*
X257504761Y-69385714D01*
X257457142Y-69433333D01*
%TO.C,D2*%
X264761904Y-70752380D02*
X264761904Y-69752380D01*
X265000000Y-69752380D01*
X265142857Y-69800000D01*
X265238095Y-69895238D01*
X265285714Y-69990476D01*
X265333333Y-70180952D01*
X265333333Y-70323809D01*
X265285714Y-70514285D01*
X265238095Y-70609523D01*
X265142857Y-70704761D01*
X265000000Y-70752380D01*
X264761904Y-70752380D01*
X265714285Y-69847619D02*
X265761904Y-69800000D01*
X265857142Y-69752380D01*
X266095238Y-69752380D01*
X266190476Y-69800000D01*
X266238095Y-69847619D01*
X266285714Y-69942857D01*
X266285714Y-70038095D01*
X266238095Y-70180952D01*
X265666666Y-70752380D01*
X266285714Y-70752380D01*
%TO.C,D1*%
X217752380Y-126238095D02*
X216752380Y-126238095D01*
X216752380Y-126000000D01*
X216800000Y-125857142D01*
X216895238Y-125761904D01*
X216990476Y-125714285D01*
X217180952Y-125666666D01*
X217323809Y-125666666D01*
X217514285Y-125714285D01*
X217609523Y-125761904D01*
X217704761Y-125857142D01*
X217752380Y-126000000D01*
X217752380Y-126238095D01*
X217752380Y-124714285D02*
X217752380Y-125285714D01*
X217752380Y-125000000D02*
X216752380Y-125000000D01*
X216895238Y-125095238D01*
X216990476Y-125190476D01*
X217038095Y-125285714D01*
%TO.C,C12*%
X211857142Y-127442857D02*
X211904761Y-127490476D01*
X211952380Y-127633333D01*
X211952380Y-127728571D01*
X211904761Y-127871428D01*
X211809523Y-127966666D01*
X211714285Y-128014285D01*
X211523809Y-128061904D01*
X211380952Y-128061904D01*
X211190476Y-128014285D01*
X211095238Y-127966666D01*
X211000000Y-127871428D01*
X210952380Y-127728571D01*
X210952380Y-127633333D01*
X211000000Y-127490476D01*
X211047619Y-127442857D01*
X211952380Y-126490476D02*
X211952380Y-127061904D01*
X211952380Y-126776190D02*
X210952380Y-126776190D01*
X211095238Y-126871428D01*
X211190476Y-126966666D01*
X211238095Y-127061904D01*
X211047619Y-126109523D02*
X211000000Y-126061904D01*
X210952380Y-125966666D01*
X210952380Y-125728571D01*
X211000000Y-125633333D01*
X211047619Y-125585714D01*
X211142857Y-125538095D01*
X211238095Y-125538095D01*
X211380952Y-125585714D01*
X211952380Y-126157142D01*
X211952380Y-125538095D01*
%TO.C,C11*%
X207557142Y-124442857D02*
X207604761Y-124490476D01*
X207652380Y-124633333D01*
X207652380Y-124728571D01*
X207604761Y-124871428D01*
X207509523Y-124966666D01*
X207414285Y-125014285D01*
X207223809Y-125061904D01*
X207080952Y-125061904D01*
X206890476Y-125014285D01*
X206795238Y-124966666D01*
X206700000Y-124871428D01*
X206652380Y-124728571D01*
X206652380Y-124633333D01*
X206700000Y-124490476D01*
X206747619Y-124442857D01*
X207652380Y-123490476D02*
X207652380Y-124061904D01*
X207652380Y-123776190D02*
X206652380Y-123776190D01*
X206795238Y-123871428D01*
X206890476Y-123966666D01*
X206938095Y-124061904D01*
X207652380Y-122538095D02*
X207652380Y-123109523D01*
X207652380Y-122823809D02*
X206652380Y-122823809D01*
X206795238Y-122919047D01*
X206890476Y-123014285D01*
X206938095Y-123109523D01*
%TO.C,C10*%
X207257142Y-117442857D02*
X207304761Y-117490476D01*
X207352380Y-117633333D01*
X207352380Y-117728571D01*
X207304761Y-117871428D01*
X207209523Y-117966666D01*
X207114285Y-118014285D01*
X206923809Y-118061904D01*
X206780952Y-118061904D01*
X206590476Y-118014285D01*
X206495238Y-117966666D01*
X206400000Y-117871428D01*
X206352380Y-117728571D01*
X206352380Y-117633333D01*
X206400000Y-117490476D01*
X206447619Y-117442857D01*
X207352380Y-116490476D02*
X207352380Y-117061904D01*
X207352380Y-116776190D02*
X206352380Y-116776190D01*
X206495238Y-116871428D01*
X206590476Y-116966666D01*
X206638095Y-117061904D01*
X206352380Y-115871428D02*
X206352380Y-115776190D01*
X206400000Y-115680952D01*
X206447619Y-115633333D01*
X206542857Y-115585714D01*
X206733333Y-115538095D01*
X206971428Y-115538095D01*
X207161904Y-115585714D01*
X207257142Y-115633333D01*
X207304761Y-115680952D01*
X207352380Y-115776190D01*
X207352380Y-115871428D01*
X207304761Y-115966666D01*
X207257142Y-116014285D01*
X207161904Y-116061904D01*
X206971428Y-116109523D01*
X206733333Y-116109523D01*
X206542857Y-116061904D01*
X206447619Y-116014285D01*
X206400000Y-115966666D01*
X206352380Y-115871428D01*
%TO.C,C9*%
X201457142Y-121766666D02*
X201504761Y-121814285D01*
X201552380Y-121957142D01*
X201552380Y-122052380D01*
X201504761Y-122195238D01*
X201409523Y-122290476D01*
X201314285Y-122338095D01*
X201123809Y-122385714D01*
X200980952Y-122385714D01*
X200790476Y-122338095D01*
X200695238Y-122290476D01*
X200600000Y-122195238D01*
X200552380Y-122052380D01*
X200552380Y-121957142D01*
X200600000Y-121814285D01*
X200647619Y-121766666D01*
X201552380Y-121290476D02*
X201552380Y-121100000D01*
X201504761Y-121004761D01*
X201457142Y-120957142D01*
X201314285Y-120861904D01*
X201123809Y-120814285D01*
X200742857Y-120814285D01*
X200647619Y-120861904D01*
X200600000Y-120909523D01*
X200552380Y-121004761D01*
X200552380Y-121195238D01*
X200600000Y-121290476D01*
X200647619Y-121338095D01*
X200742857Y-121385714D01*
X200980952Y-121385714D01*
X201076190Y-121338095D01*
X201123809Y-121290476D01*
X201171428Y-121195238D01*
X201171428Y-121004761D01*
X201123809Y-120909523D01*
X201076190Y-120861904D01*
X200980952Y-120814285D01*
%TO.C,C8*%
X259357142Y-103891666D02*
X259404761Y-103939285D01*
X259452380Y-104082142D01*
X259452380Y-104177380D01*
X259404761Y-104320238D01*
X259309523Y-104415476D01*
X259214285Y-104463095D01*
X259023809Y-104510714D01*
X258880952Y-104510714D01*
X258690476Y-104463095D01*
X258595238Y-104415476D01*
X258500000Y-104320238D01*
X258452380Y-104177380D01*
X258452380Y-104082142D01*
X258500000Y-103939285D01*
X258547619Y-103891666D01*
X258880952Y-103320238D02*
X258833333Y-103415476D01*
X258785714Y-103463095D01*
X258690476Y-103510714D01*
X258642857Y-103510714D01*
X258547619Y-103463095D01*
X258500000Y-103415476D01*
X258452380Y-103320238D01*
X258452380Y-103129761D01*
X258500000Y-103034523D01*
X258547619Y-102986904D01*
X258642857Y-102939285D01*
X258690476Y-102939285D01*
X258785714Y-102986904D01*
X258833333Y-103034523D01*
X258880952Y-103129761D01*
X258880952Y-103320238D01*
X258928571Y-103415476D01*
X258976190Y-103463095D01*
X259071428Y-103510714D01*
X259261904Y-103510714D01*
X259357142Y-103463095D01*
X259404761Y-103415476D01*
X259452380Y-103320238D01*
X259452380Y-103129761D01*
X259404761Y-103034523D01*
X259357142Y-102986904D01*
X259261904Y-102939285D01*
X259071428Y-102939285D01*
X258976190Y-102986904D01*
X258928571Y-103034523D01*
X258880952Y-103129761D01*
%TO.C,C6*%
X225257142Y-123766666D02*
X225304761Y-123814285D01*
X225352380Y-123957142D01*
X225352380Y-124052380D01*
X225304761Y-124195238D01*
X225209523Y-124290476D01*
X225114285Y-124338095D01*
X224923809Y-124385714D01*
X224780952Y-124385714D01*
X224590476Y-124338095D01*
X224495238Y-124290476D01*
X224400000Y-124195238D01*
X224352380Y-124052380D01*
X224352380Y-123957142D01*
X224400000Y-123814285D01*
X224447619Y-123766666D01*
X224352380Y-122909523D02*
X224352380Y-123100000D01*
X224400000Y-123195238D01*
X224447619Y-123242857D01*
X224590476Y-123338095D01*
X224780952Y-123385714D01*
X225161904Y-123385714D01*
X225257142Y-123338095D01*
X225304761Y-123290476D01*
X225352380Y-123195238D01*
X225352380Y-123004761D01*
X225304761Y-122909523D01*
X225257142Y-122861904D01*
X225161904Y-122814285D01*
X224923809Y-122814285D01*
X224828571Y-122861904D01*
X224780952Y-122909523D01*
X224733333Y-123004761D01*
X224733333Y-123195238D01*
X224780952Y-123290476D01*
X224828571Y-123338095D01*
X224923809Y-123385714D01*
%TO.C,C5*%
X243557142Y-79766666D02*
X243604761Y-79814285D01*
X243652380Y-79957142D01*
X243652380Y-80052380D01*
X243604761Y-80195238D01*
X243509523Y-80290476D01*
X243414285Y-80338095D01*
X243223809Y-80385714D01*
X243080952Y-80385714D01*
X242890476Y-80338095D01*
X242795238Y-80290476D01*
X242700000Y-80195238D01*
X242652380Y-80052380D01*
X242652380Y-79957142D01*
X242700000Y-79814285D01*
X242747619Y-79766666D01*
X242652380Y-78861904D02*
X242652380Y-79338095D01*
X243128571Y-79385714D01*
X243080952Y-79338095D01*
X243033333Y-79242857D01*
X243033333Y-79004761D01*
X243080952Y-78909523D01*
X243128571Y-78861904D01*
X243223809Y-78814285D01*
X243461904Y-78814285D01*
X243557142Y-78861904D01*
X243604761Y-78909523D01*
X243652380Y-79004761D01*
X243652380Y-79242857D01*
X243604761Y-79338095D01*
X243557142Y-79385714D01*
%TO.C,C4*%
X215057142Y-127366666D02*
X215104761Y-127414285D01*
X215152380Y-127557142D01*
X215152380Y-127652380D01*
X215104761Y-127795238D01*
X215009523Y-127890476D01*
X214914285Y-127938095D01*
X214723809Y-127985714D01*
X214580952Y-127985714D01*
X214390476Y-127938095D01*
X214295238Y-127890476D01*
X214200000Y-127795238D01*
X214152380Y-127652380D01*
X214152380Y-127557142D01*
X214200000Y-127414285D01*
X214247619Y-127366666D01*
X214485714Y-126509523D02*
X215152380Y-126509523D01*
X214104761Y-126747619D02*
X214819047Y-126985714D01*
X214819047Y-126366666D01*
%TO.C,C3*%
X217233333Y-117097142D02*
X217185714Y-117144761D01*
X217042857Y-117192380D01*
X216947619Y-117192380D01*
X216804761Y-117144761D01*
X216709523Y-117049523D01*
X216661904Y-116954285D01*
X216614285Y-116763809D01*
X216614285Y-116620952D01*
X216661904Y-116430476D01*
X216709523Y-116335238D01*
X216804761Y-116240000D01*
X216947619Y-116192380D01*
X217042857Y-116192380D01*
X217185714Y-116240000D01*
X217233333Y-116287619D01*
X217566666Y-116192380D02*
X218185714Y-116192380D01*
X217852380Y-116573333D01*
X217995238Y-116573333D01*
X218090476Y-116620952D01*
X218138095Y-116668571D01*
X218185714Y-116763809D01*
X218185714Y-117001904D01*
X218138095Y-117097142D01*
X218090476Y-117144761D01*
X217995238Y-117192380D01*
X217709523Y-117192380D01*
X217614285Y-117144761D01*
X217566666Y-117097142D01*
%TO.C,C2*%
X213483333Y-114397142D02*
X213435714Y-114444761D01*
X213292857Y-114492380D01*
X213197619Y-114492380D01*
X213054761Y-114444761D01*
X212959523Y-114349523D01*
X212911904Y-114254285D01*
X212864285Y-114063809D01*
X212864285Y-113920952D01*
X212911904Y-113730476D01*
X212959523Y-113635238D01*
X213054761Y-113540000D01*
X213197619Y-113492380D01*
X213292857Y-113492380D01*
X213435714Y-113540000D01*
X213483333Y-113587619D01*
X213864285Y-113587619D02*
X213911904Y-113540000D01*
X214007142Y-113492380D01*
X214245238Y-113492380D01*
X214340476Y-113540000D01*
X214388095Y-113587619D01*
X214435714Y-113682857D01*
X214435714Y-113778095D01*
X214388095Y-113920952D01*
X213816666Y-114492380D01*
X214435714Y-114492380D01*
%TO.C,C1*%
X213057142Y-87266666D02*
X213104761Y-87314285D01*
X213152380Y-87457142D01*
X213152380Y-87552380D01*
X213104761Y-87695238D01*
X213009523Y-87790476D01*
X212914285Y-87838095D01*
X212723809Y-87885714D01*
X212580952Y-87885714D01*
X212390476Y-87838095D01*
X212295238Y-87790476D01*
X212200000Y-87695238D01*
X212152380Y-87552380D01*
X212152380Y-87457142D01*
X212200000Y-87314285D01*
X212247619Y-87266666D01*
X213152380Y-86314285D02*
X213152380Y-86885714D01*
X213152380Y-86600000D02*
X212152380Y-86600000D01*
X212295238Y-86695238D01*
X212390476Y-86790476D01*
X212438095Y-86885714D01*
%TD*%
M02*
