%TF.GenerationSoftware,KiCad,Pcbnew,(5.1.9)-1*%
%TF.CreationDate,2021-05-06T00:14:11+03:00*%
%TF.ProjectId,hardware,68617264-7761-4726-952e-6b696361645f,rev?*%
%TF.SameCoordinates,Original*%
%TF.FileFunction,Copper,L2,Bot*%
%TF.FilePolarity,Positive*%
%FSLAX46Y46*%
G04 Gerber Fmt 4.6, Leading zero omitted, Abs format (unit mm)*
G04 Created by KiCad (PCBNEW (5.1.9)-1) date 2021-05-06 00:14:11*
%MOMM*%
%LPD*%
G01*
G04 APERTURE LIST*
%TA.AperFunction,ComponentPad*%
%ADD10O,1.700000X1.700000*%
%TD*%
%TA.AperFunction,ComponentPad*%
%ADD11R,1.700000X1.700000*%
%TD*%
%TA.AperFunction,ComponentPad*%
%ADD12C,5.325000*%
%TD*%
%TA.AperFunction,ComponentPad*%
%ADD13C,3.585000*%
%TD*%
%TA.AperFunction,ComponentPad*%
%ADD14C,1.980000*%
%TD*%
%TA.AperFunction,ComponentPad*%
%ADD15C,7.400000*%
%TD*%
%TA.AperFunction,SMDPad,CuDef*%
%ADD16R,1.000000X3.150000*%
%TD*%
%TA.AperFunction,ComponentPad*%
%ADD17C,1.800000*%
%TD*%
%TA.AperFunction,ComponentPad*%
%ADD18C,2.600000*%
%TD*%
%TA.AperFunction,ComponentPad*%
%ADD19R,2.600000X2.600000*%
%TD*%
%TA.AperFunction,ComponentPad*%
%ADD20R,1.800000X4.400000*%
%TD*%
%TA.AperFunction,ComponentPad*%
%ADD21O,1.800000X4.000000*%
%TD*%
%TA.AperFunction,ComponentPad*%
%ADD22O,4.000000X1.800000*%
%TD*%
%TA.AperFunction,SMDPad,CuDef*%
%ADD23R,1.900000X1.200000*%
%TD*%
%TA.AperFunction,ComponentPad*%
%ADD24O,1.900000X1.200000*%
%TD*%
%TA.AperFunction,SMDPad,CuDef*%
%ADD25R,1.900000X1.500000*%
%TD*%
%TA.AperFunction,ComponentPad*%
%ADD26C,1.450000*%
%TD*%
%TA.AperFunction,SMDPad,CuDef*%
%ADD27R,1.350000X0.400000*%
%TD*%
%TA.AperFunction,ComponentPad*%
%ADD28O,1.600000X1.600000*%
%TD*%
%TA.AperFunction,ComponentPad*%
%ADD29R,1.600000X1.600000*%
%TD*%
%TA.AperFunction,ViaPad*%
%ADD30C,0.800000*%
%TD*%
%TA.AperFunction,Conductor*%
%ADD31C,0.300000*%
%TD*%
%TA.AperFunction,Conductor*%
%ADD32C,1.500000*%
%TD*%
%TA.AperFunction,Conductor*%
%ADD33C,0.254000*%
%TD*%
%TA.AperFunction,Conductor*%
%ADD34C,0.100000*%
%TD*%
G04 APERTURE END LIST*
D10*
%TO.P,BT1,2*%
%TO.N,GND*%
X209000000Y-120460000D03*
D11*
%TO.P,BT1,1*%
%TO.N,VCC*%
X209000000Y-123000000D03*
%TD*%
D12*
%TO.P,BT2,MH3*%
%TO.N,N/C*%
X207000000Y-111260000D03*
D13*
%TO.P,BT2,MH2*%
X198640000Y-127000000D03*
D12*
%TO.P,BT2,MH1*%
X262200000Y-127000000D03*
D14*
%TO.P,BT2,1*%
%TO.N,VCC*%
X198640000Y-119130000D03*
%TO.P,BT2,2*%
%TO.N,GND*%
X270840000Y-119130000D03*
%TD*%
D15*
%TO.P,H3,1*%
%TO.N,GND*%
X254000000Y-75000000D03*
%TD*%
%TO.P,H2,1*%
%TO.N,GND*%
X219000000Y-100000000D03*
%TD*%
%TO.P,H1,1*%
%TO.N,GND*%
X249000000Y-100000000D03*
%TD*%
D16*
%TO.P,Microstep1,6*%
%TO.N,+3V3*%
X247460000Y-85950000D03*
%TO.P,Microstep1,5*%
%TO.N,Net-(A1-Pad12)*%
X247460000Y-91000000D03*
%TO.P,Microstep1,4*%
%TO.N,+3V3*%
X250000000Y-85950000D03*
%TO.P,Microstep1,3*%
%TO.N,Net-(A1-Pad11)*%
X250000000Y-91000000D03*
%TO.P,Microstep1,2*%
%TO.N,+3V3*%
X252540000Y-85950000D03*
%TO.P,Microstep1,1*%
%TO.N,Net-(A1-Pad10)*%
X252540000Y-91000000D03*
%TD*%
D17*
%TO.P,K1,6*%
%TO.N,COIL+*%
X204500000Y-105000000D03*
%TO.P,K1,5*%
%TO.N,COM*%
X204500000Y-87500000D03*
%TO.P,K1,3*%
%TO.N,NO*%
X197000000Y-84000000D03*
%TO.P,K1,1*%
%TO.N,COIL-*%
X197000000Y-105000000D03*
%TD*%
D18*
%TO.P,J4,2*%
%TO.N,NO*%
X204000000Y-73000000D03*
D19*
%TO.P,J4,1*%
%TO.N,COM*%
X204000000Y-78000000D03*
%TD*%
D20*
%TO.P,J3,1*%
%TO.N,VCC*%
X264000000Y-102500000D03*
D21*
%TO.P,J3,2*%
%TO.N,GND*%
X269800000Y-102500000D03*
D22*
%TO.P,J3,3*%
%TO.N,Net-(J3-Pad3)*%
X267000000Y-107300000D03*
%TD*%
D23*
%TO.P,J1,6*%
%TO.N,GND*%
X274487500Y-99500000D03*
X274487500Y-105300000D03*
D24*
X274487500Y-105900000D03*
X274487500Y-98900000D03*
D25*
X274487500Y-101400000D03*
D26*
X271787500Y-104900000D03*
D27*
%TO.P,J1,3*%
%TO.N,Net-(J1-Pad3)*%
X271787500Y-102400000D03*
%TO.P,J1,4*%
%TO.N,Net-(J1-Pad4)*%
X271787500Y-103050000D03*
%TO.P,J1,5*%
%TO.N,GND*%
X271787500Y-103700000D03*
%TO.P,J1,1*%
%TO.N,+5V*%
X271787500Y-101100000D03*
%TO.P,J1,2*%
%TO.N,Net-(J1-Pad2)*%
X271787500Y-101750000D03*
D26*
%TO.P,J1,6*%
%TO.N,GND*%
X271787500Y-99900000D03*
D25*
X274487500Y-103400000D03*
%TD*%
%TO.P,C7,2*%
%TO.N,GND*%
%TA.AperFunction,SMDPad,CuDef*%
G36*
G01*
X261750000Y-89475000D02*
X261750000Y-87475000D01*
G75*
G02*
X262000000Y-87225000I250000J0D01*
G01*
X265000000Y-87225000D01*
G75*
G02*
X265250000Y-87475000I0J-250000D01*
G01*
X265250000Y-89475000D01*
G75*
G02*
X265000000Y-89725000I-250000J0D01*
G01*
X262000000Y-89725000D01*
G75*
G02*
X261750000Y-89475000I0J250000D01*
G01*
G37*
%TD.AperFunction*%
%TO.P,C7,1*%
%TO.N,VCC*%
%TA.AperFunction,SMDPad,CuDef*%
G36*
G01*
X255250000Y-89475000D02*
X255250000Y-87475000D01*
G75*
G02*
X255500000Y-87225000I250000J0D01*
G01*
X258500000Y-87225000D01*
G75*
G02*
X258750000Y-87475000I0J-250000D01*
G01*
X258750000Y-89475000D01*
G75*
G02*
X258500000Y-89725000I-250000J0D01*
G01*
X255500000Y-89725000D01*
G75*
G02*
X255250000Y-89475000I0J250000D01*
G01*
G37*
%TD.AperFunction*%
%TD*%
D28*
%TO.P,A1,16*%
%TO.N,GPIO15*%
X246250000Y-94835000D03*
%TO.P,A1,8*%
%TO.N,VCC*%
X264030000Y-82135000D03*
%TO.P,A1,15*%
%TO.N,GPIO14*%
X248790000Y-94835000D03*
%TO.P,A1,7*%
%TO.N,GND*%
X261490000Y-82135000D03*
%TO.P,A1,14*%
%TO.N,Net-(A1-Pad13)*%
X251330000Y-94835000D03*
%TO.P,A1,6*%
%TO.N,Net-(A1-Pad6)*%
X258950000Y-82135000D03*
%TO.P,A1,13*%
%TO.N,Net-(A1-Pad13)*%
X253870000Y-94835000D03*
%TO.P,A1,5*%
%TO.N,Net-(A1-Pad5)*%
X256410000Y-82135000D03*
%TO.P,A1,12*%
%TO.N,Net-(A1-Pad12)*%
X256410000Y-94835000D03*
%TO.P,A1,4*%
%TO.N,Net-(A1-Pad4)*%
X253870000Y-82135000D03*
%TO.P,A1,11*%
%TO.N,Net-(A1-Pad11)*%
X258950000Y-94835000D03*
%TO.P,A1,3*%
%TO.N,Net-(A1-Pad3)*%
X251330000Y-82135000D03*
%TO.P,A1,10*%
%TO.N,Net-(A1-Pad10)*%
X261490000Y-94835000D03*
%TO.P,A1,2*%
%TO.N,+3V3*%
X248790000Y-82135000D03*
%TO.P,A1,9*%
%TO.N,Net-(A1-Pad9)*%
X264030000Y-94835000D03*
D29*
%TO.P,A1,1*%
%TO.N,GND*%
X246250000Y-82135000D03*
%TD*%
D30*
%TO.N,GPIO15*%
X242449982Y-94500000D03*
%TO.N,VCC*%
X265700000Y-74600000D03*
X235400000Y-71750000D03*
%TO.N,GPIO14*%
X242449982Y-95500003D03*
%TO.N,GND*%
X222000000Y-109000000D03*
X260000000Y-75000000D03*
X275000000Y-102000000D03*
X275000000Y-105000000D03*
X197000000Y-96000000D03*
X197000000Y-99000000D03*
X197000000Y-108000000D03*
X197000000Y-111000000D03*
X197000000Y-114000000D03*
X200000000Y-108000000D03*
X203000000Y-108000000D03*
X206000000Y-108000000D03*
X200000000Y-111000000D03*
X203000000Y-111000000D03*
X200000000Y-114000000D03*
X203000000Y-114000000D03*
X209000000Y-108000000D03*
X212000000Y-108000000D03*
X212000000Y-111000000D03*
X209000000Y-114000000D03*
X212000000Y-114000000D03*
X209000000Y-117000000D03*
X218000000Y-117000000D03*
X227000000Y-117000000D03*
X227000000Y-120000000D03*
X227000000Y-123000000D03*
X224000000Y-123000000D03*
X221000000Y-126000000D03*
X218000000Y-126000000D03*
X212000000Y-126000000D03*
X209000000Y-126000000D03*
X206000000Y-126000000D03*
X200000000Y-123000000D03*
X203000000Y-126000000D03*
X230000000Y-123000000D03*
X233000000Y-123000000D03*
X236000000Y-123000000D03*
X239000000Y-123000000D03*
X242000000Y-123000000D03*
X245000000Y-123000000D03*
X248000000Y-123000000D03*
X251000000Y-123000000D03*
X254000000Y-123000000D03*
X257000000Y-123000000D03*
X257000000Y-120000000D03*
X254000000Y-120000000D03*
X251000000Y-120000000D03*
X248000000Y-120000000D03*
X245000000Y-120000000D03*
X242000000Y-120000000D03*
X239000000Y-120000000D03*
X236000000Y-120000000D03*
X233000000Y-120000000D03*
X230000000Y-120000000D03*
X230000000Y-117000000D03*
X233000000Y-117000000D03*
X236000000Y-117000000D03*
X242000000Y-117000000D03*
X239000000Y-117000000D03*
X248000000Y-117000000D03*
X251000000Y-117000000D03*
X254000000Y-117000000D03*
X245000000Y-117000000D03*
X251000000Y-114000000D03*
X248000000Y-114000000D03*
X245000000Y-114000000D03*
X242000000Y-114000000D03*
X239000000Y-114000000D03*
X236000000Y-114000000D03*
X233000000Y-114000000D03*
X230000000Y-114000000D03*
X227000000Y-114000000D03*
X227000000Y-111000000D03*
X230000000Y-111000000D03*
X233000000Y-111000000D03*
X236000000Y-111000000D03*
X239000000Y-111000000D03*
X242000000Y-111000000D03*
X245000000Y-111000000D03*
X248000000Y-111000000D03*
X245000000Y-108000000D03*
X242000000Y-108000000D03*
X239000000Y-108000000D03*
X236000000Y-108000000D03*
X230000000Y-108000000D03*
X227000000Y-108000000D03*
X227000000Y-105000000D03*
X230000000Y-105000000D03*
X233000000Y-105000000D03*
X233000000Y-108000000D03*
X236000000Y-105000000D03*
X239000000Y-105000000D03*
X242000000Y-105000000D03*
X239000000Y-102000000D03*
X242000000Y-99000000D03*
X242000000Y-102000000D03*
X239000000Y-99000000D03*
X236000000Y-102000000D03*
X236000000Y-99000000D03*
X233000000Y-102000000D03*
X233000000Y-99000000D03*
X230000000Y-102000000D03*
X230000000Y-99000000D03*
X227000000Y-102000000D03*
X227000000Y-99000000D03*
X224000000Y-99000000D03*
X224000000Y-102000000D03*
X224000000Y-105000000D03*
X224000000Y-96000000D03*
X221000000Y-93000000D03*
X224000000Y-93000000D03*
X221000000Y-96000000D03*
X227000000Y-96000000D03*
X227000000Y-93000000D03*
X230000000Y-93000000D03*
X230000000Y-96000000D03*
X233000000Y-96000000D03*
X233000000Y-93000000D03*
X236000000Y-96000000D03*
X239000000Y-96000000D03*
X230000000Y-90000000D03*
X227000000Y-84000000D03*
X221000000Y-84000000D03*
X227000000Y-81000000D03*
X227000000Y-78000000D03*
X224000000Y-78000000D03*
X221000000Y-75000000D03*
X218000000Y-75000000D03*
X221000000Y-72000000D03*
X248000000Y-75000000D03*
X248000000Y-78000000D03*
X257000000Y-72000000D03*
X263000000Y-72000000D03*
X269000000Y-72000000D03*
X272000000Y-72000000D03*
X272000000Y-66000000D03*
X269000000Y-66000000D03*
X266000000Y-84000000D03*
X269000000Y-84000000D03*
X254000000Y-90000000D03*
X239000000Y-93000000D03*
X242000000Y-93000000D03*
X236000000Y-90000000D03*
X254000000Y-99000000D03*
X257000000Y-99000000D03*
X260000000Y-99000000D03*
X254000000Y-102000000D03*
X257000000Y-102000000D03*
X254000000Y-105000000D03*
X251000000Y-105000000D03*
X254000000Y-108000000D03*
X257000000Y-105000000D03*
X260000000Y-108000000D03*
X260000000Y-111000000D03*
X260000000Y-114000000D03*
X257000000Y-108000000D03*
X257000000Y-108000000D03*
X257000000Y-111000000D03*
X263000000Y-108000000D03*
X263000000Y-111000000D03*
X263000000Y-114000000D03*
X266000000Y-111000000D03*
X269000000Y-117000000D03*
X269000000Y-120000000D03*
X275000000Y-126000000D03*
X275000000Y-123000000D03*
X275000000Y-114000000D03*
X275000000Y-111000000D03*
X275000000Y-93000000D03*
X275000000Y-90000000D03*
X275000000Y-81000000D03*
X275000000Y-78000000D03*
X275000000Y-69000000D03*
X234000000Y-73000000D03*
X234000000Y-74000000D03*
X235000000Y-74000000D03*
X235000000Y-73000000D03*
X243000000Y-76000000D03*
X243000000Y-77000000D03*
X242000000Y-77000000D03*
X260000000Y-71000000D03*
X260000000Y-72000000D03*
X263000000Y-73000000D03*
X264000000Y-73000000D03*
X213000000Y-93000000D03*
X213000000Y-92000000D03*
X213000000Y-91000000D03*
X213000000Y-90000000D03*
X214000000Y-90000000D03*
X214000000Y-92000000D03*
X214000000Y-91000000D03*
X219000000Y-83000000D03*
X219000000Y-77000000D03*
X220000000Y-77000000D03*
X219000000Y-72000000D03*
X223000000Y-72000000D03*
X227000000Y-76000000D03*
X229000000Y-76000000D03*
X229000000Y-78000000D03*
X229000000Y-81000000D03*
X225000000Y-84000000D03*
X224000000Y-82000000D03*
X243000000Y-82000000D03*
X246000000Y-75000000D03*
X222000000Y-110000000D03*
X224000000Y-112000000D03*
X218000000Y-115000000D03*
X220000000Y-115000000D03*
X203000000Y-129000000D03*
X206000000Y-129000000D03*
X209000000Y-129000000D03*
X212000000Y-129000000D03*
X215000000Y-129000000D03*
X218000000Y-129000000D03*
X221000000Y-129000000D03*
X224000000Y-129000000D03*
X227000000Y-129000000D03*
X230000000Y-129000000D03*
X233000000Y-129000000D03*
X236000000Y-129000000D03*
X239000000Y-129000000D03*
X242000000Y-129000000D03*
X245000000Y-129000000D03*
X248000000Y-129000000D03*
X251000000Y-129000000D03*
X254000000Y-129000000D03*
X257000000Y-129000000D03*
X260000000Y-105000000D03*
X243000000Y-81000000D03*
X242000000Y-82000000D03*
%TO.N,+3V3*%
X248100000Y-70999990D03*
X246500000Y-80200000D03*
X240700000Y-78650000D03*
X235700000Y-78800000D03*
X240000000Y-91000000D03*
X225930331Y-72430331D03*
%TO.N,+5V*%
X272799402Y-101053513D03*
%TO.N,Net-(D3-Pad1)*%
X266514221Y-102885779D03*
X267100618Y-97500131D03*
%TO.N,FLASH*%
X239800000Y-74800000D03*
X243892452Y-72157548D03*
%TO.N,MOSI*%
X259511861Y-118980765D03*
X264800000Y-118200000D03*
X245846751Y-70999990D03*
X236600000Y-77100000D03*
%TO.N,SCK*%
X260569108Y-119330892D03*
X264500000Y-120700000D03*
X244891362Y-71749990D03*
X239160038Y-76332727D03*
%TO.N,RX*%
X221800000Y-81400000D03*
X221800000Y-79700000D03*
%TO.N,TX*%
X219800000Y-81400000D03*
X219800000Y-79700000D03*
%TO.N,GPIO12*%
X214369669Y-95500000D03*
X214400000Y-97500010D03*
X217500000Y-104750000D03*
X220000000Y-107600000D03*
%TO.N,GPIO13*%
X217700000Y-109300000D03*
X213369666Y-95500000D03*
X213399999Y-97500010D03*
X216400000Y-104750000D03*
%TO.N,GPIO2*%
X236000000Y-82000000D03*
X245450010Y-79400000D03*
%TD*%
D31*
%TO.N,GPIO15*%
X245915000Y-94500000D02*
X246250000Y-94835000D01*
X242449982Y-94500000D02*
X245915000Y-94500000D01*
D32*
%TO.N,VCC*%
X264000000Y-102500000D02*
X264000000Y-99000000D01*
X265780001Y-97219999D02*
X265780001Y-93180001D01*
X264000000Y-99000000D02*
X265780001Y-97219999D01*
X259200010Y-90675010D02*
X257000000Y-88475000D01*
X263275010Y-90675010D02*
X259200010Y-90675010D01*
X265780001Y-93180001D02*
X263275010Y-90675010D01*
X257690000Y-88475000D02*
X257000000Y-88475000D01*
X264030000Y-82135000D02*
X257690000Y-88475000D01*
D31*
X264030000Y-76270000D02*
X265700000Y-74600000D01*
X264030000Y-82135000D02*
X264030000Y-76270000D01*
X245536739Y-70200000D02*
X248500000Y-70200000D01*
X245096750Y-70639989D02*
X245536739Y-70200000D01*
X236510011Y-70639989D02*
X245096750Y-70639989D01*
X235400000Y-71750000D02*
X236510011Y-70639989D01*
X248500000Y-70200000D02*
X249500000Y-71200000D01*
X249500000Y-71200000D02*
X249500000Y-80100000D01*
X261995000Y-80100000D02*
X264030000Y-82135000D01*
X249500000Y-80100000D02*
X261995000Y-80100000D01*
%TO.N,GPIO14*%
X247639999Y-95985001D02*
X248790000Y-94835000D01*
X244830001Y-95500003D02*
X245314999Y-95985001D01*
X242449982Y-95500003D02*
X244830001Y-95500003D01*
X245314999Y-95985001D02*
X247639999Y-95985001D01*
%TO.N,GND*%
X271787500Y-103700000D02*
X271787500Y-104900000D01*
%TO.N,Net-(A1-Pad13)*%
X251330000Y-94835000D02*
X253870000Y-94835000D01*
%TO.N,Net-(A1-Pad12)*%
X247460000Y-92875000D02*
X248085000Y-93500000D01*
X247460000Y-91000000D02*
X247460000Y-92875000D01*
X255075000Y-93500000D02*
X256410000Y-94835000D01*
X248085000Y-93500000D02*
X255075000Y-93500000D01*
%TO.N,Net-(A1-Pad11)*%
X250000000Y-91000000D02*
X250000000Y-92700000D01*
X250000000Y-92700000D02*
X250299990Y-92999990D01*
X257114990Y-92999990D02*
X258950000Y-94835000D01*
X250299990Y-92999990D02*
X257114990Y-92999990D01*
%TO.N,Net-(A1-Pad10)*%
X253340000Y-91000000D02*
X254839980Y-92499980D01*
X252540000Y-91000000D02*
X253340000Y-91000000D01*
X259154980Y-92499980D02*
X261490000Y-94835000D01*
X254839980Y-92499980D02*
X259154980Y-92499980D01*
%TO.N,+3V3*%
X247460000Y-85950000D02*
X250000000Y-85950000D01*
X252540000Y-85950000D02*
X250000000Y-85950000D01*
X248790000Y-84740000D02*
X250000000Y-85950000D01*
X248790000Y-82135000D02*
X248790000Y-84740000D01*
X248790000Y-71689990D02*
X248790000Y-82135000D01*
X248100000Y-70999990D02*
X248790000Y-71689990D01*
X245810012Y-78650000D02*
X240700000Y-78650000D01*
X246500000Y-79339988D02*
X245810012Y-78650000D01*
X246500000Y-80200000D02*
X246500000Y-79339988D01*
X235850000Y-78650000D02*
X235700000Y-78800000D01*
X240700000Y-78650000D02*
X235850000Y-78650000D01*
X245050000Y-85950000D02*
X247460000Y-85950000D01*
X240000000Y-91000000D02*
X245050000Y-85950000D01*
X229330331Y-72430331D02*
X235700000Y-78800000D01*
X225930331Y-72430331D02*
X229330331Y-72430331D01*
%TO.N,+5V*%
X272752915Y-101100000D02*
X272799402Y-101053513D01*
X271787500Y-101100000D02*
X272752915Y-101100000D01*
%TO.N,Net-(D3-Pad1)*%
X266000000Y-102371558D02*
X266000000Y-99900000D01*
X266514221Y-102885779D02*
X266000000Y-102371558D01*
X266000000Y-98600749D02*
X267100618Y-97500131D01*
X266000000Y-99900000D02*
X266000000Y-98600749D01*
%TO.N,FLASH*%
X241250000Y-74800000D02*
X243892452Y-72157548D01*
X239800000Y-74800000D02*
X241250000Y-74800000D01*
%TO.N,MOSI*%
X264419234Y-118580766D02*
X264800000Y-118200000D01*
X259911860Y-118580766D02*
X264419234Y-118580766D01*
X259511861Y-118980765D02*
X259911860Y-118580766D01*
X240814157Y-77100000D02*
X236600000Y-77100000D01*
X245846751Y-72067406D02*
X240814157Y-77100000D01*
X245846751Y-70999990D02*
X245846751Y-72067406D01*
%TO.N,SCK*%
X263130892Y-119330892D02*
X264500000Y-120700000D01*
X260569108Y-119330892D02*
X263130892Y-119330892D01*
X244891362Y-72315675D02*
X241507037Y-75700000D01*
X244891362Y-71749990D02*
X244891362Y-72315675D01*
X239792765Y-75700000D02*
X239160038Y-76332727D01*
X241507037Y-75700000D02*
X239792765Y-75700000D01*
%TO.N,RX*%
X221800000Y-81400000D02*
X221800000Y-79700000D01*
%TO.N,TX*%
X219800000Y-81400000D02*
X219800000Y-79700000D01*
%TO.N,GPIO12*%
X214369669Y-97469679D02*
X214400000Y-97500010D01*
X214369669Y-95500000D02*
X214369669Y-97469679D01*
X220000000Y-107250000D02*
X220000000Y-107600000D01*
X217500000Y-104750000D02*
X220000000Y-107250000D01*
%TO.N,GPIO13*%
X213369666Y-97469677D02*
X213399999Y-97500010D01*
X213369666Y-95500000D02*
X213369666Y-97469677D01*
X217700000Y-106050000D02*
X217700000Y-109300000D01*
X216400000Y-104750000D02*
X217700000Y-106050000D01*
%TO.N,GPIO2*%
X238600000Y-79400000D02*
X245450010Y-79400000D01*
X236000000Y-82000000D02*
X238600000Y-79400000D01*
%TD*%
D33*
%TO.N,GND*%
X275648000Y-130648000D02*
X195352000Y-130648000D01*
X195352000Y-126791248D01*
X196520500Y-126791248D01*
X196520500Y-127208752D01*
X196601952Y-127618235D01*
X196761724Y-128003960D01*
X196993677Y-128351102D01*
X197288898Y-128646323D01*
X197636040Y-128878276D01*
X198021765Y-129038048D01*
X198431248Y-129119500D01*
X198848752Y-129119500D01*
X199258235Y-129038048D01*
X199643960Y-128878276D01*
X199991102Y-128646323D01*
X200286323Y-128351102D01*
X200518276Y-128003960D01*
X200678048Y-127618235D01*
X200759500Y-127208752D01*
X200759500Y-126791248D01*
X200742456Y-126705560D01*
X259210500Y-126705560D01*
X259210500Y-127294440D01*
X259325385Y-127872005D01*
X259550739Y-128416059D01*
X259877904Y-128905695D01*
X260294305Y-129322096D01*
X260783941Y-129649261D01*
X261327995Y-129874615D01*
X261905560Y-129989500D01*
X262494440Y-129989500D01*
X263072005Y-129874615D01*
X263616059Y-129649261D01*
X264105695Y-129322096D01*
X264522096Y-128905695D01*
X264849261Y-128416059D01*
X265074615Y-127872005D01*
X265189500Y-127294440D01*
X265189500Y-126705560D01*
X265074615Y-126127995D01*
X264849261Y-125583941D01*
X264522096Y-125094305D01*
X264105695Y-124677904D01*
X263616059Y-124350739D01*
X263072005Y-124125385D01*
X262494440Y-124010500D01*
X261905560Y-124010500D01*
X261327995Y-124125385D01*
X260783941Y-124350739D01*
X260294305Y-124677904D01*
X259877904Y-125094305D01*
X259550739Y-125583941D01*
X259325385Y-126127995D01*
X259210500Y-126705560D01*
X200742456Y-126705560D01*
X200678048Y-126381765D01*
X200518276Y-125996040D01*
X200286323Y-125648898D01*
X199991102Y-125353677D01*
X199643960Y-125121724D01*
X199258235Y-124961952D01*
X198848752Y-124880500D01*
X198431248Y-124880500D01*
X198021765Y-124961952D01*
X197636040Y-125121724D01*
X197288898Y-125353677D01*
X196993677Y-125648898D01*
X196761724Y-125996040D01*
X196601952Y-126381765D01*
X196520500Y-126791248D01*
X195352000Y-126791248D01*
X195352000Y-122150000D01*
X207821418Y-122150000D01*
X207821418Y-123850000D01*
X207827732Y-123914103D01*
X207846430Y-123975743D01*
X207876794Y-124032550D01*
X207917657Y-124082343D01*
X207967450Y-124123206D01*
X208024257Y-124153570D01*
X208085897Y-124172268D01*
X208150000Y-124178582D01*
X209850000Y-124178582D01*
X209914103Y-124172268D01*
X209975743Y-124153570D01*
X210032550Y-124123206D01*
X210082343Y-124082343D01*
X210123206Y-124032550D01*
X210153570Y-123975743D01*
X210172268Y-123914103D01*
X210178582Y-123850000D01*
X210178582Y-122150000D01*
X210172268Y-122085897D01*
X210153570Y-122024257D01*
X210123206Y-121967450D01*
X210082343Y-121917657D01*
X210032550Y-121876794D01*
X209975743Y-121846430D01*
X209914103Y-121827732D01*
X209850000Y-121821418D01*
X208150000Y-121821418D01*
X208085897Y-121827732D01*
X208024257Y-121846430D01*
X207967450Y-121876794D01*
X207917657Y-121917657D01*
X207876794Y-121967450D01*
X207846430Y-122024257D01*
X207827732Y-122085897D01*
X207821418Y-122150000D01*
X195352000Y-122150000D01*
X195352000Y-119000287D01*
X197323000Y-119000287D01*
X197323000Y-119259713D01*
X197373612Y-119514155D01*
X197472890Y-119753833D01*
X197617020Y-119969538D01*
X197800462Y-120152980D01*
X198016167Y-120297110D01*
X198255845Y-120396388D01*
X198510287Y-120447000D01*
X198769713Y-120447000D01*
X199024155Y-120396388D01*
X199263833Y-120297110D01*
X199479538Y-120152980D01*
X199662980Y-119969538D01*
X199807110Y-119753833D01*
X199906388Y-119514155D01*
X199957000Y-119259713D01*
X199957000Y-119000287D01*
X199938874Y-118909162D01*
X258784861Y-118909162D01*
X258784861Y-119052368D01*
X258812799Y-119192823D01*
X258867602Y-119325129D01*
X258947163Y-119444201D01*
X259048425Y-119545463D01*
X259167497Y-119625024D01*
X259299803Y-119679827D01*
X259440258Y-119707765D01*
X259583464Y-119707765D01*
X259723919Y-119679827D01*
X259856225Y-119625024D01*
X259893677Y-119600000D01*
X259924849Y-119675256D01*
X260004410Y-119794328D01*
X260105672Y-119895590D01*
X260224744Y-119975151D01*
X260357050Y-120029954D01*
X260497505Y-120057892D01*
X260640711Y-120057892D01*
X260781166Y-120029954D01*
X260913472Y-119975151D01*
X261032544Y-119895590D01*
X261120242Y-119807892D01*
X262933313Y-119807892D01*
X263773000Y-120647580D01*
X263773000Y-120771603D01*
X263800938Y-120912058D01*
X263855741Y-121044364D01*
X263935302Y-121163436D01*
X264036564Y-121264698D01*
X264155636Y-121344259D01*
X264287942Y-121399062D01*
X264428397Y-121427000D01*
X264571603Y-121427000D01*
X264712058Y-121399062D01*
X264844364Y-121344259D01*
X264963436Y-121264698D01*
X265064698Y-121163436D01*
X265144259Y-121044364D01*
X265199062Y-120912058D01*
X265227000Y-120771603D01*
X265227000Y-120628397D01*
X265199062Y-120487942D01*
X265144259Y-120355636D01*
X265064698Y-120236564D01*
X264963436Y-120135302D01*
X264844364Y-120055741D01*
X264712058Y-120000938D01*
X264571603Y-119973000D01*
X264447580Y-119973000D01*
X263532345Y-119057766D01*
X264395819Y-119057766D01*
X264419234Y-119060072D01*
X264442649Y-119057766D01*
X264442657Y-119057766D01*
X264512742Y-119050863D01*
X264602657Y-119023588D01*
X264685523Y-118979295D01*
X264749244Y-118927000D01*
X264871603Y-118927000D01*
X265012058Y-118899062D01*
X265144364Y-118844259D01*
X265263436Y-118764698D01*
X265364698Y-118663436D01*
X265444259Y-118544364D01*
X265499062Y-118412058D01*
X265527000Y-118271603D01*
X265527000Y-118128397D01*
X265499062Y-117987942D01*
X265444259Y-117855636D01*
X265364698Y-117736564D01*
X265263436Y-117635302D01*
X265144364Y-117555741D01*
X265012058Y-117500938D01*
X264871603Y-117473000D01*
X264728397Y-117473000D01*
X264587942Y-117500938D01*
X264455636Y-117555741D01*
X264336564Y-117635302D01*
X264235302Y-117736564D01*
X264155741Y-117855636D01*
X264100938Y-117987942D01*
X264077899Y-118103766D01*
X259935274Y-118103766D01*
X259911859Y-118101460D01*
X259888444Y-118103766D01*
X259888437Y-118103766D01*
X259818352Y-118110669D01*
X259728437Y-118137944D01*
X259645571Y-118182237D01*
X259572939Y-118241845D01*
X259563156Y-118253765D01*
X259440258Y-118253765D01*
X259299803Y-118281703D01*
X259167497Y-118336506D01*
X259048425Y-118416067D01*
X258947163Y-118517329D01*
X258867602Y-118636401D01*
X258812799Y-118768707D01*
X258784861Y-118909162D01*
X199938874Y-118909162D01*
X199906388Y-118745845D01*
X199807110Y-118506167D01*
X199662980Y-118290462D01*
X199479538Y-118107020D01*
X199263833Y-117962890D01*
X199024155Y-117863612D01*
X198769713Y-117813000D01*
X198510287Y-117813000D01*
X198255845Y-117863612D01*
X198016167Y-117962890D01*
X197800462Y-118107020D01*
X197617020Y-118290462D01*
X197472890Y-118506167D01*
X197373612Y-118745845D01*
X197323000Y-119000287D01*
X195352000Y-119000287D01*
X195352000Y-110965560D01*
X204010500Y-110965560D01*
X204010500Y-111554440D01*
X204125385Y-112132005D01*
X204350739Y-112676059D01*
X204677904Y-113165695D01*
X205094305Y-113582096D01*
X205583941Y-113909261D01*
X206127995Y-114134615D01*
X206705560Y-114249500D01*
X207294440Y-114249500D01*
X207872005Y-114134615D01*
X208416059Y-113909261D01*
X208905695Y-113582096D01*
X209322096Y-113165695D01*
X209649261Y-112676059D01*
X209874615Y-112132005D01*
X209989500Y-111554440D01*
X209989500Y-110965560D01*
X209874615Y-110387995D01*
X209649261Y-109843941D01*
X209322096Y-109354305D01*
X208905695Y-108937904D01*
X208416059Y-108610739D01*
X207872005Y-108385385D01*
X207294440Y-108270500D01*
X206705560Y-108270500D01*
X206127995Y-108385385D01*
X205583941Y-108610739D01*
X205094305Y-108937904D01*
X204677904Y-109354305D01*
X204350739Y-109843941D01*
X204125385Y-110387995D01*
X204010500Y-110965560D01*
X195352000Y-110965560D01*
X195352000Y-104879151D01*
X195773000Y-104879151D01*
X195773000Y-105120849D01*
X195820153Y-105357903D01*
X195912647Y-105581202D01*
X196046927Y-105782167D01*
X196217833Y-105953073D01*
X196418798Y-106087353D01*
X196642097Y-106179847D01*
X196879151Y-106227000D01*
X197120849Y-106227000D01*
X197357903Y-106179847D01*
X197581202Y-106087353D01*
X197782167Y-105953073D01*
X197953073Y-105782167D01*
X198087353Y-105581202D01*
X198179847Y-105357903D01*
X198227000Y-105120849D01*
X198227000Y-104879151D01*
X203273000Y-104879151D01*
X203273000Y-105120849D01*
X203320153Y-105357903D01*
X203412647Y-105581202D01*
X203546927Y-105782167D01*
X203717833Y-105953073D01*
X203918798Y-106087353D01*
X204142097Y-106179847D01*
X204379151Y-106227000D01*
X204620849Y-106227000D01*
X204857903Y-106179847D01*
X205081202Y-106087353D01*
X205282167Y-105953073D01*
X205453073Y-105782167D01*
X205587353Y-105581202D01*
X205679847Y-105357903D01*
X205727000Y-105120849D01*
X205727000Y-104879151D01*
X205687068Y-104678397D01*
X215673000Y-104678397D01*
X215673000Y-104821603D01*
X215700938Y-104962058D01*
X215755741Y-105094364D01*
X215835302Y-105213436D01*
X215936564Y-105314698D01*
X216055636Y-105394259D01*
X216187942Y-105449062D01*
X216328397Y-105477000D01*
X216452421Y-105477000D01*
X217223000Y-106247580D01*
X217223001Y-108748865D01*
X217135302Y-108836564D01*
X217055741Y-108955636D01*
X217000938Y-109087942D01*
X216973000Y-109228397D01*
X216973000Y-109371603D01*
X217000938Y-109512058D01*
X217055741Y-109644364D01*
X217135302Y-109763436D01*
X217236564Y-109864698D01*
X217355636Y-109944259D01*
X217487942Y-109999062D01*
X217628397Y-110027000D01*
X217771603Y-110027000D01*
X217912058Y-109999062D01*
X218044364Y-109944259D01*
X218163436Y-109864698D01*
X218264698Y-109763436D01*
X218344259Y-109644364D01*
X218399062Y-109512058D01*
X218427000Y-109371603D01*
X218427000Y-109228397D01*
X218399062Y-109087942D01*
X218344259Y-108955636D01*
X218264698Y-108836564D01*
X218177000Y-108748866D01*
X218177000Y-106101579D01*
X219348511Y-107273091D01*
X219300938Y-107387942D01*
X219273000Y-107528397D01*
X219273000Y-107671603D01*
X219300938Y-107812058D01*
X219355741Y-107944364D01*
X219435302Y-108063436D01*
X219536564Y-108164698D01*
X219655636Y-108244259D01*
X219787942Y-108299062D01*
X219928397Y-108327000D01*
X220071603Y-108327000D01*
X220212058Y-108299062D01*
X220344364Y-108244259D01*
X220463436Y-108164698D01*
X220564698Y-108063436D01*
X220644259Y-107944364D01*
X220699062Y-107812058D01*
X220727000Y-107671603D01*
X220727000Y-107528397D01*
X220699062Y-107387942D01*
X220662636Y-107300000D01*
X264667064Y-107300000D01*
X264690755Y-107540534D01*
X264760916Y-107771824D01*
X264874851Y-107984983D01*
X265028183Y-108171817D01*
X265215017Y-108325149D01*
X265428176Y-108439084D01*
X265659466Y-108509245D01*
X265839732Y-108527000D01*
X268160268Y-108527000D01*
X268340534Y-108509245D01*
X268571824Y-108439084D01*
X268784983Y-108325149D01*
X268971817Y-108171817D01*
X269125149Y-107984983D01*
X269239084Y-107771824D01*
X269309245Y-107540534D01*
X269332936Y-107300000D01*
X269309245Y-107059466D01*
X269239084Y-106828176D01*
X269125149Y-106615017D01*
X268971817Y-106428183D01*
X268784983Y-106274851D01*
X268571824Y-106160916D01*
X268340534Y-106090755D01*
X268160268Y-106073000D01*
X265839732Y-106073000D01*
X265659466Y-106090755D01*
X265428176Y-106160916D01*
X265215017Y-106274851D01*
X265028183Y-106428183D01*
X264874851Y-106615017D01*
X264760916Y-106828176D01*
X264690755Y-107059466D01*
X264667064Y-107300000D01*
X220662636Y-107300000D01*
X220644259Y-107255636D01*
X220564698Y-107136564D01*
X220463436Y-107035302D01*
X220405365Y-106996500D01*
X220398529Y-106983711D01*
X220338921Y-106911079D01*
X220320729Y-106896149D01*
X218227000Y-104802421D01*
X218227000Y-104678397D01*
X218199062Y-104537942D01*
X218144259Y-104405636D01*
X218064698Y-104286564D01*
X217963436Y-104185302D01*
X217844364Y-104105741D01*
X217712058Y-104050938D01*
X217571603Y-104023000D01*
X217428397Y-104023000D01*
X217287942Y-104050938D01*
X217155636Y-104105741D01*
X217036564Y-104185302D01*
X216950000Y-104271866D01*
X216863436Y-104185302D01*
X216744364Y-104105741D01*
X216612058Y-104050938D01*
X216471603Y-104023000D01*
X216328397Y-104023000D01*
X216187942Y-104050938D01*
X216055636Y-104105741D01*
X215936564Y-104185302D01*
X215835302Y-104286564D01*
X215755741Y-104405636D01*
X215700938Y-104537942D01*
X215673000Y-104678397D01*
X205687068Y-104678397D01*
X205679847Y-104642097D01*
X205587353Y-104418798D01*
X205453073Y-104217833D01*
X205282167Y-104046927D01*
X205081202Y-103912647D01*
X204857903Y-103820153D01*
X204620849Y-103773000D01*
X204379151Y-103773000D01*
X204142097Y-103820153D01*
X203918798Y-103912647D01*
X203717833Y-104046927D01*
X203546927Y-104217833D01*
X203412647Y-104418798D01*
X203320153Y-104642097D01*
X203273000Y-104879151D01*
X198227000Y-104879151D01*
X198179847Y-104642097D01*
X198087353Y-104418798D01*
X197953073Y-104217833D01*
X197782167Y-104046927D01*
X197581202Y-103912647D01*
X197357903Y-103820153D01*
X197120849Y-103773000D01*
X196879151Y-103773000D01*
X196642097Y-103820153D01*
X196418798Y-103912647D01*
X196217833Y-104046927D01*
X196046927Y-104217833D01*
X195912647Y-104418798D01*
X195820153Y-104642097D01*
X195773000Y-104879151D01*
X195352000Y-104879151D01*
X195352000Y-95428397D01*
X212642666Y-95428397D01*
X212642666Y-95571603D01*
X212670604Y-95712058D01*
X212725407Y-95844364D01*
X212804968Y-95963436D01*
X212892666Y-96051134D01*
X212892667Y-96979208D01*
X212835301Y-97036574D01*
X212755740Y-97155646D01*
X212700937Y-97287952D01*
X212672999Y-97428407D01*
X212672999Y-97571613D01*
X212700937Y-97712068D01*
X212755740Y-97844374D01*
X212835301Y-97963446D01*
X212936563Y-98064708D01*
X213055635Y-98144269D01*
X213187941Y-98199072D01*
X213328396Y-98227010D01*
X213471602Y-98227010D01*
X213612057Y-98199072D01*
X213744363Y-98144269D01*
X213863435Y-98064708D01*
X213900000Y-98028144D01*
X213936564Y-98064708D01*
X214055636Y-98144269D01*
X214187942Y-98199072D01*
X214328397Y-98227010D01*
X214471603Y-98227010D01*
X214612058Y-98199072D01*
X214744364Y-98144269D01*
X214863436Y-98064708D01*
X214964698Y-97963446D01*
X215044259Y-97844374D01*
X215099062Y-97712068D01*
X215127000Y-97571613D01*
X215127000Y-97428407D01*
X215099062Y-97287952D01*
X215044259Y-97155646D01*
X214964698Y-97036574D01*
X214863436Y-96935312D01*
X214846669Y-96924109D01*
X214846669Y-96051134D01*
X214934367Y-95963436D01*
X215013928Y-95844364D01*
X215068731Y-95712058D01*
X215096669Y-95571603D01*
X215096669Y-95428397D01*
X215068731Y-95287942D01*
X215013928Y-95155636D01*
X214934367Y-95036564D01*
X214833105Y-94935302D01*
X214714033Y-94855741D01*
X214581727Y-94800938D01*
X214441272Y-94773000D01*
X214298066Y-94773000D01*
X214157611Y-94800938D01*
X214025305Y-94855741D01*
X213906233Y-94935302D01*
X213869668Y-94971868D01*
X213833102Y-94935302D01*
X213714030Y-94855741D01*
X213581724Y-94800938D01*
X213441269Y-94773000D01*
X213298063Y-94773000D01*
X213157608Y-94800938D01*
X213025302Y-94855741D01*
X212906230Y-94935302D01*
X212804968Y-95036564D01*
X212725407Y-95155636D01*
X212670604Y-95287942D01*
X212642666Y-95428397D01*
X195352000Y-95428397D01*
X195352000Y-94428397D01*
X241722982Y-94428397D01*
X241722982Y-94571603D01*
X241750920Y-94712058D01*
X241805723Y-94844364D01*
X241885284Y-94963436D01*
X241921850Y-95000002D01*
X241885284Y-95036567D01*
X241805723Y-95155639D01*
X241750920Y-95287945D01*
X241722982Y-95428400D01*
X241722982Y-95571606D01*
X241750920Y-95712061D01*
X241805723Y-95844367D01*
X241885284Y-95963439D01*
X241986546Y-96064701D01*
X242105618Y-96144262D01*
X242237924Y-96199065D01*
X242378379Y-96227003D01*
X242521585Y-96227003D01*
X242662040Y-96199065D01*
X242794346Y-96144262D01*
X242913418Y-96064701D01*
X243001116Y-95977003D01*
X244632422Y-95977003D01*
X244961148Y-96305730D01*
X244976078Y-96323922D01*
X245048710Y-96383530D01*
X245131576Y-96427823D01*
X245221491Y-96455098D01*
X245291576Y-96462001D01*
X245291584Y-96462001D01*
X245314999Y-96464307D01*
X245338414Y-96462001D01*
X247616584Y-96462001D01*
X247639999Y-96464307D01*
X247663414Y-96462001D01*
X247663422Y-96462001D01*
X247733507Y-96455098D01*
X247823422Y-96427823D01*
X247906288Y-96383530D01*
X247978920Y-96323922D01*
X247993854Y-96305725D01*
X248404431Y-95895148D01*
X248461266Y-95918690D01*
X248679000Y-95962000D01*
X248901000Y-95962000D01*
X249118734Y-95918690D01*
X249323835Y-95833734D01*
X249508421Y-95710398D01*
X249665398Y-95553421D01*
X249788734Y-95368835D01*
X249873690Y-95163734D01*
X249917000Y-94946000D01*
X249917000Y-94724000D01*
X249873690Y-94506266D01*
X249788734Y-94301165D01*
X249665398Y-94116579D01*
X249525819Y-93977000D01*
X250594181Y-93977000D01*
X250454602Y-94116579D01*
X250331266Y-94301165D01*
X250246310Y-94506266D01*
X250203000Y-94724000D01*
X250203000Y-94946000D01*
X250246310Y-95163734D01*
X250331266Y-95368835D01*
X250454602Y-95553421D01*
X250611579Y-95710398D01*
X250796165Y-95833734D01*
X251001266Y-95918690D01*
X251219000Y-95962000D01*
X251441000Y-95962000D01*
X251658734Y-95918690D01*
X251863835Y-95833734D01*
X252048421Y-95710398D01*
X252205398Y-95553421D01*
X252328734Y-95368835D01*
X252352276Y-95312000D01*
X252847724Y-95312000D01*
X252871266Y-95368835D01*
X252994602Y-95553421D01*
X253151579Y-95710398D01*
X253336165Y-95833734D01*
X253541266Y-95918690D01*
X253759000Y-95962000D01*
X253981000Y-95962000D01*
X254198734Y-95918690D01*
X254403835Y-95833734D01*
X254588421Y-95710398D01*
X254745398Y-95553421D01*
X254868734Y-95368835D01*
X254953690Y-95163734D01*
X254997000Y-94946000D01*
X254997000Y-94724000D01*
X254953690Y-94506266D01*
X254868734Y-94301165D01*
X254745398Y-94116579D01*
X254605819Y-93977000D01*
X254877421Y-93977000D01*
X255349852Y-94449431D01*
X255326310Y-94506266D01*
X255283000Y-94724000D01*
X255283000Y-94946000D01*
X255326310Y-95163734D01*
X255411266Y-95368835D01*
X255534602Y-95553421D01*
X255691579Y-95710398D01*
X255876165Y-95833734D01*
X256081266Y-95918690D01*
X256299000Y-95962000D01*
X256521000Y-95962000D01*
X256738734Y-95918690D01*
X256943835Y-95833734D01*
X257128421Y-95710398D01*
X257285398Y-95553421D01*
X257408734Y-95368835D01*
X257493690Y-95163734D01*
X257537000Y-94946000D01*
X257537000Y-94724000D01*
X257493690Y-94506266D01*
X257408734Y-94301165D01*
X257285398Y-94116579D01*
X257128421Y-93959602D01*
X256943835Y-93836266D01*
X256738734Y-93751310D01*
X256521000Y-93708000D01*
X256299000Y-93708000D01*
X256081266Y-93751310D01*
X256024431Y-93774852D01*
X255726569Y-93476990D01*
X256917411Y-93476990D01*
X257889852Y-94449431D01*
X257866310Y-94506266D01*
X257823000Y-94724000D01*
X257823000Y-94946000D01*
X257866310Y-95163734D01*
X257951266Y-95368835D01*
X258074602Y-95553421D01*
X258231579Y-95710398D01*
X258416165Y-95833734D01*
X258621266Y-95918690D01*
X258839000Y-95962000D01*
X259061000Y-95962000D01*
X259278734Y-95918690D01*
X259483835Y-95833734D01*
X259668421Y-95710398D01*
X259825398Y-95553421D01*
X259948734Y-95368835D01*
X260033690Y-95163734D01*
X260077000Y-94946000D01*
X260077000Y-94724000D01*
X260033690Y-94506266D01*
X259948734Y-94301165D01*
X259825398Y-94116579D01*
X259668421Y-93959602D01*
X259483835Y-93836266D01*
X259278734Y-93751310D01*
X259061000Y-93708000D01*
X258839000Y-93708000D01*
X258621266Y-93751310D01*
X258564431Y-93774852D01*
X257766559Y-92976980D01*
X258957401Y-92976980D01*
X260429852Y-94449431D01*
X260406310Y-94506266D01*
X260363000Y-94724000D01*
X260363000Y-94946000D01*
X260406310Y-95163734D01*
X260491266Y-95368835D01*
X260614602Y-95553421D01*
X260771579Y-95710398D01*
X260956165Y-95833734D01*
X261161266Y-95918690D01*
X261379000Y-95962000D01*
X261601000Y-95962000D01*
X261818734Y-95918690D01*
X262023835Y-95833734D01*
X262208421Y-95710398D01*
X262365398Y-95553421D01*
X262488734Y-95368835D01*
X262573690Y-95163734D01*
X262617000Y-94946000D01*
X262617000Y-94724000D01*
X262573690Y-94506266D01*
X262488734Y-94301165D01*
X262365398Y-94116579D01*
X262208421Y-93959602D01*
X262023835Y-93836266D01*
X261818734Y-93751310D01*
X261601000Y-93708000D01*
X261379000Y-93708000D01*
X261161266Y-93751310D01*
X261104431Y-93774852D01*
X259508835Y-92179256D01*
X259493901Y-92161059D01*
X259421269Y-92101451D01*
X259338403Y-92057158D01*
X259248488Y-92029883D01*
X259178403Y-92022980D01*
X259178395Y-92022980D01*
X259154980Y-92020674D01*
X259131565Y-92022980D01*
X255037560Y-92022980D01*
X253693855Y-90679276D01*
X253678921Y-90661079D01*
X253606289Y-90601471D01*
X253523423Y-90557178D01*
X253433508Y-90529903D01*
X253368582Y-90523508D01*
X253368582Y-89425000D01*
X253362268Y-89360897D01*
X253343570Y-89299257D01*
X253313206Y-89242450D01*
X253272343Y-89192657D01*
X253222550Y-89151794D01*
X253165743Y-89121430D01*
X253104103Y-89102732D01*
X253040000Y-89096418D01*
X252040000Y-89096418D01*
X251975897Y-89102732D01*
X251914257Y-89121430D01*
X251857450Y-89151794D01*
X251807657Y-89192657D01*
X251766794Y-89242450D01*
X251736430Y-89299257D01*
X251717732Y-89360897D01*
X251711418Y-89425000D01*
X251711418Y-92522990D01*
X250828582Y-92522990D01*
X250828582Y-89425000D01*
X250822268Y-89360897D01*
X250803570Y-89299257D01*
X250773206Y-89242450D01*
X250732343Y-89192657D01*
X250682550Y-89151794D01*
X250625743Y-89121430D01*
X250564103Y-89102732D01*
X250500000Y-89096418D01*
X249500000Y-89096418D01*
X249435897Y-89102732D01*
X249374257Y-89121430D01*
X249317450Y-89151794D01*
X249267657Y-89192657D01*
X249226794Y-89242450D01*
X249196430Y-89299257D01*
X249177732Y-89360897D01*
X249171418Y-89425000D01*
X249171418Y-92575000D01*
X249177732Y-92639103D01*
X249196430Y-92700743D01*
X249226794Y-92757550D01*
X249267657Y-92807343D01*
X249317450Y-92848206D01*
X249374257Y-92878570D01*
X249435897Y-92897268D01*
X249500000Y-92903582D01*
X249567954Y-92903582D01*
X249601472Y-92966289D01*
X249648014Y-93023000D01*
X248282580Y-93023000D01*
X248119895Y-92860315D01*
X248142550Y-92848206D01*
X248192343Y-92807343D01*
X248233206Y-92757550D01*
X248263570Y-92700743D01*
X248282268Y-92639103D01*
X248288582Y-92575000D01*
X248288582Y-89425000D01*
X248282268Y-89360897D01*
X248263570Y-89299257D01*
X248233206Y-89242450D01*
X248192343Y-89192657D01*
X248142550Y-89151794D01*
X248085743Y-89121430D01*
X248024103Y-89102732D01*
X247960000Y-89096418D01*
X246960000Y-89096418D01*
X246895897Y-89102732D01*
X246834257Y-89121430D01*
X246777450Y-89151794D01*
X246727657Y-89192657D01*
X246686794Y-89242450D01*
X246656430Y-89299257D01*
X246637732Y-89360897D01*
X246631418Y-89425000D01*
X246631418Y-92575000D01*
X246637732Y-92639103D01*
X246656430Y-92700743D01*
X246686794Y-92757550D01*
X246727657Y-92807343D01*
X246777450Y-92848206D01*
X246834257Y-92878570D01*
X246895897Y-92897268D01*
X246960000Y-92903582D01*
X246983509Y-92903582D01*
X246989903Y-92968507D01*
X247017178Y-93058422D01*
X247035927Y-93093498D01*
X247061472Y-93141289D01*
X247085114Y-93170097D01*
X247096043Y-93183413D01*
X247121080Y-93213921D01*
X247139271Y-93228850D01*
X247731147Y-93820727D01*
X247746079Y-93838921D01*
X247818711Y-93898529D01*
X247901577Y-93942822D01*
X247991492Y-93970097D01*
X248054844Y-93976337D01*
X247914602Y-94116579D01*
X247791266Y-94301165D01*
X247706310Y-94506266D01*
X247663000Y-94724000D01*
X247663000Y-94946000D01*
X247706310Y-95163734D01*
X247729852Y-95220569D01*
X247442420Y-95508001D01*
X247155747Y-95508001D01*
X247248734Y-95368835D01*
X247333690Y-95163734D01*
X247377000Y-94946000D01*
X247377000Y-94724000D01*
X247333690Y-94506266D01*
X247248734Y-94301165D01*
X247125398Y-94116579D01*
X246968421Y-93959602D01*
X246783835Y-93836266D01*
X246578734Y-93751310D01*
X246361000Y-93708000D01*
X246139000Y-93708000D01*
X245921266Y-93751310D01*
X245716165Y-93836266D01*
X245531579Y-93959602D01*
X245468181Y-94023000D01*
X243001116Y-94023000D01*
X242913418Y-93935302D01*
X242794346Y-93855741D01*
X242662040Y-93800938D01*
X242521585Y-93773000D01*
X242378379Y-93773000D01*
X242237924Y-93800938D01*
X242105618Y-93855741D01*
X241986546Y-93935302D01*
X241885284Y-94036564D01*
X241805723Y-94155636D01*
X241750920Y-94287942D01*
X241722982Y-94428397D01*
X195352000Y-94428397D01*
X195352000Y-94127000D01*
X212000000Y-94127000D01*
X212024776Y-94124560D01*
X212048601Y-94117333D01*
X212070557Y-94105597D01*
X212089803Y-94089803D01*
X212105597Y-94070557D01*
X212117333Y-94048601D01*
X212124560Y-94024776D01*
X212127000Y-94000000D01*
X212127000Y-79628397D01*
X219073000Y-79628397D01*
X219073000Y-79771603D01*
X219100938Y-79912058D01*
X219155741Y-80044364D01*
X219235302Y-80163436D01*
X219323001Y-80251135D01*
X219323000Y-80848866D01*
X219235302Y-80936564D01*
X219155741Y-81055636D01*
X219100938Y-81187942D01*
X219073000Y-81328397D01*
X219073000Y-81471603D01*
X219100938Y-81612058D01*
X219155741Y-81744364D01*
X219235302Y-81863436D01*
X219336564Y-81964698D01*
X219455636Y-82044259D01*
X219587942Y-82099062D01*
X219728397Y-82127000D01*
X219871603Y-82127000D01*
X220012058Y-82099062D01*
X220144364Y-82044259D01*
X220263436Y-81964698D01*
X220364698Y-81863436D01*
X220444259Y-81744364D01*
X220499062Y-81612058D01*
X220527000Y-81471603D01*
X220527000Y-81328397D01*
X220499062Y-81187942D01*
X220444259Y-81055636D01*
X220364698Y-80936564D01*
X220277000Y-80848866D01*
X220277000Y-80251134D01*
X220364698Y-80163436D01*
X220444259Y-80044364D01*
X220499062Y-79912058D01*
X220527000Y-79771603D01*
X220527000Y-79628397D01*
X221073000Y-79628397D01*
X221073000Y-79771603D01*
X221100938Y-79912058D01*
X221155741Y-80044364D01*
X221235302Y-80163436D01*
X221323001Y-80251135D01*
X221323000Y-80848866D01*
X221235302Y-80936564D01*
X221155741Y-81055636D01*
X221100938Y-81187942D01*
X221073000Y-81328397D01*
X221073000Y-81471603D01*
X221100938Y-81612058D01*
X221155741Y-81744364D01*
X221235302Y-81863436D01*
X221336564Y-81964698D01*
X221455636Y-82044259D01*
X221587942Y-82099062D01*
X221728397Y-82127000D01*
X221871603Y-82127000D01*
X222012058Y-82099062D01*
X222144364Y-82044259D01*
X222263436Y-81964698D01*
X222364698Y-81863436D01*
X222444259Y-81744364D01*
X222499062Y-81612058D01*
X222527000Y-81471603D01*
X222527000Y-81328397D01*
X222499062Y-81187942D01*
X222444259Y-81055636D01*
X222364698Y-80936564D01*
X222277000Y-80848866D01*
X222277000Y-80251134D01*
X222364698Y-80163436D01*
X222444259Y-80044364D01*
X222499062Y-79912058D01*
X222527000Y-79771603D01*
X222527000Y-79628397D01*
X222499062Y-79487942D01*
X222444259Y-79355636D01*
X222364698Y-79236564D01*
X222263436Y-79135302D01*
X222144364Y-79055741D01*
X222012058Y-79000938D01*
X221871603Y-78973000D01*
X221728397Y-78973000D01*
X221587942Y-79000938D01*
X221455636Y-79055741D01*
X221336564Y-79135302D01*
X221235302Y-79236564D01*
X221155741Y-79355636D01*
X221100938Y-79487942D01*
X221073000Y-79628397D01*
X220527000Y-79628397D01*
X220499062Y-79487942D01*
X220444259Y-79355636D01*
X220364698Y-79236564D01*
X220263436Y-79135302D01*
X220144364Y-79055741D01*
X220012058Y-79000938D01*
X219871603Y-78973000D01*
X219728397Y-78973000D01*
X219587942Y-79000938D01*
X219455636Y-79055741D01*
X219336564Y-79135302D01*
X219235302Y-79236564D01*
X219155741Y-79355636D01*
X219100938Y-79487942D01*
X219073000Y-79628397D01*
X212127000Y-79628397D01*
X212127000Y-72358728D01*
X225203331Y-72358728D01*
X225203331Y-72501934D01*
X225231269Y-72642389D01*
X225286072Y-72774695D01*
X225365633Y-72893767D01*
X225466895Y-72995029D01*
X225585967Y-73074590D01*
X225718273Y-73129393D01*
X225858728Y-73157331D01*
X226001934Y-73157331D01*
X226142389Y-73129393D01*
X226274695Y-73074590D01*
X226393767Y-72995029D01*
X226481465Y-72907331D01*
X229132752Y-72907331D01*
X234973000Y-78747580D01*
X234973000Y-78871603D01*
X235000938Y-79012058D01*
X235055741Y-79144364D01*
X235135302Y-79263436D01*
X235236564Y-79364698D01*
X235355636Y-79444259D01*
X235487942Y-79499062D01*
X235628397Y-79527000D01*
X235771603Y-79527000D01*
X235912058Y-79499062D01*
X236044364Y-79444259D01*
X236163436Y-79364698D01*
X236264698Y-79263436D01*
X236344259Y-79144364D01*
X236351451Y-79127000D01*
X238198420Y-79127000D01*
X236052421Y-81273000D01*
X235928397Y-81273000D01*
X235787942Y-81300938D01*
X235655636Y-81355741D01*
X235536564Y-81435302D01*
X235435302Y-81536564D01*
X235355741Y-81655636D01*
X235300938Y-81787942D01*
X235273000Y-81928397D01*
X235273000Y-82071603D01*
X235300938Y-82212058D01*
X235355741Y-82344364D01*
X235435302Y-82463436D01*
X235536564Y-82564698D01*
X235655636Y-82644259D01*
X235787942Y-82699062D01*
X235928397Y-82727000D01*
X236071603Y-82727000D01*
X236212058Y-82699062D01*
X236344364Y-82644259D01*
X236463436Y-82564698D01*
X236564698Y-82463436D01*
X236644259Y-82344364D01*
X236699062Y-82212058D01*
X236727000Y-82071603D01*
X236727000Y-81947579D01*
X238797580Y-79877000D01*
X244898876Y-79877000D01*
X244986574Y-79964698D01*
X245105646Y-80044259D01*
X245237952Y-80099062D01*
X245378407Y-80127000D01*
X245521613Y-80127000D01*
X245662068Y-80099062D01*
X245789319Y-80046353D01*
X245773000Y-80128397D01*
X245773000Y-80271603D01*
X245800938Y-80412058D01*
X245855741Y-80544364D01*
X245935302Y-80663436D01*
X246036564Y-80764698D01*
X246155636Y-80844259D01*
X246287942Y-80899062D01*
X246428397Y-80927000D01*
X246571603Y-80927000D01*
X246712058Y-80899062D01*
X246844364Y-80844259D01*
X246963436Y-80764698D01*
X247064698Y-80663436D01*
X247144259Y-80544364D01*
X247199062Y-80412058D01*
X247227000Y-80271603D01*
X247227000Y-80128397D01*
X247199062Y-79987942D01*
X247144259Y-79855636D01*
X247064698Y-79736564D01*
X246977000Y-79648866D01*
X246977000Y-79363402D01*
X246979306Y-79339987D01*
X246977000Y-79316572D01*
X246977000Y-79316565D01*
X246970097Y-79246480D01*
X246968988Y-79242822D01*
X246952340Y-79187942D01*
X246942822Y-79156565D01*
X246898529Y-79073699D01*
X246838921Y-79001067D01*
X246820729Y-78986137D01*
X246163867Y-78329276D01*
X246148933Y-78311079D01*
X246076301Y-78251471D01*
X245993435Y-78207178D01*
X245903520Y-78179903D01*
X245833435Y-78173000D01*
X245833427Y-78173000D01*
X245810012Y-78170694D01*
X245786597Y-78173000D01*
X241251134Y-78173000D01*
X241163436Y-78085302D01*
X241044364Y-78005741D01*
X240912058Y-77950938D01*
X240771603Y-77923000D01*
X240628397Y-77923000D01*
X240487942Y-77950938D01*
X240355636Y-78005741D01*
X240236564Y-78085302D01*
X240148866Y-78173000D01*
X236070194Y-78173000D01*
X236044364Y-78155741D01*
X235912058Y-78100938D01*
X235771603Y-78073000D01*
X235647580Y-78073000D01*
X229684186Y-72109607D01*
X229669252Y-72091410D01*
X229596620Y-72031802D01*
X229513754Y-71987509D01*
X229423839Y-71960234D01*
X229353754Y-71953331D01*
X229353746Y-71953331D01*
X229330331Y-71951025D01*
X229306916Y-71953331D01*
X226481465Y-71953331D01*
X226393767Y-71865633D01*
X226274695Y-71786072D01*
X226142389Y-71731269D01*
X226001934Y-71703331D01*
X225858728Y-71703331D01*
X225718273Y-71731269D01*
X225585967Y-71786072D01*
X225466895Y-71865633D01*
X225365633Y-71966895D01*
X225286072Y-72085967D01*
X225231269Y-72218273D01*
X225203331Y-72358728D01*
X212127000Y-72358728D01*
X212127000Y-70352000D01*
X236123420Y-70352000D01*
X235452421Y-71023000D01*
X235328397Y-71023000D01*
X235187942Y-71050938D01*
X235055636Y-71105741D01*
X234936564Y-71185302D01*
X234835302Y-71286564D01*
X234755741Y-71405636D01*
X234700938Y-71537942D01*
X234673000Y-71678397D01*
X234673000Y-71821603D01*
X234700938Y-71962058D01*
X234755741Y-72094364D01*
X234835302Y-72213436D01*
X234936564Y-72314698D01*
X235055636Y-72394259D01*
X235187942Y-72449062D01*
X235328397Y-72477000D01*
X235471603Y-72477000D01*
X235612058Y-72449062D01*
X235744364Y-72394259D01*
X235863436Y-72314698D01*
X235964698Y-72213436D01*
X236044259Y-72094364D01*
X236099062Y-71962058D01*
X236127000Y-71821603D01*
X236127000Y-71697579D01*
X236707591Y-71116989D01*
X244530149Y-71116989D01*
X244427926Y-71185292D01*
X244326664Y-71286554D01*
X244247103Y-71405626D01*
X244207532Y-71501159D01*
X244104510Y-71458486D01*
X243964055Y-71430548D01*
X243820849Y-71430548D01*
X243680394Y-71458486D01*
X243548088Y-71513289D01*
X243429016Y-71592850D01*
X243327754Y-71694112D01*
X243248193Y-71813184D01*
X243193390Y-71945490D01*
X243165452Y-72085945D01*
X243165452Y-72209968D01*
X241052421Y-74323000D01*
X240351134Y-74323000D01*
X240263436Y-74235302D01*
X240144364Y-74155741D01*
X240012058Y-74100938D01*
X239871603Y-74073000D01*
X239728397Y-74073000D01*
X239587942Y-74100938D01*
X239455636Y-74155741D01*
X239336564Y-74235302D01*
X239235302Y-74336564D01*
X239155741Y-74455636D01*
X239100938Y-74587942D01*
X239073000Y-74728397D01*
X239073000Y-74871603D01*
X239100938Y-75012058D01*
X239155741Y-75144364D01*
X239235302Y-75263436D01*
X239336564Y-75364698D01*
X239406654Y-75411531D01*
X239212458Y-75605727D01*
X239088435Y-75605727D01*
X238947980Y-75633665D01*
X238815674Y-75688468D01*
X238696602Y-75768029D01*
X238595340Y-75869291D01*
X238515779Y-75988363D01*
X238460976Y-76120669D01*
X238433038Y-76261124D01*
X238433038Y-76404330D01*
X238460976Y-76544785D01*
X238493374Y-76623000D01*
X237151134Y-76623000D01*
X237063436Y-76535302D01*
X236944364Y-76455741D01*
X236812058Y-76400938D01*
X236671603Y-76373000D01*
X236528397Y-76373000D01*
X236387942Y-76400938D01*
X236255636Y-76455741D01*
X236136564Y-76535302D01*
X236035302Y-76636564D01*
X235955741Y-76755636D01*
X235900938Y-76887942D01*
X235873000Y-77028397D01*
X235873000Y-77171603D01*
X235900938Y-77312058D01*
X235955741Y-77444364D01*
X236035302Y-77563436D01*
X236136564Y-77664698D01*
X236255636Y-77744259D01*
X236387942Y-77799062D01*
X236528397Y-77827000D01*
X236671603Y-77827000D01*
X236812058Y-77799062D01*
X236944364Y-77744259D01*
X237063436Y-77664698D01*
X237151134Y-77577000D01*
X240790742Y-77577000D01*
X240814157Y-77579306D01*
X240837572Y-77577000D01*
X240837580Y-77577000D01*
X240907665Y-77570097D01*
X240997580Y-77542822D01*
X241080446Y-77498529D01*
X241153078Y-77438921D01*
X241168012Y-77420724D01*
X246167481Y-72421256D01*
X246185672Y-72406327D01*
X246215809Y-72369606D01*
X246245280Y-72333695D01*
X246289573Y-72250829D01*
X246316848Y-72160914D01*
X246322468Y-72103852D01*
X246323751Y-72090829D01*
X246323751Y-72090821D01*
X246326057Y-72067406D01*
X246323751Y-72043991D01*
X246323751Y-71551124D01*
X246411449Y-71463426D01*
X246491010Y-71344354D01*
X246545813Y-71212048D01*
X246573751Y-71071593D01*
X246573751Y-70928387D01*
X246545813Y-70787932D01*
X246499863Y-70677000D01*
X247446888Y-70677000D01*
X247400938Y-70787932D01*
X247373000Y-70928387D01*
X247373000Y-71071593D01*
X247400938Y-71212048D01*
X247455741Y-71344354D01*
X247535302Y-71463426D01*
X247636564Y-71564688D01*
X247755636Y-71644249D01*
X247887942Y-71699052D01*
X248028397Y-71726990D01*
X248152420Y-71726990D01*
X248313000Y-71887570D01*
X248313001Y-81112724D01*
X248256165Y-81136266D01*
X248071579Y-81259602D01*
X247914602Y-81416579D01*
X247791266Y-81601165D01*
X247706310Y-81806266D01*
X247663000Y-82024000D01*
X247663000Y-82246000D01*
X247706310Y-82463734D01*
X247791266Y-82668835D01*
X247914602Y-82853421D01*
X248071579Y-83010398D01*
X248256165Y-83133734D01*
X248313000Y-83157276D01*
X248313001Y-84716575D01*
X248310694Y-84740000D01*
X248319903Y-84833507D01*
X248347178Y-84923422D01*
X248347179Y-84923423D01*
X248391472Y-85006289D01*
X248451080Y-85078921D01*
X248469271Y-85093850D01*
X248848421Y-85473000D01*
X248288582Y-85473000D01*
X248288582Y-84375000D01*
X248282268Y-84310897D01*
X248263570Y-84249257D01*
X248233206Y-84192450D01*
X248192343Y-84142657D01*
X248142550Y-84101794D01*
X248085743Y-84071430D01*
X248024103Y-84052732D01*
X247960000Y-84046418D01*
X246960000Y-84046418D01*
X246895897Y-84052732D01*
X246834257Y-84071430D01*
X246777450Y-84101794D01*
X246727657Y-84142657D01*
X246686794Y-84192450D01*
X246656430Y-84249257D01*
X246637732Y-84310897D01*
X246631418Y-84375000D01*
X246631418Y-85473000D01*
X245073412Y-85473000D01*
X245049999Y-85470694D01*
X245026586Y-85473000D01*
X245026577Y-85473000D01*
X244956492Y-85479903D01*
X244866577Y-85507178D01*
X244783711Y-85551471D01*
X244711079Y-85611079D01*
X244696150Y-85629270D01*
X240052421Y-90273000D01*
X239928397Y-90273000D01*
X239787942Y-90300938D01*
X239655636Y-90355741D01*
X239536564Y-90435302D01*
X239435302Y-90536564D01*
X239355741Y-90655636D01*
X239300938Y-90787942D01*
X239273000Y-90928397D01*
X239273000Y-91071603D01*
X239300938Y-91212058D01*
X239355741Y-91344364D01*
X239435302Y-91463436D01*
X239536564Y-91564698D01*
X239655636Y-91644259D01*
X239787942Y-91699062D01*
X239928397Y-91727000D01*
X240071603Y-91727000D01*
X240212058Y-91699062D01*
X240344364Y-91644259D01*
X240463436Y-91564698D01*
X240564698Y-91463436D01*
X240644259Y-91344364D01*
X240699062Y-91212058D01*
X240727000Y-91071603D01*
X240727000Y-90947579D01*
X245247580Y-86427000D01*
X246631418Y-86427000D01*
X246631418Y-87525000D01*
X246637732Y-87589103D01*
X246656430Y-87650743D01*
X246686794Y-87707550D01*
X246727657Y-87757343D01*
X246777450Y-87798206D01*
X246834257Y-87828570D01*
X246895897Y-87847268D01*
X246960000Y-87853582D01*
X247960000Y-87853582D01*
X248024103Y-87847268D01*
X248085743Y-87828570D01*
X248142550Y-87798206D01*
X248192343Y-87757343D01*
X248233206Y-87707550D01*
X248263570Y-87650743D01*
X248282268Y-87589103D01*
X248288582Y-87525000D01*
X248288582Y-86427000D01*
X249171418Y-86427000D01*
X249171418Y-87525000D01*
X249177732Y-87589103D01*
X249196430Y-87650743D01*
X249226794Y-87707550D01*
X249267657Y-87757343D01*
X249317450Y-87798206D01*
X249374257Y-87828570D01*
X249435897Y-87847268D01*
X249500000Y-87853582D01*
X250500000Y-87853582D01*
X250564103Y-87847268D01*
X250625743Y-87828570D01*
X250682550Y-87798206D01*
X250732343Y-87757343D01*
X250773206Y-87707550D01*
X250803570Y-87650743D01*
X250822268Y-87589103D01*
X250828582Y-87525000D01*
X250828582Y-86427000D01*
X251711418Y-86427000D01*
X251711418Y-87525000D01*
X251717732Y-87589103D01*
X251736430Y-87650743D01*
X251766794Y-87707550D01*
X251807657Y-87757343D01*
X251857450Y-87798206D01*
X251914257Y-87828570D01*
X251975897Y-87847268D01*
X252040000Y-87853582D01*
X253040000Y-87853582D01*
X253104103Y-87847268D01*
X253165743Y-87828570D01*
X253222550Y-87798206D01*
X253272343Y-87757343D01*
X253313206Y-87707550D01*
X253343570Y-87650743D01*
X253362268Y-87589103D01*
X253368582Y-87525000D01*
X253368582Y-84375000D01*
X253362268Y-84310897D01*
X253343570Y-84249257D01*
X253313206Y-84192450D01*
X253272343Y-84142657D01*
X253222550Y-84101794D01*
X253165743Y-84071430D01*
X253104103Y-84052732D01*
X253040000Y-84046418D01*
X252040000Y-84046418D01*
X251975897Y-84052732D01*
X251914257Y-84071430D01*
X251857450Y-84101794D01*
X251807657Y-84142657D01*
X251766794Y-84192450D01*
X251736430Y-84249257D01*
X251717732Y-84310897D01*
X251711418Y-84375000D01*
X251711418Y-85473000D01*
X250828582Y-85473000D01*
X250828582Y-84375000D01*
X250822268Y-84310897D01*
X250803570Y-84249257D01*
X250773206Y-84192450D01*
X250732343Y-84142657D01*
X250682550Y-84101794D01*
X250625743Y-84071430D01*
X250564103Y-84052732D01*
X250500000Y-84046418D01*
X249500000Y-84046418D01*
X249435897Y-84052732D01*
X249374257Y-84071430D01*
X249317450Y-84101794D01*
X249267657Y-84142657D01*
X249267000Y-84143458D01*
X249267000Y-83157276D01*
X249323835Y-83133734D01*
X249508421Y-83010398D01*
X249665398Y-82853421D01*
X249788734Y-82668835D01*
X249873690Y-82463734D01*
X249917000Y-82246000D01*
X249917000Y-82024000D01*
X250203000Y-82024000D01*
X250203000Y-82246000D01*
X250246310Y-82463734D01*
X250331266Y-82668835D01*
X250454602Y-82853421D01*
X250611579Y-83010398D01*
X250796165Y-83133734D01*
X251001266Y-83218690D01*
X251219000Y-83262000D01*
X251441000Y-83262000D01*
X251658734Y-83218690D01*
X251863835Y-83133734D01*
X252048421Y-83010398D01*
X252205398Y-82853421D01*
X252328734Y-82668835D01*
X252413690Y-82463734D01*
X252457000Y-82246000D01*
X252457000Y-82024000D01*
X252743000Y-82024000D01*
X252743000Y-82246000D01*
X252786310Y-82463734D01*
X252871266Y-82668835D01*
X252994602Y-82853421D01*
X253151579Y-83010398D01*
X253336165Y-83133734D01*
X253541266Y-83218690D01*
X253759000Y-83262000D01*
X253981000Y-83262000D01*
X254198734Y-83218690D01*
X254403835Y-83133734D01*
X254588421Y-83010398D01*
X254745398Y-82853421D01*
X254868734Y-82668835D01*
X254953690Y-82463734D01*
X254997000Y-82246000D01*
X254997000Y-82024000D01*
X255283000Y-82024000D01*
X255283000Y-82246000D01*
X255326310Y-82463734D01*
X255411266Y-82668835D01*
X255534602Y-82853421D01*
X255691579Y-83010398D01*
X255876165Y-83133734D01*
X256081266Y-83218690D01*
X256299000Y-83262000D01*
X256521000Y-83262000D01*
X256738734Y-83218690D01*
X256943835Y-83133734D01*
X257128421Y-83010398D01*
X257285398Y-82853421D01*
X257408734Y-82668835D01*
X257493690Y-82463734D01*
X257537000Y-82246000D01*
X257537000Y-82024000D01*
X257823000Y-82024000D01*
X257823000Y-82246000D01*
X257866310Y-82463734D01*
X257951266Y-82668835D01*
X258074602Y-82853421D01*
X258231579Y-83010398D01*
X258416165Y-83133734D01*
X258621266Y-83218690D01*
X258839000Y-83262000D01*
X259061000Y-83262000D01*
X259278734Y-83218690D01*
X259483835Y-83133734D01*
X259668421Y-83010398D01*
X259825398Y-82853421D01*
X259948734Y-82668835D01*
X260033690Y-82463734D01*
X260077000Y-82246000D01*
X260077000Y-82024000D01*
X260033690Y-81806266D01*
X259948734Y-81601165D01*
X259825398Y-81416579D01*
X259668421Y-81259602D01*
X259483835Y-81136266D01*
X259278734Y-81051310D01*
X259061000Y-81008000D01*
X258839000Y-81008000D01*
X258621266Y-81051310D01*
X258416165Y-81136266D01*
X258231579Y-81259602D01*
X258074602Y-81416579D01*
X257951266Y-81601165D01*
X257866310Y-81806266D01*
X257823000Y-82024000D01*
X257537000Y-82024000D01*
X257493690Y-81806266D01*
X257408734Y-81601165D01*
X257285398Y-81416579D01*
X257128421Y-81259602D01*
X256943835Y-81136266D01*
X256738734Y-81051310D01*
X256521000Y-81008000D01*
X256299000Y-81008000D01*
X256081266Y-81051310D01*
X255876165Y-81136266D01*
X255691579Y-81259602D01*
X255534602Y-81416579D01*
X255411266Y-81601165D01*
X255326310Y-81806266D01*
X255283000Y-82024000D01*
X254997000Y-82024000D01*
X254953690Y-81806266D01*
X254868734Y-81601165D01*
X254745398Y-81416579D01*
X254588421Y-81259602D01*
X254403835Y-81136266D01*
X254198734Y-81051310D01*
X253981000Y-81008000D01*
X253759000Y-81008000D01*
X253541266Y-81051310D01*
X253336165Y-81136266D01*
X253151579Y-81259602D01*
X252994602Y-81416579D01*
X252871266Y-81601165D01*
X252786310Y-81806266D01*
X252743000Y-82024000D01*
X252457000Y-82024000D01*
X252413690Y-81806266D01*
X252328734Y-81601165D01*
X252205398Y-81416579D01*
X252048421Y-81259602D01*
X251863835Y-81136266D01*
X251658734Y-81051310D01*
X251441000Y-81008000D01*
X251219000Y-81008000D01*
X251001266Y-81051310D01*
X250796165Y-81136266D01*
X250611579Y-81259602D01*
X250454602Y-81416579D01*
X250331266Y-81601165D01*
X250246310Y-81806266D01*
X250203000Y-82024000D01*
X249917000Y-82024000D01*
X249873690Y-81806266D01*
X249788734Y-81601165D01*
X249665398Y-81416579D01*
X249508421Y-81259602D01*
X249323835Y-81136266D01*
X249267000Y-81112724D01*
X249267000Y-80516322D01*
X249316577Y-80542822D01*
X249406492Y-80570097D01*
X249476577Y-80577000D01*
X249476578Y-80577000D01*
X249500000Y-80579307D01*
X249523423Y-80577000D01*
X261797421Y-80577000D01*
X262931156Y-81710736D01*
X257745475Y-86896418D01*
X255500000Y-86896418D01*
X255387124Y-86907535D01*
X255278586Y-86940460D01*
X255178557Y-86993927D01*
X255090881Y-87065881D01*
X255018927Y-87153557D01*
X254965460Y-87253586D01*
X254932535Y-87362124D01*
X254921418Y-87475000D01*
X254921418Y-89475000D01*
X254932535Y-89587876D01*
X254965460Y-89696414D01*
X255018927Y-89796443D01*
X255090881Y-89884119D01*
X255178557Y-89956073D01*
X255278586Y-90009540D01*
X255387124Y-90042465D01*
X255500000Y-90053582D01*
X257055475Y-90053582D01*
X258401042Y-91399150D01*
X258434771Y-91440249D01*
X258598766Y-91574836D01*
X258785866Y-91674843D01*
X258988881Y-91736427D01*
X259147101Y-91752010D01*
X259147103Y-91752010D01*
X259200010Y-91757221D01*
X259252917Y-91752010D01*
X262828903Y-91752010D01*
X264703002Y-93626110D01*
X264703002Y-93929254D01*
X264563835Y-93836266D01*
X264358734Y-93751310D01*
X264141000Y-93708000D01*
X263919000Y-93708000D01*
X263701266Y-93751310D01*
X263496165Y-93836266D01*
X263311579Y-93959602D01*
X263154602Y-94116579D01*
X263031266Y-94301165D01*
X262946310Y-94506266D01*
X262903000Y-94724000D01*
X262903000Y-94946000D01*
X262946310Y-95163734D01*
X263031266Y-95368835D01*
X263154602Y-95553421D01*
X263311579Y-95710398D01*
X263496165Y-95833734D01*
X263701266Y-95918690D01*
X263919000Y-95962000D01*
X264141000Y-95962000D01*
X264358734Y-95918690D01*
X264563835Y-95833734D01*
X264703001Y-95740746D01*
X264703001Y-96773891D01*
X263275861Y-98201032D01*
X263234762Y-98234761D01*
X263100175Y-98398756D01*
X263000168Y-98585856D01*
X262938584Y-98788871D01*
X262917789Y-99000000D01*
X262923001Y-99052916D01*
X262923001Y-100023827D01*
X262917450Y-100026794D01*
X262867657Y-100067657D01*
X262826794Y-100117450D01*
X262796430Y-100174257D01*
X262777732Y-100235897D01*
X262771418Y-100300000D01*
X262771418Y-104700000D01*
X262777732Y-104764103D01*
X262796430Y-104825743D01*
X262826794Y-104882550D01*
X262867657Y-104932343D01*
X262917450Y-104973206D01*
X262974257Y-105003570D01*
X263035897Y-105022268D01*
X263100000Y-105028582D01*
X264900000Y-105028582D01*
X264964103Y-105022268D01*
X265025743Y-105003570D01*
X265082550Y-104973206D01*
X265132343Y-104932343D01*
X265173206Y-104882550D01*
X265203570Y-104825743D01*
X265222268Y-104764103D01*
X265228582Y-104700000D01*
X265228582Y-100300000D01*
X265222268Y-100235897D01*
X265203570Y-100174257D01*
X265173206Y-100117450D01*
X265132343Y-100067657D01*
X265082550Y-100026794D01*
X265077000Y-100023827D01*
X265077000Y-99446107D01*
X265523001Y-99000107D01*
X265523000Y-99923422D01*
X265523001Y-99923432D01*
X265523000Y-102348143D01*
X265520694Y-102371558D01*
X265523000Y-102394973D01*
X265523000Y-102394980D01*
X265529903Y-102465065D01*
X265557178Y-102554980D01*
X265601471Y-102637847D01*
X265661079Y-102710479D01*
X265679276Y-102725413D01*
X265787221Y-102833358D01*
X265787221Y-102957382D01*
X265815159Y-103097837D01*
X265869962Y-103230143D01*
X265949523Y-103349215D01*
X266050785Y-103450477D01*
X266169857Y-103530038D01*
X266302163Y-103584841D01*
X266442618Y-103612779D01*
X266585824Y-103612779D01*
X266726279Y-103584841D01*
X266858585Y-103530038D01*
X266977657Y-103450477D01*
X267078919Y-103349215D01*
X267158480Y-103230143D01*
X267213283Y-103097837D01*
X267241221Y-102957382D01*
X267241221Y-102814176D01*
X267213283Y-102673721D01*
X267158480Y-102541415D01*
X267078919Y-102422343D01*
X266977657Y-102321081D01*
X266858585Y-102241520D01*
X266726279Y-102186717D01*
X266585824Y-102158779D01*
X266477000Y-102158779D01*
X266477000Y-100900000D01*
X270783918Y-100900000D01*
X270783918Y-101300000D01*
X270790232Y-101364103D01*
X270808705Y-101425000D01*
X270790232Y-101485897D01*
X270783918Y-101550000D01*
X270783918Y-101950000D01*
X270790232Y-102014103D01*
X270808705Y-102075000D01*
X270790232Y-102135897D01*
X270783918Y-102200000D01*
X270783918Y-102600000D01*
X270790232Y-102664103D01*
X270808705Y-102725000D01*
X270790232Y-102785897D01*
X270783918Y-102850000D01*
X270783918Y-103250000D01*
X270790232Y-103314103D01*
X270808930Y-103375743D01*
X270839294Y-103432550D01*
X270880157Y-103482343D01*
X270929950Y-103523206D01*
X270986757Y-103553570D01*
X271048397Y-103572268D01*
X271112500Y-103578582D01*
X272462500Y-103578582D01*
X272526603Y-103572268D01*
X272588243Y-103553570D01*
X272645050Y-103523206D01*
X272694843Y-103482343D01*
X272735706Y-103432550D01*
X272766070Y-103375743D01*
X272784768Y-103314103D01*
X272791082Y-103250000D01*
X272791082Y-102850000D01*
X272784768Y-102785897D01*
X272766295Y-102725000D01*
X272784768Y-102664103D01*
X272791082Y-102600000D01*
X272791082Y-102200000D01*
X272784768Y-102135897D01*
X272766295Y-102075000D01*
X272784768Y-102014103D01*
X272791082Y-101950000D01*
X272791082Y-101780513D01*
X272871005Y-101780513D01*
X273011460Y-101752575D01*
X273143766Y-101697772D01*
X273262838Y-101618211D01*
X273364100Y-101516949D01*
X273443661Y-101397877D01*
X273498464Y-101265571D01*
X273526402Y-101125116D01*
X273526402Y-100981910D01*
X273498464Y-100841455D01*
X273443661Y-100709149D01*
X273364100Y-100590077D01*
X273262838Y-100488815D01*
X273143766Y-100409254D01*
X273011460Y-100354451D01*
X272871005Y-100326513D01*
X272727799Y-100326513D01*
X272587344Y-100354451D01*
X272455038Y-100409254D01*
X272335966Y-100488815D01*
X272253363Y-100571418D01*
X271112500Y-100571418D01*
X271048397Y-100577732D01*
X270986757Y-100596430D01*
X270929950Y-100626794D01*
X270880157Y-100667657D01*
X270839294Y-100717450D01*
X270808930Y-100774257D01*
X270790232Y-100835897D01*
X270783918Y-100900000D01*
X266477000Y-100900000D01*
X266477000Y-98798328D01*
X267048198Y-98227131D01*
X267172221Y-98227131D01*
X267312676Y-98199193D01*
X267444982Y-98144390D01*
X267564054Y-98064829D01*
X267665316Y-97963567D01*
X267744877Y-97844495D01*
X267799680Y-97712189D01*
X267827618Y-97571734D01*
X267827618Y-97428528D01*
X267799680Y-97288073D01*
X267744877Y-97155767D01*
X267665316Y-97036695D01*
X267564054Y-96935433D01*
X267444982Y-96855872D01*
X267312676Y-96801069D01*
X267172221Y-96773131D01*
X267029015Y-96773131D01*
X266888560Y-96801069D01*
X266857001Y-96814141D01*
X266857001Y-93232907D01*
X266862212Y-93180000D01*
X266857001Y-93127092D01*
X266841418Y-92968872D01*
X266779834Y-92765857D01*
X266679827Y-92578757D01*
X266545240Y-92414762D01*
X266504141Y-92381033D01*
X264073983Y-89950876D01*
X264040249Y-89909771D01*
X263876254Y-89775184D01*
X263689154Y-89675177D01*
X263486139Y-89613593D01*
X263327919Y-89598010D01*
X263327917Y-89598010D01*
X263275010Y-89592799D01*
X263222103Y-89598010D01*
X259646118Y-89598010D01*
X259078582Y-89030474D01*
X259078582Y-88609525D01*
X264547684Y-83140424D01*
X264563835Y-83133734D01*
X264748421Y-83010398D01*
X264905398Y-82853421D01*
X265028734Y-82668835D01*
X265113690Y-82463734D01*
X265157000Y-82246000D01*
X265157000Y-82024000D01*
X265113690Y-81806266D01*
X265028734Y-81601165D01*
X264905398Y-81416579D01*
X264748421Y-81259602D01*
X264563835Y-81136266D01*
X264507000Y-81112724D01*
X264507000Y-76467579D01*
X265647580Y-75327000D01*
X265771603Y-75327000D01*
X265912058Y-75299062D01*
X266044364Y-75244259D01*
X266163436Y-75164698D01*
X266264698Y-75063436D01*
X266344259Y-74944364D01*
X266399062Y-74812058D01*
X266427000Y-74671603D01*
X266427000Y-74528397D01*
X266399062Y-74387942D01*
X266344259Y-74255636D01*
X266264698Y-74136564D01*
X266163436Y-74035302D01*
X266044364Y-73955741D01*
X265912058Y-73900938D01*
X265771603Y-73873000D01*
X265628397Y-73873000D01*
X265487942Y-73900938D01*
X265355636Y-73955741D01*
X265236564Y-74035302D01*
X265135302Y-74136564D01*
X265055741Y-74255636D01*
X265000938Y-74387942D01*
X264973000Y-74528397D01*
X264973000Y-74652420D01*
X263709271Y-75916150D01*
X263691080Y-75931079D01*
X263631472Y-76003711D01*
X263612652Y-76038921D01*
X263587178Y-76086578D01*
X263559903Y-76176493D01*
X263550694Y-76270000D01*
X263553001Y-76293425D01*
X263553000Y-80983421D01*
X262348855Y-79779276D01*
X262333921Y-79761079D01*
X262261289Y-79701471D01*
X262178423Y-79657178D01*
X262088508Y-79629903D01*
X262018423Y-79623000D01*
X262018415Y-79623000D01*
X261995000Y-79620694D01*
X261971585Y-79623000D01*
X249977000Y-79623000D01*
X249977000Y-71223415D01*
X249979306Y-71200000D01*
X249977000Y-71176585D01*
X249977000Y-71176577D01*
X249970097Y-71106492D01*
X249942822Y-71016577D01*
X249898529Y-70933711D01*
X249894160Y-70928387D01*
X249853852Y-70879272D01*
X249853850Y-70879270D01*
X249838921Y-70861079D01*
X249820729Y-70846149D01*
X248853855Y-69879276D01*
X248838921Y-69861079D01*
X248766289Y-69801471D01*
X248683423Y-69757178D01*
X248593508Y-69729903D01*
X248523423Y-69723000D01*
X248523415Y-69723000D01*
X248500000Y-69720694D01*
X248476585Y-69723000D01*
X245560153Y-69723000D01*
X245536738Y-69720694D01*
X245513323Y-69723000D01*
X245513316Y-69723000D01*
X245455130Y-69728731D01*
X245443230Y-69729903D01*
X245420903Y-69736676D01*
X245353316Y-69757178D01*
X245270450Y-69801471D01*
X245197818Y-69861079D01*
X245182888Y-69879271D01*
X244899171Y-70162989D01*
X243919996Y-70162989D01*
X243938111Y-70155670D01*
X243942450Y-70153362D01*
X244285806Y-69967711D01*
X244312250Y-69949874D01*
X244338951Y-69932402D01*
X244342760Y-69929295D01*
X244643514Y-69680488D01*
X244665951Y-69657894D01*
X244688789Y-69635530D01*
X244691921Y-69631742D01*
X244938622Y-69329258D01*
X244956272Y-69302693D01*
X244974302Y-69276361D01*
X244976636Y-69272042D01*
X244976639Y-69272038D01*
X244976641Y-69272034D01*
X245159889Y-68927396D01*
X245172047Y-68897898D01*
X245184615Y-68868575D01*
X245186069Y-68863880D01*
X245298886Y-68490208D01*
X245305073Y-68458962D01*
X245311717Y-68427707D01*
X245312230Y-68422818D01*
X245350320Y-68034349D01*
X245352000Y-68017292D01*
X245352000Y-64352000D01*
X275648001Y-64352000D01*
X275648000Y-130648000D01*
%TA.AperFunction,Conductor*%
D34*
G36*
X275648000Y-130648000D02*
G01*
X195352000Y-130648000D01*
X195352000Y-126791248D01*
X196520500Y-126791248D01*
X196520500Y-127208752D01*
X196601952Y-127618235D01*
X196761724Y-128003960D01*
X196993677Y-128351102D01*
X197288898Y-128646323D01*
X197636040Y-128878276D01*
X198021765Y-129038048D01*
X198431248Y-129119500D01*
X198848752Y-129119500D01*
X199258235Y-129038048D01*
X199643960Y-128878276D01*
X199991102Y-128646323D01*
X200286323Y-128351102D01*
X200518276Y-128003960D01*
X200678048Y-127618235D01*
X200759500Y-127208752D01*
X200759500Y-126791248D01*
X200742456Y-126705560D01*
X259210500Y-126705560D01*
X259210500Y-127294440D01*
X259325385Y-127872005D01*
X259550739Y-128416059D01*
X259877904Y-128905695D01*
X260294305Y-129322096D01*
X260783941Y-129649261D01*
X261327995Y-129874615D01*
X261905560Y-129989500D01*
X262494440Y-129989500D01*
X263072005Y-129874615D01*
X263616059Y-129649261D01*
X264105695Y-129322096D01*
X264522096Y-128905695D01*
X264849261Y-128416059D01*
X265074615Y-127872005D01*
X265189500Y-127294440D01*
X265189500Y-126705560D01*
X265074615Y-126127995D01*
X264849261Y-125583941D01*
X264522096Y-125094305D01*
X264105695Y-124677904D01*
X263616059Y-124350739D01*
X263072005Y-124125385D01*
X262494440Y-124010500D01*
X261905560Y-124010500D01*
X261327995Y-124125385D01*
X260783941Y-124350739D01*
X260294305Y-124677904D01*
X259877904Y-125094305D01*
X259550739Y-125583941D01*
X259325385Y-126127995D01*
X259210500Y-126705560D01*
X200742456Y-126705560D01*
X200678048Y-126381765D01*
X200518276Y-125996040D01*
X200286323Y-125648898D01*
X199991102Y-125353677D01*
X199643960Y-125121724D01*
X199258235Y-124961952D01*
X198848752Y-124880500D01*
X198431248Y-124880500D01*
X198021765Y-124961952D01*
X197636040Y-125121724D01*
X197288898Y-125353677D01*
X196993677Y-125648898D01*
X196761724Y-125996040D01*
X196601952Y-126381765D01*
X196520500Y-126791248D01*
X195352000Y-126791248D01*
X195352000Y-122150000D01*
X207821418Y-122150000D01*
X207821418Y-123850000D01*
X207827732Y-123914103D01*
X207846430Y-123975743D01*
X207876794Y-124032550D01*
X207917657Y-124082343D01*
X207967450Y-124123206D01*
X208024257Y-124153570D01*
X208085897Y-124172268D01*
X208150000Y-124178582D01*
X209850000Y-124178582D01*
X209914103Y-124172268D01*
X209975743Y-124153570D01*
X210032550Y-124123206D01*
X210082343Y-124082343D01*
X210123206Y-124032550D01*
X210153570Y-123975743D01*
X210172268Y-123914103D01*
X210178582Y-123850000D01*
X210178582Y-122150000D01*
X210172268Y-122085897D01*
X210153570Y-122024257D01*
X210123206Y-121967450D01*
X210082343Y-121917657D01*
X210032550Y-121876794D01*
X209975743Y-121846430D01*
X209914103Y-121827732D01*
X209850000Y-121821418D01*
X208150000Y-121821418D01*
X208085897Y-121827732D01*
X208024257Y-121846430D01*
X207967450Y-121876794D01*
X207917657Y-121917657D01*
X207876794Y-121967450D01*
X207846430Y-122024257D01*
X207827732Y-122085897D01*
X207821418Y-122150000D01*
X195352000Y-122150000D01*
X195352000Y-119000287D01*
X197323000Y-119000287D01*
X197323000Y-119259713D01*
X197373612Y-119514155D01*
X197472890Y-119753833D01*
X197617020Y-119969538D01*
X197800462Y-120152980D01*
X198016167Y-120297110D01*
X198255845Y-120396388D01*
X198510287Y-120447000D01*
X198769713Y-120447000D01*
X199024155Y-120396388D01*
X199263833Y-120297110D01*
X199479538Y-120152980D01*
X199662980Y-119969538D01*
X199807110Y-119753833D01*
X199906388Y-119514155D01*
X199957000Y-119259713D01*
X199957000Y-119000287D01*
X199938874Y-118909162D01*
X258784861Y-118909162D01*
X258784861Y-119052368D01*
X258812799Y-119192823D01*
X258867602Y-119325129D01*
X258947163Y-119444201D01*
X259048425Y-119545463D01*
X259167497Y-119625024D01*
X259299803Y-119679827D01*
X259440258Y-119707765D01*
X259583464Y-119707765D01*
X259723919Y-119679827D01*
X259856225Y-119625024D01*
X259893677Y-119600000D01*
X259924849Y-119675256D01*
X260004410Y-119794328D01*
X260105672Y-119895590D01*
X260224744Y-119975151D01*
X260357050Y-120029954D01*
X260497505Y-120057892D01*
X260640711Y-120057892D01*
X260781166Y-120029954D01*
X260913472Y-119975151D01*
X261032544Y-119895590D01*
X261120242Y-119807892D01*
X262933313Y-119807892D01*
X263773000Y-120647580D01*
X263773000Y-120771603D01*
X263800938Y-120912058D01*
X263855741Y-121044364D01*
X263935302Y-121163436D01*
X264036564Y-121264698D01*
X264155636Y-121344259D01*
X264287942Y-121399062D01*
X264428397Y-121427000D01*
X264571603Y-121427000D01*
X264712058Y-121399062D01*
X264844364Y-121344259D01*
X264963436Y-121264698D01*
X265064698Y-121163436D01*
X265144259Y-121044364D01*
X265199062Y-120912058D01*
X265227000Y-120771603D01*
X265227000Y-120628397D01*
X265199062Y-120487942D01*
X265144259Y-120355636D01*
X265064698Y-120236564D01*
X264963436Y-120135302D01*
X264844364Y-120055741D01*
X264712058Y-120000938D01*
X264571603Y-119973000D01*
X264447580Y-119973000D01*
X263532345Y-119057766D01*
X264395819Y-119057766D01*
X264419234Y-119060072D01*
X264442649Y-119057766D01*
X264442657Y-119057766D01*
X264512742Y-119050863D01*
X264602657Y-119023588D01*
X264685523Y-118979295D01*
X264749244Y-118927000D01*
X264871603Y-118927000D01*
X265012058Y-118899062D01*
X265144364Y-118844259D01*
X265263436Y-118764698D01*
X265364698Y-118663436D01*
X265444259Y-118544364D01*
X265499062Y-118412058D01*
X265527000Y-118271603D01*
X265527000Y-118128397D01*
X265499062Y-117987942D01*
X265444259Y-117855636D01*
X265364698Y-117736564D01*
X265263436Y-117635302D01*
X265144364Y-117555741D01*
X265012058Y-117500938D01*
X264871603Y-117473000D01*
X264728397Y-117473000D01*
X264587942Y-117500938D01*
X264455636Y-117555741D01*
X264336564Y-117635302D01*
X264235302Y-117736564D01*
X264155741Y-117855636D01*
X264100938Y-117987942D01*
X264077899Y-118103766D01*
X259935274Y-118103766D01*
X259911859Y-118101460D01*
X259888444Y-118103766D01*
X259888437Y-118103766D01*
X259818352Y-118110669D01*
X259728437Y-118137944D01*
X259645571Y-118182237D01*
X259572939Y-118241845D01*
X259563156Y-118253765D01*
X259440258Y-118253765D01*
X259299803Y-118281703D01*
X259167497Y-118336506D01*
X259048425Y-118416067D01*
X258947163Y-118517329D01*
X258867602Y-118636401D01*
X258812799Y-118768707D01*
X258784861Y-118909162D01*
X199938874Y-118909162D01*
X199906388Y-118745845D01*
X199807110Y-118506167D01*
X199662980Y-118290462D01*
X199479538Y-118107020D01*
X199263833Y-117962890D01*
X199024155Y-117863612D01*
X198769713Y-117813000D01*
X198510287Y-117813000D01*
X198255845Y-117863612D01*
X198016167Y-117962890D01*
X197800462Y-118107020D01*
X197617020Y-118290462D01*
X197472890Y-118506167D01*
X197373612Y-118745845D01*
X197323000Y-119000287D01*
X195352000Y-119000287D01*
X195352000Y-110965560D01*
X204010500Y-110965560D01*
X204010500Y-111554440D01*
X204125385Y-112132005D01*
X204350739Y-112676059D01*
X204677904Y-113165695D01*
X205094305Y-113582096D01*
X205583941Y-113909261D01*
X206127995Y-114134615D01*
X206705560Y-114249500D01*
X207294440Y-114249500D01*
X207872005Y-114134615D01*
X208416059Y-113909261D01*
X208905695Y-113582096D01*
X209322096Y-113165695D01*
X209649261Y-112676059D01*
X209874615Y-112132005D01*
X209989500Y-111554440D01*
X209989500Y-110965560D01*
X209874615Y-110387995D01*
X209649261Y-109843941D01*
X209322096Y-109354305D01*
X208905695Y-108937904D01*
X208416059Y-108610739D01*
X207872005Y-108385385D01*
X207294440Y-108270500D01*
X206705560Y-108270500D01*
X206127995Y-108385385D01*
X205583941Y-108610739D01*
X205094305Y-108937904D01*
X204677904Y-109354305D01*
X204350739Y-109843941D01*
X204125385Y-110387995D01*
X204010500Y-110965560D01*
X195352000Y-110965560D01*
X195352000Y-104879151D01*
X195773000Y-104879151D01*
X195773000Y-105120849D01*
X195820153Y-105357903D01*
X195912647Y-105581202D01*
X196046927Y-105782167D01*
X196217833Y-105953073D01*
X196418798Y-106087353D01*
X196642097Y-106179847D01*
X196879151Y-106227000D01*
X197120849Y-106227000D01*
X197357903Y-106179847D01*
X197581202Y-106087353D01*
X197782167Y-105953073D01*
X197953073Y-105782167D01*
X198087353Y-105581202D01*
X198179847Y-105357903D01*
X198227000Y-105120849D01*
X198227000Y-104879151D01*
X203273000Y-104879151D01*
X203273000Y-105120849D01*
X203320153Y-105357903D01*
X203412647Y-105581202D01*
X203546927Y-105782167D01*
X203717833Y-105953073D01*
X203918798Y-106087353D01*
X204142097Y-106179847D01*
X204379151Y-106227000D01*
X204620849Y-106227000D01*
X204857903Y-106179847D01*
X205081202Y-106087353D01*
X205282167Y-105953073D01*
X205453073Y-105782167D01*
X205587353Y-105581202D01*
X205679847Y-105357903D01*
X205727000Y-105120849D01*
X205727000Y-104879151D01*
X205687068Y-104678397D01*
X215673000Y-104678397D01*
X215673000Y-104821603D01*
X215700938Y-104962058D01*
X215755741Y-105094364D01*
X215835302Y-105213436D01*
X215936564Y-105314698D01*
X216055636Y-105394259D01*
X216187942Y-105449062D01*
X216328397Y-105477000D01*
X216452421Y-105477000D01*
X217223000Y-106247580D01*
X217223001Y-108748865D01*
X217135302Y-108836564D01*
X217055741Y-108955636D01*
X217000938Y-109087942D01*
X216973000Y-109228397D01*
X216973000Y-109371603D01*
X217000938Y-109512058D01*
X217055741Y-109644364D01*
X217135302Y-109763436D01*
X217236564Y-109864698D01*
X217355636Y-109944259D01*
X217487942Y-109999062D01*
X217628397Y-110027000D01*
X217771603Y-110027000D01*
X217912058Y-109999062D01*
X218044364Y-109944259D01*
X218163436Y-109864698D01*
X218264698Y-109763436D01*
X218344259Y-109644364D01*
X218399062Y-109512058D01*
X218427000Y-109371603D01*
X218427000Y-109228397D01*
X218399062Y-109087942D01*
X218344259Y-108955636D01*
X218264698Y-108836564D01*
X218177000Y-108748866D01*
X218177000Y-106101579D01*
X219348511Y-107273091D01*
X219300938Y-107387942D01*
X219273000Y-107528397D01*
X219273000Y-107671603D01*
X219300938Y-107812058D01*
X219355741Y-107944364D01*
X219435302Y-108063436D01*
X219536564Y-108164698D01*
X219655636Y-108244259D01*
X219787942Y-108299062D01*
X219928397Y-108327000D01*
X220071603Y-108327000D01*
X220212058Y-108299062D01*
X220344364Y-108244259D01*
X220463436Y-108164698D01*
X220564698Y-108063436D01*
X220644259Y-107944364D01*
X220699062Y-107812058D01*
X220727000Y-107671603D01*
X220727000Y-107528397D01*
X220699062Y-107387942D01*
X220662636Y-107300000D01*
X264667064Y-107300000D01*
X264690755Y-107540534D01*
X264760916Y-107771824D01*
X264874851Y-107984983D01*
X265028183Y-108171817D01*
X265215017Y-108325149D01*
X265428176Y-108439084D01*
X265659466Y-108509245D01*
X265839732Y-108527000D01*
X268160268Y-108527000D01*
X268340534Y-108509245D01*
X268571824Y-108439084D01*
X268784983Y-108325149D01*
X268971817Y-108171817D01*
X269125149Y-107984983D01*
X269239084Y-107771824D01*
X269309245Y-107540534D01*
X269332936Y-107300000D01*
X269309245Y-107059466D01*
X269239084Y-106828176D01*
X269125149Y-106615017D01*
X268971817Y-106428183D01*
X268784983Y-106274851D01*
X268571824Y-106160916D01*
X268340534Y-106090755D01*
X268160268Y-106073000D01*
X265839732Y-106073000D01*
X265659466Y-106090755D01*
X265428176Y-106160916D01*
X265215017Y-106274851D01*
X265028183Y-106428183D01*
X264874851Y-106615017D01*
X264760916Y-106828176D01*
X264690755Y-107059466D01*
X264667064Y-107300000D01*
X220662636Y-107300000D01*
X220644259Y-107255636D01*
X220564698Y-107136564D01*
X220463436Y-107035302D01*
X220405365Y-106996500D01*
X220398529Y-106983711D01*
X220338921Y-106911079D01*
X220320729Y-106896149D01*
X218227000Y-104802421D01*
X218227000Y-104678397D01*
X218199062Y-104537942D01*
X218144259Y-104405636D01*
X218064698Y-104286564D01*
X217963436Y-104185302D01*
X217844364Y-104105741D01*
X217712058Y-104050938D01*
X217571603Y-104023000D01*
X217428397Y-104023000D01*
X217287942Y-104050938D01*
X217155636Y-104105741D01*
X217036564Y-104185302D01*
X216950000Y-104271866D01*
X216863436Y-104185302D01*
X216744364Y-104105741D01*
X216612058Y-104050938D01*
X216471603Y-104023000D01*
X216328397Y-104023000D01*
X216187942Y-104050938D01*
X216055636Y-104105741D01*
X215936564Y-104185302D01*
X215835302Y-104286564D01*
X215755741Y-104405636D01*
X215700938Y-104537942D01*
X215673000Y-104678397D01*
X205687068Y-104678397D01*
X205679847Y-104642097D01*
X205587353Y-104418798D01*
X205453073Y-104217833D01*
X205282167Y-104046927D01*
X205081202Y-103912647D01*
X204857903Y-103820153D01*
X204620849Y-103773000D01*
X204379151Y-103773000D01*
X204142097Y-103820153D01*
X203918798Y-103912647D01*
X203717833Y-104046927D01*
X203546927Y-104217833D01*
X203412647Y-104418798D01*
X203320153Y-104642097D01*
X203273000Y-104879151D01*
X198227000Y-104879151D01*
X198179847Y-104642097D01*
X198087353Y-104418798D01*
X197953073Y-104217833D01*
X197782167Y-104046927D01*
X197581202Y-103912647D01*
X197357903Y-103820153D01*
X197120849Y-103773000D01*
X196879151Y-103773000D01*
X196642097Y-103820153D01*
X196418798Y-103912647D01*
X196217833Y-104046927D01*
X196046927Y-104217833D01*
X195912647Y-104418798D01*
X195820153Y-104642097D01*
X195773000Y-104879151D01*
X195352000Y-104879151D01*
X195352000Y-95428397D01*
X212642666Y-95428397D01*
X212642666Y-95571603D01*
X212670604Y-95712058D01*
X212725407Y-95844364D01*
X212804968Y-95963436D01*
X212892666Y-96051134D01*
X212892667Y-96979208D01*
X212835301Y-97036574D01*
X212755740Y-97155646D01*
X212700937Y-97287952D01*
X212672999Y-97428407D01*
X212672999Y-97571613D01*
X212700937Y-97712068D01*
X212755740Y-97844374D01*
X212835301Y-97963446D01*
X212936563Y-98064708D01*
X213055635Y-98144269D01*
X213187941Y-98199072D01*
X213328396Y-98227010D01*
X213471602Y-98227010D01*
X213612057Y-98199072D01*
X213744363Y-98144269D01*
X213863435Y-98064708D01*
X213900000Y-98028144D01*
X213936564Y-98064708D01*
X214055636Y-98144269D01*
X214187942Y-98199072D01*
X214328397Y-98227010D01*
X214471603Y-98227010D01*
X214612058Y-98199072D01*
X214744364Y-98144269D01*
X214863436Y-98064708D01*
X214964698Y-97963446D01*
X215044259Y-97844374D01*
X215099062Y-97712068D01*
X215127000Y-97571613D01*
X215127000Y-97428407D01*
X215099062Y-97287952D01*
X215044259Y-97155646D01*
X214964698Y-97036574D01*
X214863436Y-96935312D01*
X214846669Y-96924109D01*
X214846669Y-96051134D01*
X214934367Y-95963436D01*
X215013928Y-95844364D01*
X215068731Y-95712058D01*
X215096669Y-95571603D01*
X215096669Y-95428397D01*
X215068731Y-95287942D01*
X215013928Y-95155636D01*
X214934367Y-95036564D01*
X214833105Y-94935302D01*
X214714033Y-94855741D01*
X214581727Y-94800938D01*
X214441272Y-94773000D01*
X214298066Y-94773000D01*
X214157611Y-94800938D01*
X214025305Y-94855741D01*
X213906233Y-94935302D01*
X213869668Y-94971868D01*
X213833102Y-94935302D01*
X213714030Y-94855741D01*
X213581724Y-94800938D01*
X213441269Y-94773000D01*
X213298063Y-94773000D01*
X213157608Y-94800938D01*
X213025302Y-94855741D01*
X212906230Y-94935302D01*
X212804968Y-95036564D01*
X212725407Y-95155636D01*
X212670604Y-95287942D01*
X212642666Y-95428397D01*
X195352000Y-95428397D01*
X195352000Y-94428397D01*
X241722982Y-94428397D01*
X241722982Y-94571603D01*
X241750920Y-94712058D01*
X241805723Y-94844364D01*
X241885284Y-94963436D01*
X241921850Y-95000002D01*
X241885284Y-95036567D01*
X241805723Y-95155639D01*
X241750920Y-95287945D01*
X241722982Y-95428400D01*
X241722982Y-95571606D01*
X241750920Y-95712061D01*
X241805723Y-95844367D01*
X241885284Y-95963439D01*
X241986546Y-96064701D01*
X242105618Y-96144262D01*
X242237924Y-96199065D01*
X242378379Y-96227003D01*
X242521585Y-96227003D01*
X242662040Y-96199065D01*
X242794346Y-96144262D01*
X242913418Y-96064701D01*
X243001116Y-95977003D01*
X244632422Y-95977003D01*
X244961148Y-96305730D01*
X244976078Y-96323922D01*
X245048710Y-96383530D01*
X245131576Y-96427823D01*
X245221491Y-96455098D01*
X245291576Y-96462001D01*
X245291584Y-96462001D01*
X245314999Y-96464307D01*
X245338414Y-96462001D01*
X247616584Y-96462001D01*
X247639999Y-96464307D01*
X247663414Y-96462001D01*
X247663422Y-96462001D01*
X247733507Y-96455098D01*
X247823422Y-96427823D01*
X247906288Y-96383530D01*
X247978920Y-96323922D01*
X247993854Y-96305725D01*
X248404431Y-95895148D01*
X248461266Y-95918690D01*
X248679000Y-95962000D01*
X248901000Y-95962000D01*
X249118734Y-95918690D01*
X249323835Y-95833734D01*
X249508421Y-95710398D01*
X249665398Y-95553421D01*
X249788734Y-95368835D01*
X249873690Y-95163734D01*
X249917000Y-94946000D01*
X249917000Y-94724000D01*
X249873690Y-94506266D01*
X249788734Y-94301165D01*
X249665398Y-94116579D01*
X249525819Y-93977000D01*
X250594181Y-93977000D01*
X250454602Y-94116579D01*
X250331266Y-94301165D01*
X250246310Y-94506266D01*
X250203000Y-94724000D01*
X250203000Y-94946000D01*
X250246310Y-95163734D01*
X250331266Y-95368835D01*
X250454602Y-95553421D01*
X250611579Y-95710398D01*
X250796165Y-95833734D01*
X251001266Y-95918690D01*
X251219000Y-95962000D01*
X251441000Y-95962000D01*
X251658734Y-95918690D01*
X251863835Y-95833734D01*
X252048421Y-95710398D01*
X252205398Y-95553421D01*
X252328734Y-95368835D01*
X252352276Y-95312000D01*
X252847724Y-95312000D01*
X252871266Y-95368835D01*
X252994602Y-95553421D01*
X253151579Y-95710398D01*
X253336165Y-95833734D01*
X253541266Y-95918690D01*
X253759000Y-95962000D01*
X253981000Y-95962000D01*
X254198734Y-95918690D01*
X254403835Y-95833734D01*
X254588421Y-95710398D01*
X254745398Y-95553421D01*
X254868734Y-95368835D01*
X254953690Y-95163734D01*
X254997000Y-94946000D01*
X254997000Y-94724000D01*
X254953690Y-94506266D01*
X254868734Y-94301165D01*
X254745398Y-94116579D01*
X254605819Y-93977000D01*
X254877421Y-93977000D01*
X255349852Y-94449431D01*
X255326310Y-94506266D01*
X255283000Y-94724000D01*
X255283000Y-94946000D01*
X255326310Y-95163734D01*
X255411266Y-95368835D01*
X255534602Y-95553421D01*
X255691579Y-95710398D01*
X255876165Y-95833734D01*
X256081266Y-95918690D01*
X256299000Y-95962000D01*
X256521000Y-95962000D01*
X256738734Y-95918690D01*
X256943835Y-95833734D01*
X257128421Y-95710398D01*
X257285398Y-95553421D01*
X257408734Y-95368835D01*
X257493690Y-95163734D01*
X257537000Y-94946000D01*
X257537000Y-94724000D01*
X257493690Y-94506266D01*
X257408734Y-94301165D01*
X257285398Y-94116579D01*
X257128421Y-93959602D01*
X256943835Y-93836266D01*
X256738734Y-93751310D01*
X256521000Y-93708000D01*
X256299000Y-93708000D01*
X256081266Y-93751310D01*
X256024431Y-93774852D01*
X255726569Y-93476990D01*
X256917411Y-93476990D01*
X257889852Y-94449431D01*
X257866310Y-94506266D01*
X257823000Y-94724000D01*
X257823000Y-94946000D01*
X257866310Y-95163734D01*
X257951266Y-95368835D01*
X258074602Y-95553421D01*
X258231579Y-95710398D01*
X258416165Y-95833734D01*
X258621266Y-95918690D01*
X258839000Y-95962000D01*
X259061000Y-95962000D01*
X259278734Y-95918690D01*
X259483835Y-95833734D01*
X259668421Y-95710398D01*
X259825398Y-95553421D01*
X259948734Y-95368835D01*
X260033690Y-95163734D01*
X260077000Y-94946000D01*
X260077000Y-94724000D01*
X260033690Y-94506266D01*
X259948734Y-94301165D01*
X259825398Y-94116579D01*
X259668421Y-93959602D01*
X259483835Y-93836266D01*
X259278734Y-93751310D01*
X259061000Y-93708000D01*
X258839000Y-93708000D01*
X258621266Y-93751310D01*
X258564431Y-93774852D01*
X257766559Y-92976980D01*
X258957401Y-92976980D01*
X260429852Y-94449431D01*
X260406310Y-94506266D01*
X260363000Y-94724000D01*
X260363000Y-94946000D01*
X260406310Y-95163734D01*
X260491266Y-95368835D01*
X260614602Y-95553421D01*
X260771579Y-95710398D01*
X260956165Y-95833734D01*
X261161266Y-95918690D01*
X261379000Y-95962000D01*
X261601000Y-95962000D01*
X261818734Y-95918690D01*
X262023835Y-95833734D01*
X262208421Y-95710398D01*
X262365398Y-95553421D01*
X262488734Y-95368835D01*
X262573690Y-95163734D01*
X262617000Y-94946000D01*
X262617000Y-94724000D01*
X262573690Y-94506266D01*
X262488734Y-94301165D01*
X262365398Y-94116579D01*
X262208421Y-93959602D01*
X262023835Y-93836266D01*
X261818734Y-93751310D01*
X261601000Y-93708000D01*
X261379000Y-93708000D01*
X261161266Y-93751310D01*
X261104431Y-93774852D01*
X259508835Y-92179256D01*
X259493901Y-92161059D01*
X259421269Y-92101451D01*
X259338403Y-92057158D01*
X259248488Y-92029883D01*
X259178403Y-92022980D01*
X259178395Y-92022980D01*
X259154980Y-92020674D01*
X259131565Y-92022980D01*
X255037560Y-92022980D01*
X253693855Y-90679276D01*
X253678921Y-90661079D01*
X253606289Y-90601471D01*
X253523423Y-90557178D01*
X253433508Y-90529903D01*
X253368582Y-90523508D01*
X253368582Y-89425000D01*
X253362268Y-89360897D01*
X253343570Y-89299257D01*
X253313206Y-89242450D01*
X253272343Y-89192657D01*
X253222550Y-89151794D01*
X253165743Y-89121430D01*
X253104103Y-89102732D01*
X253040000Y-89096418D01*
X252040000Y-89096418D01*
X251975897Y-89102732D01*
X251914257Y-89121430D01*
X251857450Y-89151794D01*
X251807657Y-89192657D01*
X251766794Y-89242450D01*
X251736430Y-89299257D01*
X251717732Y-89360897D01*
X251711418Y-89425000D01*
X251711418Y-92522990D01*
X250828582Y-92522990D01*
X250828582Y-89425000D01*
X250822268Y-89360897D01*
X250803570Y-89299257D01*
X250773206Y-89242450D01*
X250732343Y-89192657D01*
X250682550Y-89151794D01*
X250625743Y-89121430D01*
X250564103Y-89102732D01*
X250500000Y-89096418D01*
X249500000Y-89096418D01*
X249435897Y-89102732D01*
X249374257Y-89121430D01*
X249317450Y-89151794D01*
X249267657Y-89192657D01*
X249226794Y-89242450D01*
X249196430Y-89299257D01*
X249177732Y-89360897D01*
X249171418Y-89425000D01*
X249171418Y-92575000D01*
X249177732Y-92639103D01*
X249196430Y-92700743D01*
X249226794Y-92757550D01*
X249267657Y-92807343D01*
X249317450Y-92848206D01*
X249374257Y-92878570D01*
X249435897Y-92897268D01*
X249500000Y-92903582D01*
X249567954Y-92903582D01*
X249601472Y-92966289D01*
X249648014Y-93023000D01*
X248282580Y-93023000D01*
X248119895Y-92860315D01*
X248142550Y-92848206D01*
X248192343Y-92807343D01*
X248233206Y-92757550D01*
X248263570Y-92700743D01*
X248282268Y-92639103D01*
X248288582Y-92575000D01*
X248288582Y-89425000D01*
X248282268Y-89360897D01*
X248263570Y-89299257D01*
X248233206Y-89242450D01*
X248192343Y-89192657D01*
X248142550Y-89151794D01*
X248085743Y-89121430D01*
X248024103Y-89102732D01*
X247960000Y-89096418D01*
X246960000Y-89096418D01*
X246895897Y-89102732D01*
X246834257Y-89121430D01*
X246777450Y-89151794D01*
X246727657Y-89192657D01*
X246686794Y-89242450D01*
X246656430Y-89299257D01*
X246637732Y-89360897D01*
X246631418Y-89425000D01*
X246631418Y-92575000D01*
X246637732Y-92639103D01*
X246656430Y-92700743D01*
X246686794Y-92757550D01*
X246727657Y-92807343D01*
X246777450Y-92848206D01*
X246834257Y-92878570D01*
X246895897Y-92897268D01*
X246960000Y-92903582D01*
X246983509Y-92903582D01*
X246989903Y-92968507D01*
X247017178Y-93058422D01*
X247035927Y-93093498D01*
X247061472Y-93141289D01*
X247085114Y-93170097D01*
X247096043Y-93183413D01*
X247121080Y-93213921D01*
X247139271Y-93228850D01*
X247731147Y-93820727D01*
X247746079Y-93838921D01*
X247818711Y-93898529D01*
X247901577Y-93942822D01*
X247991492Y-93970097D01*
X248054844Y-93976337D01*
X247914602Y-94116579D01*
X247791266Y-94301165D01*
X247706310Y-94506266D01*
X247663000Y-94724000D01*
X247663000Y-94946000D01*
X247706310Y-95163734D01*
X247729852Y-95220569D01*
X247442420Y-95508001D01*
X247155747Y-95508001D01*
X247248734Y-95368835D01*
X247333690Y-95163734D01*
X247377000Y-94946000D01*
X247377000Y-94724000D01*
X247333690Y-94506266D01*
X247248734Y-94301165D01*
X247125398Y-94116579D01*
X246968421Y-93959602D01*
X246783835Y-93836266D01*
X246578734Y-93751310D01*
X246361000Y-93708000D01*
X246139000Y-93708000D01*
X245921266Y-93751310D01*
X245716165Y-93836266D01*
X245531579Y-93959602D01*
X245468181Y-94023000D01*
X243001116Y-94023000D01*
X242913418Y-93935302D01*
X242794346Y-93855741D01*
X242662040Y-93800938D01*
X242521585Y-93773000D01*
X242378379Y-93773000D01*
X242237924Y-93800938D01*
X242105618Y-93855741D01*
X241986546Y-93935302D01*
X241885284Y-94036564D01*
X241805723Y-94155636D01*
X241750920Y-94287942D01*
X241722982Y-94428397D01*
X195352000Y-94428397D01*
X195352000Y-94127000D01*
X212000000Y-94127000D01*
X212024776Y-94124560D01*
X212048601Y-94117333D01*
X212070557Y-94105597D01*
X212089803Y-94089803D01*
X212105597Y-94070557D01*
X212117333Y-94048601D01*
X212124560Y-94024776D01*
X212127000Y-94000000D01*
X212127000Y-79628397D01*
X219073000Y-79628397D01*
X219073000Y-79771603D01*
X219100938Y-79912058D01*
X219155741Y-80044364D01*
X219235302Y-80163436D01*
X219323001Y-80251135D01*
X219323000Y-80848866D01*
X219235302Y-80936564D01*
X219155741Y-81055636D01*
X219100938Y-81187942D01*
X219073000Y-81328397D01*
X219073000Y-81471603D01*
X219100938Y-81612058D01*
X219155741Y-81744364D01*
X219235302Y-81863436D01*
X219336564Y-81964698D01*
X219455636Y-82044259D01*
X219587942Y-82099062D01*
X219728397Y-82127000D01*
X219871603Y-82127000D01*
X220012058Y-82099062D01*
X220144364Y-82044259D01*
X220263436Y-81964698D01*
X220364698Y-81863436D01*
X220444259Y-81744364D01*
X220499062Y-81612058D01*
X220527000Y-81471603D01*
X220527000Y-81328397D01*
X220499062Y-81187942D01*
X220444259Y-81055636D01*
X220364698Y-80936564D01*
X220277000Y-80848866D01*
X220277000Y-80251134D01*
X220364698Y-80163436D01*
X220444259Y-80044364D01*
X220499062Y-79912058D01*
X220527000Y-79771603D01*
X220527000Y-79628397D01*
X221073000Y-79628397D01*
X221073000Y-79771603D01*
X221100938Y-79912058D01*
X221155741Y-80044364D01*
X221235302Y-80163436D01*
X221323001Y-80251135D01*
X221323000Y-80848866D01*
X221235302Y-80936564D01*
X221155741Y-81055636D01*
X221100938Y-81187942D01*
X221073000Y-81328397D01*
X221073000Y-81471603D01*
X221100938Y-81612058D01*
X221155741Y-81744364D01*
X221235302Y-81863436D01*
X221336564Y-81964698D01*
X221455636Y-82044259D01*
X221587942Y-82099062D01*
X221728397Y-82127000D01*
X221871603Y-82127000D01*
X222012058Y-82099062D01*
X222144364Y-82044259D01*
X222263436Y-81964698D01*
X222364698Y-81863436D01*
X222444259Y-81744364D01*
X222499062Y-81612058D01*
X222527000Y-81471603D01*
X222527000Y-81328397D01*
X222499062Y-81187942D01*
X222444259Y-81055636D01*
X222364698Y-80936564D01*
X222277000Y-80848866D01*
X222277000Y-80251134D01*
X222364698Y-80163436D01*
X222444259Y-80044364D01*
X222499062Y-79912058D01*
X222527000Y-79771603D01*
X222527000Y-79628397D01*
X222499062Y-79487942D01*
X222444259Y-79355636D01*
X222364698Y-79236564D01*
X222263436Y-79135302D01*
X222144364Y-79055741D01*
X222012058Y-79000938D01*
X221871603Y-78973000D01*
X221728397Y-78973000D01*
X221587942Y-79000938D01*
X221455636Y-79055741D01*
X221336564Y-79135302D01*
X221235302Y-79236564D01*
X221155741Y-79355636D01*
X221100938Y-79487942D01*
X221073000Y-79628397D01*
X220527000Y-79628397D01*
X220499062Y-79487942D01*
X220444259Y-79355636D01*
X220364698Y-79236564D01*
X220263436Y-79135302D01*
X220144364Y-79055741D01*
X220012058Y-79000938D01*
X219871603Y-78973000D01*
X219728397Y-78973000D01*
X219587942Y-79000938D01*
X219455636Y-79055741D01*
X219336564Y-79135302D01*
X219235302Y-79236564D01*
X219155741Y-79355636D01*
X219100938Y-79487942D01*
X219073000Y-79628397D01*
X212127000Y-79628397D01*
X212127000Y-72358728D01*
X225203331Y-72358728D01*
X225203331Y-72501934D01*
X225231269Y-72642389D01*
X225286072Y-72774695D01*
X225365633Y-72893767D01*
X225466895Y-72995029D01*
X225585967Y-73074590D01*
X225718273Y-73129393D01*
X225858728Y-73157331D01*
X226001934Y-73157331D01*
X226142389Y-73129393D01*
X226274695Y-73074590D01*
X226393767Y-72995029D01*
X226481465Y-72907331D01*
X229132752Y-72907331D01*
X234973000Y-78747580D01*
X234973000Y-78871603D01*
X235000938Y-79012058D01*
X235055741Y-79144364D01*
X235135302Y-79263436D01*
X235236564Y-79364698D01*
X235355636Y-79444259D01*
X235487942Y-79499062D01*
X235628397Y-79527000D01*
X235771603Y-79527000D01*
X235912058Y-79499062D01*
X236044364Y-79444259D01*
X236163436Y-79364698D01*
X236264698Y-79263436D01*
X236344259Y-79144364D01*
X236351451Y-79127000D01*
X238198420Y-79127000D01*
X236052421Y-81273000D01*
X235928397Y-81273000D01*
X235787942Y-81300938D01*
X235655636Y-81355741D01*
X235536564Y-81435302D01*
X235435302Y-81536564D01*
X235355741Y-81655636D01*
X235300938Y-81787942D01*
X235273000Y-81928397D01*
X235273000Y-82071603D01*
X235300938Y-82212058D01*
X235355741Y-82344364D01*
X235435302Y-82463436D01*
X235536564Y-82564698D01*
X235655636Y-82644259D01*
X235787942Y-82699062D01*
X235928397Y-82727000D01*
X236071603Y-82727000D01*
X236212058Y-82699062D01*
X236344364Y-82644259D01*
X236463436Y-82564698D01*
X236564698Y-82463436D01*
X236644259Y-82344364D01*
X236699062Y-82212058D01*
X236727000Y-82071603D01*
X236727000Y-81947579D01*
X238797580Y-79877000D01*
X244898876Y-79877000D01*
X244986574Y-79964698D01*
X245105646Y-80044259D01*
X245237952Y-80099062D01*
X245378407Y-80127000D01*
X245521613Y-80127000D01*
X245662068Y-80099062D01*
X245789319Y-80046353D01*
X245773000Y-80128397D01*
X245773000Y-80271603D01*
X245800938Y-80412058D01*
X245855741Y-80544364D01*
X245935302Y-80663436D01*
X246036564Y-80764698D01*
X246155636Y-80844259D01*
X246287942Y-80899062D01*
X246428397Y-80927000D01*
X246571603Y-80927000D01*
X246712058Y-80899062D01*
X246844364Y-80844259D01*
X246963436Y-80764698D01*
X247064698Y-80663436D01*
X247144259Y-80544364D01*
X247199062Y-80412058D01*
X247227000Y-80271603D01*
X247227000Y-80128397D01*
X247199062Y-79987942D01*
X247144259Y-79855636D01*
X247064698Y-79736564D01*
X246977000Y-79648866D01*
X246977000Y-79363402D01*
X246979306Y-79339987D01*
X246977000Y-79316572D01*
X246977000Y-79316565D01*
X246970097Y-79246480D01*
X246968988Y-79242822D01*
X246952340Y-79187942D01*
X246942822Y-79156565D01*
X246898529Y-79073699D01*
X246838921Y-79001067D01*
X246820729Y-78986137D01*
X246163867Y-78329276D01*
X246148933Y-78311079D01*
X246076301Y-78251471D01*
X245993435Y-78207178D01*
X245903520Y-78179903D01*
X245833435Y-78173000D01*
X245833427Y-78173000D01*
X245810012Y-78170694D01*
X245786597Y-78173000D01*
X241251134Y-78173000D01*
X241163436Y-78085302D01*
X241044364Y-78005741D01*
X240912058Y-77950938D01*
X240771603Y-77923000D01*
X240628397Y-77923000D01*
X240487942Y-77950938D01*
X240355636Y-78005741D01*
X240236564Y-78085302D01*
X240148866Y-78173000D01*
X236070194Y-78173000D01*
X236044364Y-78155741D01*
X235912058Y-78100938D01*
X235771603Y-78073000D01*
X235647580Y-78073000D01*
X229684186Y-72109607D01*
X229669252Y-72091410D01*
X229596620Y-72031802D01*
X229513754Y-71987509D01*
X229423839Y-71960234D01*
X229353754Y-71953331D01*
X229353746Y-71953331D01*
X229330331Y-71951025D01*
X229306916Y-71953331D01*
X226481465Y-71953331D01*
X226393767Y-71865633D01*
X226274695Y-71786072D01*
X226142389Y-71731269D01*
X226001934Y-71703331D01*
X225858728Y-71703331D01*
X225718273Y-71731269D01*
X225585967Y-71786072D01*
X225466895Y-71865633D01*
X225365633Y-71966895D01*
X225286072Y-72085967D01*
X225231269Y-72218273D01*
X225203331Y-72358728D01*
X212127000Y-72358728D01*
X212127000Y-70352000D01*
X236123420Y-70352000D01*
X235452421Y-71023000D01*
X235328397Y-71023000D01*
X235187942Y-71050938D01*
X235055636Y-71105741D01*
X234936564Y-71185302D01*
X234835302Y-71286564D01*
X234755741Y-71405636D01*
X234700938Y-71537942D01*
X234673000Y-71678397D01*
X234673000Y-71821603D01*
X234700938Y-71962058D01*
X234755741Y-72094364D01*
X234835302Y-72213436D01*
X234936564Y-72314698D01*
X235055636Y-72394259D01*
X235187942Y-72449062D01*
X235328397Y-72477000D01*
X235471603Y-72477000D01*
X235612058Y-72449062D01*
X235744364Y-72394259D01*
X235863436Y-72314698D01*
X235964698Y-72213436D01*
X236044259Y-72094364D01*
X236099062Y-71962058D01*
X236127000Y-71821603D01*
X236127000Y-71697579D01*
X236707591Y-71116989D01*
X244530149Y-71116989D01*
X244427926Y-71185292D01*
X244326664Y-71286554D01*
X244247103Y-71405626D01*
X244207532Y-71501159D01*
X244104510Y-71458486D01*
X243964055Y-71430548D01*
X243820849Y-71430548D01*
X243680394Y-71458486D01*
X243548088Y-71513289D01*
X243429016Y-71592850D01*
X243327754Y-71694112D01*
X243248193Y-71813184D01*
X243193390Y-71945490D01*
X243165452Y-72085945D01*
X243165452Y-72209968D01*
X241052421Y-74323000D01*
X240351134Y-74323000D01*
X240263436Y-74235302D01*
X240144364Y-74155741D01*
X240012058Y-74100938D01*
X239871603Y-74073000D01*
X239728397Y-74073000D01*
X239587942Y-74100938D01*
X239455636Y-74155741D01*
X239336564Y-74235302D01*
X239235302Y-74336564D01*
X239155741Y-74455636D01*
X239100938Y-74587942D01*
X239073000Y-74728397D01*
X239073000Y-74871603D01*
X239100938Y-75012058D01*
X239155741Y-75144364D01*
X239235302Y-75263436D01*
X239336564Y-75364698D01*
X239406654Y-75411531D01*
X239212458Y-75605727D01*
X239088435Y-75605727D01*
X238947980Y-75633665D01*
X238815674Y-75688468D01*
X238696602Y-75768029D01*
X238595340Y-75869291D01*
X238515779Y-75988363D01*
X238460976Y-76120669D01*
X238433038Y-76261124D01*
X238433038Y-76404330D01*
X238460976Y-76544785D01*
X238493374Y-76623000D01*
X237151134Y-76623000D01*
X237063436Y-76535302D01*
X236944364Y-76455741D01*
X236812058Y-76400938D01*
X236671603Y-76373000D01*
X236528397Y-76373000D01*
X236387942Y-76400938D01*
X236255636Y-76455741D01*
X236136564Y-76535302D01*
X236035302Y-76636564D01*
X235955741Y-76755636D01*
X235900938Y-76887942D01*
X235873000Y-77028397D01*
X235873000Y-77171603D01*
X235900938Y-77312058D01*
X235955741Y-77444364D01*
X236035302Y-77563436D01*
X236136564Y-77664698D01*
X236255636Y-77744259D01*
X236387942Y-77799062D01*
X236528397Y-77827000D01*
X236671603Y-77827000D01*
X236812058Y-77799062D01*
X236944364Y-77744259D01*
X237063436Y-77664698D01*
X237151134Y-77577000D01*
X240790742Y-77577000D01*
X240814157Y-77579306D01*
X240837572Y-77577000D01*
X240837580Y-77577000D01*
X240907665Y-77570097D01*
X240997580Y-77542822D01*
X241080446Y-77498529D01*
X241153078Y-77438921D01*
X241168012Y-77420724D01*
X246167481Y-72421256D01*
X246185672Y-72406327D01*
X246215809Y-72369606D01*
X246245280Y-72333695D01*
X246289573Y-72250829D01*
X246316848Y-72160914D01*
X246322468Y-72103852D01*
X246323751Y-72090829D01*
X246323751Y-72090821D01*
X246326057Y-72067406D01*
X246323751Y-72043991D01*
X246323751Y-71551124D01*
X246411449Y-71463426D01*
X246491010Y-71344354D01*
X246545813Y-71212048D01*
X246573751Y-71071593D01*
X246573751Y-70928387D01*
X246545813Y-70787932D01*
X246499863Y-70677000D01*
X247446888Y-70677000D01*
X247400938Y-70787932D01*
X247373000Y-70928387D01*
X247373000Y-71071593D01*
X247400938Y-71212048D01*
X247455741Y-71344354D01*
X247535302Y-71463426D01*
X247636564Y-71564688D01*
X247755636Y-71644249D01*
X247887942Y-71699052D01*
X248028397Y-71726990D01*
X248152420Y-71726990D01*
X248313000Y-71887570D01*
X248313001Y-81112724D01*
X248256165Y-81136266D01*
X248071579Y-81259602D01*
X247914602Y-81416579D01*
X247791266Y-81601165D01*
X247706310Y-81806266D01*
X247663000Y-82024000D01*
X247663000Y-82246000D01*
X247706310Y-82463734D01*
X247791266Y-82668835D01*
X247914602Y-82853421D01*
X248071579Y-83010398D01*
X248256165Y-83133734D01*
X248313000Y-83157276D01*
X248313001Y-84716575D01*
X248310694Y-84740000D01*
X248319903Y-84833507D01*
X248347178Y-84923422D01*
X248347179Y-84923423D01*
X248391472Y-85006289D01*
X248451080Y-85078921D01*
X248469271Y-85093850D01*
X248848421Y-85473000D01*
X248288582Y-85473000D01*
X248288582Y-84375000D01*
X248282268Y-84310897D01*
X248263570Y-84249257D01*
X248233206Y-84192450D01*
X248192343Y-84142657D01*
X248142550Y-84101794D01*
X248085743Y-84071430D01*
X248024103Y-84052732D01*
X247960000Y-84046418D01*
X246960000Y-84046418D01*
X246895897Y-84052732D01*
X246834257Y-84071430D01*
X246777450Y-84101794D01*
X246727657Y-84142657D01*
X246686794Y-84192450D01*
X246656430Y-84249257D01*
X246637732Y-84310897D01*
X246631418Y-84375000D01*
X246631418Y-85473000D01*
X245073412Y-85473000D01*
X245049999Y-85470694D01*
X245026586Y-85473000D01*
X245026577Y-85473000D01*
X244956492Y-85479903D01*
X244866577Y-85507178D01*
X244783711Y-85551471D01*
X244711079Y-85611079D01*
X244696150Y-85629270D01*
X240052421Y-90273000D01*
X239928397Y-90273000D01*
X239787942Y-90300938D01*
X239655636Y-90355741D01*
X239536564Y-90435302D01*
X239435302Y-90536564D01*
X239355741Y-90655636D01*
X239300938Y-90787942D01*
X239273000Y-90928397D01*
X239273000Y-91071603D01*
X239300938Y-91212058D01*
X239355741Y-91344364D01*
X239435302Y-91463436D01*
X239536564Y-91564698D01*
X239655636Y-91644259D01*
X239787942Y-91699062D01*
X239928397Y-91727000D01*
X240071603Y-91727000D01*
X240212058Y-91699062D01*
X240344364Y-91644259D01*
X240463436Y-91564698D01*
X240564698Y-91463436D01*
X240644259Y-91344364D01*
X240699062Y-91212058D01*
X240727000Y-91071603D01*
X240727000Y-90947579D01*
X245247580Y-86427000D01*
X246631418Y-86427000D01*
X246631418Y-87525000D01*
X246637732Y-87589103D01*
X246656430Y-87650743D01*
X246686794Y-87707550D01*
X246727657Y-87757343D01*
X246777450Y-87798206D01*
X246834257Y-87828570D01*
X246895897Y-87847268D01*
X246960000Y-87853582D01*
X247960000Y-87853582D01*
X248024103Y-87847268D01*
X248085743Y-87828570D01*
X248142550Y-87798206D01*
X248192343Y-87757343D01*
X248233206Y-87707550D01*
X248263570Y-87650743D01*
X248282268Y-87589103D01*
X248288582Y-87525000D01*
X248288582Y-86427000D01*
X249171418Y-86427000D01*
X249171418Y-87525000D01*
X249177732Y-87589103D01*
X249196430Y-87650743D01*
X249226794Y-87707550D01*
X249267657Y-87757343D01*
X249317450Y-87798206D01*
X249374257Y-87828570D01*
X249435897Y-87847268D01*
X249500000Y-87853582D01*
X250500000Y-87853582D01*
X250564103Y-87847268D01*
X250625743Y-87828570D01*
X250682550Y-87798206D01*
X250732343Y-87757343D01*
X250773206Y-87707550D01*
X250803570Y-87650743D01*
X250822268Y-87589103D01*
X250828582Y-87525000D01*
X250828582Y-86427000D01*
X251711418Y-86427000D01*
X251711418Y-87525000D01*
X251717732Y-87589103D01*
X251736430Y-87650743D01*
X251766794Y-87707550D01*
X251807657Y-87757343D01*
X251857450Y-87798206D01*
X251914257Y-87828570D01*
X251975897Y-87847268D01*
X252040000Y-87853582D01*
X253040000Y-87853582D01*
X253104103Y-87847268D01*
X253165743Y-87828570D01*
X253222550Y-87798206D01*
X253272343Y-87757343D01*
X253313206Y-87707550D01*
X253343570Y-87650743D01*
X253362268Y-87589103D01*
X253368582Y-87525000D01*
X253368582Y-84375000D01*
X253362268Y-84310897D01*
X253343570Y-84249257D01*
X253313206Y-84192450D01*
X253272343Y-84142657D01*
X253222550Y-84101794D01*
X253165743Y-84071430D01*
X253104103Y-84052732D01*
X253040000Y-84046418D01*
X252040000Y-84046418D01*
X251975897Y-84052732D01*
X251914257Y-84071430D01*
X251857450Y-84101794D01*
X251807657Y-84142657D01*
X251766794Y-84192450D01*
X251736430Y-84249257D01*
X251717732Y-84310897D01*
X251711418Y-84375000D01*
X251711418Y-85473000D01*
X250828582Y-85473000D01*
X250828582Y-84375000D01*
X250822268Y-84310897D01*
X250803570Y-84249257D01*
X250773206Y-84192450D01*
X250732343Y-84142657D01*
X250682550Y-84101794D01*
X250625743Y-84071430D01*
X250564103Y-84052732D01*
X250500000Y-84046418D01*
X249500000Y-84046418D01*
X249435897Y-84052732D01*
X249374257Y-84071430D01*
X249317450Y-84101794D01*
X249267657Y-84142657D01*
X249267000Y-84143458D01*
X249267000Y-83157276D01*
X249323835Y-83133734D01*
X249508421Y-83010398D01*
X249665398Y-82853421D01*
X249788734Y-82668835D01*
X249873690Y-82463734D01*
X249917000Y-82246000D01*
X249917000Y-82024000D01*
X250203000Y-82024000D01*
X250203000Y-82246000D01*
X250246310Y-82463734D01*
X250331266Y-82668835D01*
X250454602Y-82853421D01*
X250611579Y-83010398D01*
X250796165Y-83133734D01*
X251001266Y-83218690D01*
X251219000Y-83262000D01*
X251441000Y-83262000D01*
X251658734Y-83218690D01*
X251863835Y-83133734D01*
X252048421Y-83010398D01*
X252205398Y-82853421D01*
X252328734Y-82668835D01*
X252413690Y-82463734D01*
X252457000Y-82246000D01*
X252457000Y-82024000D01*
X252743000Y-82024000D01*
X252743000Y-82246000D01*
X252786310Y-82463734D01*
X252871266Y-82668835D01*
X252994602Y-82853421D01*
X253151579Y-83010398D01*
X253336165Y-83133734D01*
X253541266Y-83218690D01*
X253759000Y-83262000D01*
X253981000Y-83262000D01*
X254198734Y-83218690D01*
X254403835Y-83133734D01*
X254588421Y-83010398D01*
X254745398Y-82853421D01*
X254868734Y-82668835D01*
X254953690Y-82463734D01*
X254997000Y-82246000D01*
X254997000Y-82024000D01*
X255283000Y-82024000D01*
X255283000Y-82246000D01*
X255326310Y-82463734D01*
X255411266Y-82668835D01*
X255534602Y-82853421D01*
X255691579Y-83010398D01*
X255876165Y-83133734D01*
X256081266Y-83218690D01*
X256299000Y-83262000D01*
X256521000Y-83262000D01*
X256738734Y-83218690D01*
X256943835Y-83133734D01*
X257128421Y-83010398D01*
X257285398Y-82853421D01*
X257408734Y-82668835D01*
X257493690Y-82463734D01*
X257537000Y-82246000D01*
X257537000Y-82024000D01*
X257823000Y-82024000D01*
X257823000Y-82246000D01*
X257866310Y-82463734D01*
X257951266Y-82668835D01*
X258074602Y-82853421D01*
X258231579Y-83010398D01*
X258416165Y-83133734D01*
X258621266Y-83218690D01*
X258839000Y-83262000D01*
X259061000Y-83262000D01*
X259278734Y-83218690D01*
X259483835Y-83133734D01*
X259668421Y-83010398D01*
X259825398Y-82853421D01*
X259948734Y-82668835D01*
X260033690Y-82463734D01*
X260077000Y-82246000D01*
X260077000Y-82024000D01*
X260033690Y-81806266D01*
X259948734Y-81601165D01*
X259825398Y-81416579D01*
X259668421Y-81259602D01*
X259483835Y-81136266D01*
X259278734Y-81051310D01*
X259061000Y-81008000D01*
X258839000Y-81008000D01*
X258621266Y-81051310D01*
X258416165Y-81136266D01*
X258231579Y-81259602D01*
X258074602Y-81416579D01*
X257951266Y-81601165D01*
X257866310Y-81806266D01*
X257823000Y-82024000D01*
X257537000Y-82024000D01*
X257493690Y-81806266D01*
X257408734Y-81601165D01*
X257285398Y-81416579D01*
X257128421Y-81259602D01*
X256943835Y-81136266D01*
X256738734Y-81051310D01*
X256521000Y-81008000D01*
X256299000Y-81008000D01*
X256081266Y-81051310D01*
X255876165Y-81136266D01*
X255691579Y-81259602D01*
X255534602Y-81416579D01*
X255411266Y-81601165D01*
X255326310Y-81806266D01*
X255283000Y-82024000D01*
X254997000Y-82024000D01*
X254953690Y-81806266D01*
X254868734Y-81601165D01*
X254745398Y-81416579D01*
X254588421Y-81259602D01*
X254403835Y-81136266D01*
X254198734Y-81051310D01*
X253981000Y-81008000D01*
X253759000Y-81008000D01*
X253541266Y-81051310D01*
X253336165Y-81136266D01*
X253151579Y-81259602D01*
X252994602Y-81416579D01*
X252871266Y-81601165D01*
X252786310Y-81806266D01*
X252743000Y-82024000D01*
X252457000Y-82024000D01*
X252413690Y-81806266D01*
X252328734Y-81601165D01*
X252205398Y-81416579D01*
X252048421Y-81259602D01*
X251863835Y-81136266D01*
X251658734Y-81051310D01*
X251441000Y-81008000D01*
X251219000Y-81008000D01*
X251001266Y-81051310D01*
X250796165Y-81136266D01*
X250611579Y-81259602D01*
X250454602Y-81416579D01*
X250331266Y-81601165D01*
X250246310Y-81806266D01*
X250203000Y-82024000D01*
X249917000Y-82024000D01*
X249873690Y-81806266D01*
X249788734Y-81601165D01*
X249665398Y-81416579D01*
X249508421Y-81259602D01*
X249323835Y-81136266D01*
X249267000Y-81112724D01*
X249267000Y-80516322D01*
X249316577Y-80542822D01*
X249406492Y-80570097D01*
X249476577Y-80577000D01*
X249476578Y-80577000D01*
X249500000Y-80579307D01*
X249523423Y-80577000D01*
X261797421Y-80577000D01*
X262931156Y-81710736D01*
X257745475Y-86896418D01*
X255500000Y-86896418D01*
X255387124Y-86907535D01*
X255278586Y-86940460D01*
X255178557Y-86993927D01*
X255090881Y-87065881D01*
X255018927Y-87153557D01*
X254965460Y-87253586D01*
X254932535Y-87362124D01*
X254921418Y-87475000D01*
X254921418Y-89475000D01*
X254932535Y-89587876D01*
X254965460Y-89696414D01*
X255018927Y-89796443D01*
X255090881Y-89884119D01*
X255178557Y-89956073D01*
X255278586Y-90009540D01*
X255387124Y-90042465D01*
X255500000Y-90053582D01*
X257055475Y-90053582D01*
X258401042Y-91399150D01*
X258434771Y-91440249D01*
X258598766Y-91574836D01*
X258785866Y-91674843D01*
X258988881Y-91736427D01*
X259147101Y-91752010D01*
X259147103Y-91752010D01*
X259200010Y-91757221D01*
X259252917Y-91752010D01*
X262828903Y-91752010D01*
X264703002Y-93626110D01*
X264703002Y-93929254D01*
X264563835Y-93836266D01*
X264358734Y-93751310D01*
X264141000Y-93708000D01*
X263919000Y-93708000D01*
X263701266Y-93751310D01*
X263496165Y-93836266D01*
X263311579Y-93959602D01*
X263154602Y-94116579D01*
X263031266Y-94301165D01*
X262946310Y-94506266D01*
X262903000Y-94724000D01*
X262903000Y-94946000D01*
X262946310Y-95163734D01*
X263031266Y-95368835D01*
X263154602Y-95553421D01*
X263311579Y-95710398D01*
X263496165Y-95833734D01*
X263701266Y-95918690D01*
X263919000Y-95962000D01*
X264141000Y-95962000D01*
X264358734Y-95918690D01*
X264563835Y-95833734D01*
X264703001Y-95740746D01*
X264703001Y-96773891D01*
X263275861Y-98201032D01*
X263234762Y-98234761D01*
X263100175Y-98398756D01*
X263000168Y-98585856D01*
X262938584Y-98788871D01*
X262917789Y-99000000D01*
X262923001Y-99052916D01*
X262923001Y-100023827D01*
X262917450Y-100026794D01*
X262867657Y-100067657D01*
X262826794Y-100117450D01*
X262796430Y-100174257D01*
X262777732Y-100235897D01*
X262771418Y-100300000D01*
X262771418Y-104700000D01*
X262777732Y-104764103D01*
X262796430Y-104825743D01*
X262826794Y-104882550D01*
X262867657Y-104932343D01*
X262917450Y-104973206D01*
X262974257Y-105003570D01*
X263035897Y-105022268D01*
X263100000Y-105028582D01*
X264900000Y-105028582D01*
X264964103Y-105022268D01*
X265025743Y-105003570D01*
X265082550Y-104973206D01*
X265132343Y-104932343D01*
X265173206Y-104882550D01*
X265203570Y-104825743D01*
X265222268Y-104764103D01*
X265228582Y-104700000D01*
X265228582Y-100300000D01*
X265222268Y-100235897D01*
X265203570Y-100174257D01*
X265173206Y-100117450D01*
X265132343Y-100067657D01*
X265082550Y-100026794D01*
X265077000Y-100023827D01*
X265077000Y-99446107D01*
X265523001Y-99000107D01*
X265523000Y-99923422D01*
X265523001Y-99923432D01*
X265523000Y-102348143D01*
X265520694Y-102371558D01*
X265523000Y-102394973D01*
X265523000Y-102394980D01*
X265529903Y-102465065D01*
X265557178Y-102554980D01*
X265601471Y-102637847D01*
X265661079Y-102710479D01*
X265679276Y-102725413D01*
X265787221Y-102833358D01*
X265787221Y-102957382D01*
X265815159Y-103097837D01*
X265869962Y-103230143D01*
X265949523Y-103349215D01*
X266050785Y-103450477D01*
X266169857Y-103530038D01*
X266302163Y-103584841D01*
X266442618Y-103612779D01*
X266585824Y-103612779D01*
X266726279Y-103584841D01*
X266858585Y-103530038D01*
X266977657Y-103450477D01*
X267078919Y-103349215D01*
X267158480Y-103230143D01*
X267213283Y-103097837D01*
X267241221Y-102957382D01*
X267241221Y-102814176D01*
X267213283Y-102673721D01*
X267158480Y-102541415D01*
X267078919Y-102422343D01*
X266977657Y-102321081D01*
X266858585Y-102241520D01*
X266726279Y-102186717D01*
X266585824Y-102158779D01*
X266477000Y-102158779D01*
X266477000Y-100900000D01*
X270783918Y-100900000D01*
X270783918Y-101300000D01*
X270790232Y-101364103D01*
X270808705Y-101425000D01*
X270790232Y-101485897D01*
X270783918Y-101550000D01*
X270783918Y-101950000D01*
X270790232Y-102014103D01*
X270808705Y-102075000D01*
X270790232Y-102135897D01*
X270783918Y-102200000D01*
X270783918Y-102600000D01*
X270790232Y-102664103D01*
X270808705Y-102725000D01*
X270790232Y-102785897D01*
X270783918Y-102850000D01*
X270783918Y-103250000D01*
X270790232Y-103314103D01*
X270808930Y-103375743D01*
X270839294Y-103432550D01*
X270880157Y-103482343D01*
X270929950Y-103523206D01*
X270986757Y-103553570D01*
X271048397Y-103572268D01*
X271112500Y-103578582D01*
X272462500Y-103578582D01*
X272526603Y-103572268D01*
X272588243Y-103553570D01*
X272645050Y-103523206D01*
X272694843Y-103482343D01*
X272735706Y-103432550D01*
X272766070Y-103375743D01*
X272784768Y-103314103D01*
X272791082Y-103250000D01*
X272791082Y-102850000D01*
X272784768Y-102785897D01*
X272766295Y-102725000D01*
X272784768Y-102664103D01*
X272791082Y-102600000D01*
X272791082Y-102200000D01*
X272784768Y-102135897D01*
X272766295Y-102075000D01*
X272784768Y-102014103D01*
X272791082Y-101950000D01*
X272791082Y-101780513D01*
X272871005Y-101780513D01*
X273011460Y-101752575D01*
X273143766Y-101697772D01*
X273262838Y-101618211D01*
X273364100Y-101516949D01*
X273443661Y-101397877D01*
X273498464Y-101265571D01*
X273526402Y-101125116D01*
X273526402Y-100981910D01*
X273498464Y-100841455D01*
X273443661Y-100709149D01*
X273364100Y-100590077D01*
X273262838Y-100488815D01*
X273143766Y-100409254D01*
X273011460Y-100354451D01*
X272871005Y-100326513D01*
X272727799Y-100326513D01*
X272587344Y-100354451D01*
X272455038Y-100409254D01*
X272335966Y-100488815D01*
X272253363Y-100571418D01*
X271112500Y-100571418D01*
X271048397Y-100577732D01*
X270986757Y-100596430D01*
X270929950Y-100626794D01*
X270880157Y-100667657D01*
X270839294Y-100717450D01*
X270808930Y-100774257D01*
X270790232Y-100835897D01*
X270783918Y-100900000D01*
X266477000Y-100900000D01*
X266477000Y-98798328D01*
X267048198Y-98227131D01*
X267172221Y-98227131D01*
X267312676Y-98199193D01*
X267444982Y-98144390D01*
X267564054Y-98064829D01*
X267665316Y-97963567D01*
X267744877Y-97844495D01*
X267799680Y-97712189D01*
X267827618Y-97571734D01*
X267827618Y-97428528D01*
X267799680Y-97288073D01*
X267744877Y-97155767D01*
X267665316Y-97036695D01*
X267564054Y-96935433D01*
X267444982Y-96855872D01*
X267312676Y-96801069D01*
X267172221Y-96773131D01*
X267029015Y-96773131D01*
X266888560Y-96801069D01*
X266857001Y-96814141D01*
X266857001Y-93232907D01*
X266862212Y-93180000D01*
X266857001Y-93127092D01*
X266841418Y-92968872D01*
X266779834Y-92765857D01*
X266679827Y-92578757D01*
X266545240Y-92414762D01*
X266504141Y-92381033D01*
X264073983Y-89950876D01*
X264040249Y-89909771D01*
X263876254Y-89775184D01*
X263689154Y-89675177D01*
X263486139Y-89613593D01*
X263327919Y-89598010D01*
X263327917Y-89598010D01*
X263275010Y-89592799D01*
X263222103Y-89598010D01*
X259646118Y-89598010D01*
X259078582Y-89030474D01*
X259078582Y-88609525D01*
X264547684Y-83140424D01*
X264563835Y-83133734D01*
X264748421Y-83010398D01*
X264905398Y-82853421D01*
X265028734Y-82668835D01*
X265113690Y-82463734D01*
X265157000Y-82246000D01*
X265157000Y-82024000D01*
X265113690Y-81806266D01*
X265028734Y-81601165D01*
X264905398Y-81416579D01*
X264748421Y-81259602D01*
X264563835Y-81136266D01*
X264507000Y-81112724D01*
X264507000Y-76467579D01*
X265647580Y-75327000D01*
X265771603Y-75327000D01*
X265912058Y-75299062D01*
X266044364Y-75244259D01*
X266163436Y-75164698D01*
X266264698Y-75063436D01*
X266344259Y-74944364D01*
X266399062Y-74812058D01*
X266427000Y-74671603D01*
X266427000Y-74528397D01*
X266399062Y-74387942D01*
X266344259Y-74255636D01*
X266264698Y-74136564D01*
X266163436Y-74035302D01*
X266044364Y-73955741D01*
X265912058Y-73900938D01*
X265771603Y-73873000D01*
X265628397Y-73873000D01*
X265487942Y-73900938D01*
X265355636Y-73955741D01*
X265236564Y-74035302D01*
X265135302Y-74136564D01*
X265055741Y-74255636D01*
X265000938Y-74387942D01*
X264973000Y-74528397D01*
X264973000Y-74652420D01*
X263709271Y-75916150D01*
X263691080Y-75931079D01*
X263631472Y-76003711D01*
X263612652Y-76038921D01*
X263587178Y-76086578D01*
X263559903Y-76176493D01*
X263550694Y-76270000D01*
X263553001Y-76293425D01*
X263553000Y-80983421D01*
X262348855Y-79779276D01*
X262333921Y-79761079D01*
X262261289Y-79701471D01*
X262178423Y-79657178D01*
X262088508Y-79629903D01*
X262018423Y-79623000D01*
X262018415Y-79623000D01*
X261995000Y-79620694D01*
X261971585Y-79623000D01*
X249977000Y-79623000D01*
X249977000Y-71223415D01*
X249979306Y-71200000D01*
X249977000Y-71176585D01*
X249977000Y-71176577D01*
X249970097Y-71106492D01*
X249942822Y-71016577D01*
X249898529Y-70933711D01*
X249894160Y-70928387D01*
X249853852Y-70879272D01*
X249853850Y-70879270D01*
X249838921Y-70861079D01*
X249820729Y-70846149D01*
X248853855Y-69879276D01*
X248838921Y-69861079D01*
X248766289Y-69801471D01*
X248683423Y-69757178D01*
X248593508Y-69729903D01*
X248523423Y-69723000D01*
X248523415Y-69723000D01*
X248500000Y-69720694D01*
X248476585Y-69723000D01*
X245560153Y-69723000D01*
X245536738Y-69720694D01*
X245513323Y-69723000D01*
X245513316Y-69723000D01*
X245455130Y-69728731D01*
X245443230Y-69729903D01*
X245420903Y-69736676D01*
X245353316Y-69757178D01*
X245270450Y-69801471D01*
X245197818Y-69861079D01*
X245182888Y-69879271D01*
X244899171Y-70162989D01*
X243919996Y-70162989D01*
X243938111Y-70155670D01*
X243942450Y-70153362D01*
X244285806Y-69967711D01*
X244312250Y-69949874D01*
X244338951Y-69932402D01*
X244342760Y-69929295D01*
X244643514Y-69680488D01*
X244665951Y-69657894D01*
X244688789Y-69635530D01*
X244691921Y-69631742D01*
X244938622Y-69329258D01*
X244956272Y-69302693D01*
X244974302Y-69276361D01*
X244976636Y-69272042D01*
X244976639Y-69272038D01*
X244976641Y-69272034D01*
X245159889Y-68927396D01*
X245172047Y-68897898D01*
X245184615Y-68868575D01*
X245186069Y-68863880D01*
X245298886Y-68490208D01*
X245305073Y-68458962D01*
X245311717Y-68427707D01*
X245312230Y-68422818D01*
X245350320Y-68034349D01*
X245352000Y-68017292D01*
X245352000Y-64352000D01*
X275648001Y-64352000D01*
X275648000Y-130648000D01*
G37*
%TD.AperFunction*%
%TD*%
M02*
