M48
; DRILL file {KiCad (5.1.9)-1} date 05/05/21 21:21:26
; FORMAT={-:-/ absolute / inch / decimal}
; #@! TF.CreationDate,2021-05-05T21:21:26+03:00
; #@! TF.GenerationSoftware,Kicad,Pcbnew,(5.1.9)-1
; #@! TF.FileFunction,Plated,1,2,PTH
FMAT,2
INCH
T1C0.0157
T2C0.0236
T3C0.0315
T4C0.0335
T5C0.0394
T6C0.0472
T7C0.0512
T8C0.0520
T9C0.0941
T10C0.1398
T11C0.1457
%
G90
G05
T1
X7.7559Y-3.7795
X7.7559Y-3.8976
X7.7559Y-4.252
X7.7559Y-4.3701
X7.7559Y-4.4882
X7.874Y-4.252
X7.874Y-4.3701
X7.874Y-4.4882
X7.874Y-4.8425
X7.9921Y-4.252
X7.9921Y-4.3701
X7.9921Y-4.4882
X7.9921Y-4.9606
X7.9921Y-5.0787
X8.1102Y-4.252
X8.1102Y-4.9606
X8.1102Y-5.0787
X8.2283Y-4.252
X8.2283Y-4.4882
X8.2283Y-4.6063
X8.2283Y-4.9606
X8.2283Y-5.0787
X8.3465Y-4.252
X8.3465Y-4.3701
X8.3465Y-4.4882
X8.3465Y-4.9606
X8.3465Y-5.0787
X8.3858Y-3.5433
X8.3858Y-3.5827
X8.3858Y-3.622
X8.3858Y-3.6614
X8.4004Y-3.7598
X8.4016Y-3.8386
X8.4252Y-3.5433
X8.4252Y-3.5827
X8.4252Y-3.622
X8.4398Y-3.7598
X8.4409Y-3.8386
X8.4646Y-5.0787
X8.5197Y-4.124
X8.563Y-4.124
X8.5709Y-4.3031
X8.5827Y-2.9528
X8.5827Y-4.5276
X8.5827Y-4.6063
X8.5827Y-4.9606
X8.5827Y-5.0787
X8.622Y-2.8346
X8.622Y-3.0315
X8.622Y-3.2677
X8.6535Y-3.1378
X8.6535Y-3.2047
X8.6614Y-3.0315
X8.6614Y-4.2362
X8.6614Y-4.5276
X8.7008Y-2.8346
X8.7008Y-2.9528
X8.7008Y-3.3071
X8.7008Y-3.6614
X8.7008Y-3.7795
X8.7008Y-4.9606
X8.7008Y-5.0787
X8.7323Y-3.1378
X8.7323Y-3.2047
X8.7402Y-4.2913
X8.7402Y-4.3307
X8.7795Y-2.8346
X8.8189Y-3.0709
X8.8189Y-3.2283
X8.8189Y-3.6614
X8.8189Y-3.7795
X8.8189Y-3.8976
X8.8189Y-4.0157
X8.8189Y-4.1339
X8.8189Y-4.4094
X8.8189Y-4.8425
X8.8189Y-5.0787
X8.8583Y-3.3071
X8.8949Y-2.8516
X8.937Y-2.9921
X8.937Y-3.0709
X8.937Y-3.189
X8.937Y-3.3071
X8.937Y-3.6614
X8.937Y-3.7795
X8.937Y-3.8976
X8.937Y-4.0157
X8.937Y-4.1339
X8.937Y-4.252
X8.937Y-4.3701
X8.937Y-4.4882
X8.937Y-4.6063
X8.937Y-4.7244
X8.937Y-4.8425
X8.937Y-5.0787
X9.0157Y-2.9921
X9.0157Y-3.0709
X9.0157Y-3.189
X9.0551Y-3.5433
X9.0551Y-3.6614
X9.0551Y-3.7795
X9.0551Y-3.8976
X9.0551Y-4.0157
X9.0551Y-4.1339
X9.0551Y-4.252
X9.0551Y-4.3701
X9.0551Y-4.4882
X9.0551Y-4.6063
X9.0551Y-4.7244
X9.0551Y-4.8425
X9.0551Y-5.0787
X9.1732Y-3.6614
X9.1732Y-3.7795
X9.1732Y-3.8976
X9.1732Y-4.0157
X9.1732Y-4.1339
X9.1732Y-4.252
X9.1732Y-4.3701
X9.1732Y-4.4882
X9.1732Y-4.6063
X9.1732Y-4.7244
X9.1732Y-4.8425
X9.1732Y-5.0787
X9.2126Y-2.874
X9.2126Y-2.9134
X9.252Y-2.874
X9.252Y-2.9134
X9.2677Y-2.8248
X9.2795Y-3.1024
X9.2913Y-3.2283
X9.2913Y-3.5433
X9.2913Y-3.7795
X9.2913Y-3.8976
X9.2913Y-4.0157
X9.2913Y-4.1339
X9.2913Y-4.252
X9.2913Y-4.3701
X9.2913Y-4.4882
X9.2913Y-4.6063
X9.2913Y-4.7244
X9.2913Y-4.8425
X9.2913Y-5.0787
X9.315Y-3.0354
X9.4094Y-3.6614
X9.4094Y-3.7795
X9.4094Y-3.8976
X9.4094Y-4.0157
X9.4094Y-4.1339
X9.4094Y-4.252
X9.4094Y-4.3701
X9.4094Y-4.4882
X9.4094Y-4.6063
X9.4094Y-4.7244
X9.4094Y-4.8425
X9.4094Y-5.0787
X9.4157Y-3.0052
X9.4409Y-2.9449
X9.4488Y-3.5827
X9.4764Y-3.0965
X9.5276Y-3.0315
X9.5276Y-3.2283
X9.5276Y-3.6614
X9.5276Y-3.8976
X9.5276Y-4.0157
X9.5276Y-4.1339
X9.5276Y-4.252
X9.5276Y-4.3701
X9.5276Y-4.4882
X9.5276Y-4.6063
X9.5276Y-4.7244
X9.5276Y-4.8425
X9.5276Y-5.0787
X9.5453Y-3.7205
X9.5453Y-3.7598
X9.5669Y-2.9921
X9.5669Y-3.0315
X9.5669Y-3.189
X9.5669Y-3.2283
X9.6021Y-2.8408
X9.6414Y-2.8248
X9.6457Y-4.252
X9.6457Y-4.3701
X9.6457Y-4.4882
X9.6457Y-4.6063
X9.6457Y-4.7244
X9.6457Y-4.8425
X9.6457Y-5.0787
X9.6634Y-3.126
X9.679Y-2.7953
X9.685Y-2.9528
X9.7047Y-3.1575
X9.7638Y-2.9528
X9.7638Y-3.0709
X9.7638Y-4.3701
X9.7638Y-4.4882
X9.7638Y-4.6063
X9.7638Y-4.7244
X9.7638Y-4.8425
X9.7638Y-5.0787
X9.7677Y-2.7953
X9.8819Y-4.1339
X9.8819Y-4.4882
X9.8819Y-4.6063
X9.8819Y-4.7244
X9.8819Y-4.8425
X9.8819Y-5.0787
X10.0Y-3.5433
X10.0Y-3.8976
X10.0Y-4.0157
X10.0Y-4.1339
X10.0Y-4.252
X10.0Y-4.6063
X10.0Y-4.7244
X10.0Y-4.8425
X10.0Y-5.0787
X10.1181Y-2.8346
X10.1181Y-3.8976
X10.1181Y-4.0157
X10.1181Y-4.1339
X10.1181Y-4.252
X10.1181Y-4.252
X10.1181Y-4.3701
X10.1181Y-4.7244
X10.1181Y-4.8425
X10.1181Y-5.0787
X10.217Y-4.6843
X10.2362Y-2.7953
X10.2362Y-2.8346
X10.2362Y-2.9528
X10.2362Y-3.8976
X10.2362Y-4.1339
X10.2362Y-4.252
X10.2362Y-4.3701
X10.2362Y-4.4882
X10.2586Y-4.6981
X10.3543Y-2.8346
X10.3543Y-2.874
X10.3543Y-4.252
X10.3543Y-4.3701
X10.3543Y-4.4882
X10.3937Y-2.874
X10.4134Y-4.752
X10.4252Y-4.6535
X10.4606Y-2.937
X10.4724Y-3.3071
X10.4724Y-4.3701
X10.4927Y-4.0506
X10.5158Y-3.8386
X10.5906Y-2.5984
X10.5906Y-2.8346
X10.5906Y-3.3071
X10.5906Y-4.6063
X10.5906Y-4.7244
X10.7087Y-2.5984
X10.7087Y-2.8346
X10.7401Y-3.9785
X10.8268Y-2.7165
X10.8268Y-3.0709
X10.8268Y-3.189
X10.8268Y-3.5433
X10.8268Y-3.6614
X10.8268Y-4.0157
X10.8268Y-4.1339
X10.8268Y-4.3701
X10.8268Y-4.4882
X10.8268Y-4.8425
X10.8268Y-4.9606
T3
X9.6949Y-3.2337
X9.6949Y-3.7337
X9.7949Y-3.2337
X9.7949Y-3.7337
X9.8949Y-3.2337
X9.8949Y-3.7337
X9.9949Y-3.2337
X9.9949Y-3.7337
X10.0949Y-3.2337
X10.0949Y-3.7337
X10.1949Y-3.2337
X10.1949Y-3.7337
X10.2949Y-3.2337
X10.2949Y-3.7337
X10.3949Y-3.2337
X10.3949Y-3.7337
T4
X10.7003Y-3.9331
X10.7003Y-4.1299
T5
X8.2283Y-4.7425
X8.2283Y-4.8425
T6
X7.7559Y-3.3071
X7.7559Y-4.1339
X8.0512Y-3.4449
X8.0512Y-4.1339
T7
X8.0315Y-2.874
X8.0315Y-3.0709
T8
X7.8205Y-4.6902
X10.663Y-4.6902
T9
X7.8205Y-5.0
T10
X8.1496Y-4.3803
X10.3228Y-5.0
T11
X8.622Y-3.937
X9.8031Y-3.937
X10.0Y-2.9528
T2
G00X10.7928Y-3.8937
M15
G01X10.8204Y-3.8937
M16
G05
G00X10.8204Y-4.1693
M15
G01X10.7928Y-4.1693
M16
G05
T3
G00X10.3937Y-3.9843
M15
G01X10.3937Y-4.0866
M16
G05
G00X10.5551Y-4.2244
M15
G01X10.4685Y-4.2244
M16
G05
G00X10.622Y-3.9921
M15
G01X10.622Y-4.0787
M16
G05
T0
M30
