%TF.GenerationSoftware,KiCad,Pcbnew,(5.1.9)-1*%
%TF.CreationDate,2021-05-06T00:14:11+03:00*%
%TF.ProjectId,hardware,68617264-7761-4726-952e-6b696361645f,rev?*%
%TF.SameCoordinates,Original*%
%TF.FileFunction,Legend,Bot*%
%TF.FilePolarity,Positive*%
%FSLAX46Y46*%
G04 Gerber Fmt 4.6, Leading zero omitted, Abs format (unit mm)*
G04 Created by KiCad (PCBNEW (5.1.9)-1) date 2021-05-06 00:14:11*
%MOMM*%
%LPD*%
G01*
G04 APERTURE LIST*
%ADD10C,0.120000*%
%ADD11C,0.100000*%
%ADD12C,0.200000*%
%ADD13C,0.150000*%
%ADD14C,0.254000*%
G04 APERTURE END LIST*
D10*
%TO.C,BT1*%
X207670000Y-124330000D02*
X209000000Y-124330000D01*
X207670000Y-123000000D02*
X207670000Y-124330000D01*
X207670000Y-121730000D02*
X210330000Y-121730000D01*
X210330000Y-121730000D02*
X210330000Y-119130000D01*
X207670000Y-121730000D02*
X207670000Y-119130000D01*
X207670000Y-119130000D02*
X210330000Y-119130000D01*
D11*
%TO.C,BT2*%
X273265000Y-108805000D02*
X208880000Y-108805000D01*
X208880000Y-108805000D02*
X208880000Y-108805000D01*
X208880000Y-108805000D02*
X273265000Y-108805000D01*
X273265000Y-108805000D02*
X273265000Y-108805000D01*
X205130000Y-108805000D02*
X196215000Y-108805000D01*
X196215000Y-108805000D02*
X196215000Y-108805000D01*
X196215000Y-108805000D02*
X205130000Y-108805000D01*
X205130000Y-108805000D02*
X205130000Y-108805000D01*
X196215000Y-129455000D02*
X260380000Y-129455000D01*
X260380000Y-129455000D02*
X260380000Y-129455000D01*
X260380000Y-129455000D02*
X196215000Y-129455000D01*
X196215000Y-129455000D02*
X196215000Y-129455000D01*
X264130000Y-129455000D02*
X273265000Y-129455000D01*
X273265000Y-129455000D02*
X273265000Y-129455000D01*
X273265000Y-129455000D02*
X264130000Y-129455000D01*
X264130000Y-129455000D02*
X264130000Y-129455000D01*
X196215000Y-108805000D02*
X196215000Y-108805000D01*
X196215000Y-108805000D02*
X196215000Y-129455000D01*
X196215000Y-129455000D02*
X196215000Y-129455000D01*
X196215000Y-129455000D02*
X196215000Y-108805000D01*
X273265000Y-129455000D02*
X273265000Y-129455000D01*
X273265000Y-129455000D02*
X273265000Y-108805000D01*
X273265000Y-108805000D02*
X273265000Y-108805000D01*
X273265000Y-108805000D02*
X273265000Y-129455000D01*
D12*
X274640000Y-119380000D02*
X274640000Y-119380000D01*
X274540000Y-119380000D02*
X274540000Y-119380000D01*
X274640000Y-119380000D02*
X274640000Y-119380000D01*
X274540000Y-119380000D02*
G75*
G03*
X274640000Y-119380000I50000J0D01*
G01*
X274640000Y-119380000D02*
G75*
G03*
X274540000Y-119380000I-50000J0D01*
G01*
X274540000Y-119380000D02*
G75*
G03*
X274640000Y-119380000I50000J0D01*
G01*
D10*
%TO.C,Microstep1*%
X253870000Y-91075000D02*
X253870000Y-85875000D01*
X246130000Y-91075000D02*
X246130000Y-85875000D01*
X253300000Y-92515000D02*
X253300000Y-91075000D01*
X253870000Y-91075000D02*
X253300000Y-91075000D01*
X253870000Y-85875000D02*
X253300000Y-85875000D01*
X246700000Y-91075000D02*
X246130000Y-91075000D01*
X246700000Y-85875000D02*
X246130000Y-85875000D01*
X251780000Y-91075000D02*
X250760000Y-91075000D01*
X251780000Y-85875000D02*
X250760000Y-85875000D01*
X249240000Y-91075000D02*
X248220000Y-91075000D01*
X249240000Y-85875000D02*
X248220000Y-85875000D01*
D11*
%TO.C,K1*%
X205750000Y-106500000D02*
X205750000Y-82500000D01*
X205750000Y-82500000D02*
X195750000Y-82500000D01*
X195750000Y-82500000D02*
X195750000Y-106500000D01*
X195750000Y-106500000D02*
X205750000Y-106500000D01*
D12*
X195300000Y-105100000D02*
X195300000Y-105100000D01*
X195300000Y-104900000D02*
X195300000Y-104900000D01*
X195300000Y-105100000D02*
G75*
G02*
X195300000Y-104900000I0J100000D01*
G01*
X195300000Y-104900000D02*
G75*
G02*
X195300000Y-105100000I0J-100000D01*
G01*
D10*
%TO.C,J4*%
X205680000Y-73000000D02*
G75*
G03*
X205680000Y-73000000I-1680000J0D01*
G01*
X199900000Y-80560000D02*
X199900000Y-70440000D01*
X201400000Y-80560000D02*
X201400000Y-70440000D01*
X206301000Y-80560000D02*
X206301000Y-70440000D01*
X209261000Y-80560000D02*
X209261000Y-70440000D01*
X199340000Y-80560000D02*
X199340000Y-70440000D01*
X209261000Y-80560000D02*
X199340000Y-80560000D01*
X209261000Y-70440000D02*
X199340000Y-70440000D01*
X205069000Y-71725000D02*
X205023000Y-71772000D01*
X202761000Y-74034000D02*
X202726000Y-74069000D01*
X205275000Y-71930000D02*
X205239000Y-71965000D01*
X202977000Y-74227000D02*
X202931000Y-74274000D01*
X199840000Y-80800000D02*
X199100000Y-80800000D01*
X199100000Y-80800000D02*
X199100000Y-80300000D01*
X202319747Y-77971195D02*
G75*
G03*
X202465000Y-78684000I1680253J-28805D01*
G01*
X203316958Y-79535426D02*
G75*
G03*
X204684000Y-79535000I683042J1535426D01*
G01*
X205535426Y-78683042D02*
G75*
G03*
X205535000Y-77316000I-1535426J683042D01*
G01*
X204683042Y-76464574D02*
G75*
G03*
X203316000Y-76465000I-683042J-1535426D01*
G01*
X202465244Y-77316682D02*
G75*
G03*
X202320000Y-78000000I1534756J-683318D01*
G01*
%TO.C,J3*%
X269200000Y-107100000D02*
X277700000Y-107100000D01*
X277700000Y-107100000D02*
X277700000Y-97900000D01*
X277700000Y-97900000D02*
X263000000Y-97900000D01*
X263000000Y-105000000D02*
X263000000Y-107100000D01*
X263000000Y-107100000D02*
X264800000Y-107100000D01*
X262700000Y-99300000D02*
X262700000Y-97600000D01*
X262700000Y-97600000D02*
X264300000Y-97600000D01*
X263000000Y-97900000D02*
X263000000Y-100000000D01*
%TO.C,J1*%
X271487500Y-98500000D02*
X271487500Y-98950000D01*
X273337500Y-98500000D02*
X271487500Y-98500000D01*
X275887500Y-106300000D02*
X275637500Y-106300000D01*
X275887500Y-98500000D02*
X275637500Y-98500000D01*
X273337500Y-106300000D02*
X271487500Y-106300000D01*
X271487500Y-106300000D02*
X271487500Y-105850000D01*
X270937500Y-100700000D02*
X270937500Y-101150000D01*
X270937500Y-100700000D02*
X271387500Y-100700000D01*
%TO.C,C7*%
X264510000Y-84215000D02*
X264510000Y-86965000D01*
X264510000Y-92735000D02*
X264510000Y-89985000D01*
X257054437Y-92735000D02*
X264510000Y-92735000D01*
X257054437Y-84215000D02*
X264510000Y-84215000D01*
X255990000Y-85279437D02*
X255990000Y-86965000D01*
X255990000Y-91670563D02*
X255990000Y-89985000D01*
X255990000Y-91670563D02*
X257054437Y-92735000D01*
X255990000Y-85279437D02*
X257054437Y-84215000D01*
X254750000Y-90985000D02*
X255750000Y-90985000D01*
X255250000Y-91485000D02*
X255250000Y-90485000D01*
%TO.C,A1*%
X244850000Y-93565000D02*
X265430000Y-93565000D01*
X247520000Y-83405000D02*
X265430000Y-83405000D01*
X244850000Y-82135000D02*
X244850000Y-80735000D01*
X244850000Y-80735000D02*
X246250000Y-80735000D01*
X244850000Y-83405000D02*
X247520000Y-83405000D01*
X247520000Y-83405000D02*
X247520000Y-80735000D01*
X247520000Y-80735000D02*
X265430000Y-80735000D01*
X265430000Y-80735000D02*
X265430000Y-96235000D01*
X265430000Y-96235000D02*
X244850000Y-96235000D01*
X244850000Y-96235000D02*
X244850000Y-83405000D01*
%TO.C,BT1*%
D13*
X209785714Y-125258571D02*
X209642857Y-125306190D01*
X209595238Y-125353809D01*
X209547619Y-125449047D01*
X209547619Y-125591904D01*
X209595238Y-125687142D01*
X209642857Y-125734761D01*
X209738095Y-125782380D01*
X210119047Y-125782380D01*
X210119047Y-124782380D01*
X209785714Y-124782380D01*
X209690476Y-124830000D01*
X209642857Y-124877619D01*
X209595238Y-124972857D01*
X209595238Y-125068095D01*
X209642857Y-125163333D01*
X209690476Y-125210952D01*
X209785714Y-125258571D01*
X210119047Y-125258571D01*
X209261904Y-124782380D02*
X208690476Y-124782380D01*
X208976190Y-125782380D02*
X208976190Y-124782380D01*
X207833333Y-125782380D02*
X208404761Y-125782380D01*
X208119047Y-125782380D02*
X208119047Y-124782380D01*
X208214285Y-124925238D01*
X208309523Y-125020476D01*
X208404761Y-125068095D01*
%TO.C,BT2*%
D14*
X235297857Y-107309285D02*
X235116428Y-107369761D01*
X235055952Y-107430238D01*
X234995476Y-107551190D01*
X234995476Y-107732619D01*
X235055952Y-107853571D01*
X235116428Y-107914047D01*
X235237380Y-107974523D01*
X235721190Y-107974523D01*
X235721190Y-106704523D01*
X235297857Y-106704523D01*
X235176904Y-106765000D01*
X235116428Y-106825476D01*
X235055952Y-106946428D01*
X235055952Y-107067380D01*
X235116428Y-107188333D01*
X235176904Y-107248809D01*
X235297857Y-107309285D01*
X235721190Y-107309285D01*
X234632619Y-106704523D02*
X233906904Y-106704523D01*
X234269761Y-107974523D02*
X234269761Y-106704523D01*
X233544047Y-106825476D02*
X233483571Y-106765000D01*
X233362619Y-106704523D01*
X233060238Y-106704523D01*
X232939285Y-106765000D01*
X232878809Y-106825476D01*
X232818333Y-106946428D01*
X232818333Y-107067380D01*
X232878809Y-107248809D01*
X233604523Y-107974523D01*
X232818333Y-107974523D01*
%TO.C,Microstep1*%
D13*
X245852380Y-84990476D02*
X244852380Y-84990476D01*
X245566666Y-85323809D01*
X244852380Y-85657142D01*
X245852380Y-85657142D01*
X245852380Y-86133333D02*
X245185714Y-86133333D01*
X244852380Y-86133333D02*
X244900000Y-86085714D01*
X244947619Y-86133333D01*
X244900000Y-86180952D01*
X244852380Y-86133333D01*
X244947619Y-86133333D01*
X245804761Y-87038095D02*
X245852380Y-86942857D01*
X245852380Y-86752380D01*
X245804761Y-86657142D01*
X245757142Y-86609523D01*
X245661904Y-86561904D01*
X245376190Y-86561904D01*
X245280952Y-86609523D01*
X245233333Y-86657142D01*
X245185714Y-86752380D01*
X245185714Y-86942857D01*
X245233333Y-87038095D01*
X245852380Y-87466666D02*
X245185714Y-87466666D01*
X245376190Y-87466666D02*
X245280952Y-87514285D01*
X245233333Y-87561904D01*
X245185714Y-87657142D01*
X245185714Y-87752380D01*
X245852380Y-88228571D02*
X245804761Y-88133333D01*
X245757142Y-88085714D01*
X245661904Y-88038095D01*
X245376190Y-88038095D01*
X245280952Y-88085714D01*
X245233333Y-88133333D01*
X245185714Y-88228571D01*
X245185714Y-88371428D01*
X245233333Y-88466666D01*
X245280952Y-88514285D01*
X245376190Y-88561904D01*
X245661904Y-88561904D01*
X245757142Y-88514285D01*
X245804761Y-88466666D01*
X245852380Y-88371428D01*
X245852380Y-88228571D01*
X245804761Y-88942857D02*
X245852380Y-89038095D01*
X245852380Y-89228571D01*
X245804761Y-89323809D01*
X245709523Y-89371428D01*
X245661904Y-89371428D01*
X245566666Y-89323809D01*
X245519047Y-89228571D01*
X245519047Y-89085714D01*
X245471428Y-88990476D01*
X245376190Y-88942857D01*
X245328571Y-88942857D01*
X245233333Y-88990476D01*
X245185714Y-89085714D01*
X245185714Y-89228571D01*
X245233333Y-89323809D01*
X245185714Y-89657142D02*
X245185714Y-90038095D01*
X244852380Y-89800000D02*
X245709523Y-89800000D01*
X245804761Y-89847619D01*
X245852380Y-89942857D01*
X245852380Y-90038095D01*
X245804761Y-90752380D02*
X245852380Y-90657142D01*
X245852380Y-90466666D01*
X245804761Y-90371428D01*
X245709523Y-90323809D01*
X245328571Y-90323809D01*
X245233333Y-90371428D01*
X245185714Y-90466666D01*
X245185714Y-90657142D01*
X245233333Y-90752380D01*
X245328571Y-90800000D01*
X245423809Y-90800000D01*
X245519047Y-90323809D01*
X245185714Y-91228571D02*
X246185714Y-91228571D01*
X245233333Y-91228571D02*
X245185714Y-91323809D01*
X245185714Y-91514285D01*
X245233333Y-91609523D01*
X245280952Y-91657142D01*
X245376190Y-91704761D01*
X245661904Y-91704761D01*
X245757142Y-91657142D01*
X245804761Y-91609523D01*
X245852380Y-91514285D01*
X245852380Y-91323809D01*
X245804761Y-91228571D01*
X245852380Y-92657142D02*
X245852380Y-92085714D01*
X245852380Y-92371428D02*
X244852380Y-92371428D01*
X244995238Y-92276190D01*
X245090476Y-92180952D01*
X245138095Y-92085714D01*
%TO.C,K1*%
D14*
X207974523Y-89462619D02*
X206704523Y-89462619D01*
X207974523Y-90188333D02*
X207248809Y-89644047D01*
X206704523Y-90188333D02*
X207430238Y-89462619D01*
X207974523Y-91397857D02*
X207974523Y-90672142D01*
X207974523Y-91035000D02*
X206704523Y-91035000D01*
X206885952Y-90914047D01*
X207006904Y-90793095D01*
X207067380Y-90672142D01*
%TO.C,J4*%
D13*
X209712380Y-75166666D02*
X210426666Y-75166666D01*
X210569523Y-75119047D01*
X210664761Y-75023809D01*
X210712380Y-74880952D01*
X210712380Y-74785714D01*
X210045714Y-76071428D02*
X210712380Y-76071428D01*
X209664761Y-75833333D02*
X210379047Y-75595238D01*
X210379047Y-76214285D01*
%TO.C,J3*%
X260952380Y-102166666D02*
X261666666Y-102166666D01*
X261809523Y-102119047D01*
X261904761Y-102023809D01*
X261952380Y-101880952D01*
X261952380Y-101785714D01*
X260952380Y-102547619D02*
X260952380Y-103166666D01*
X261333333Y-102833333D01*
X261333333Y-102976190D01*
X261380952Y-103071428D01*
X261428571Y-103119047D01*
X261523809Y-103166666D01*
X261761904Y-103166666D01*
X261857142Y-103119047D01*
X261904761Y-103071428D01*
X261952380Y-102976190D01*
X261952380Y-102690476D01*
X261904761Y-102595238D01*
X261857142Y-102547619D01*
%TO.C,J1*%
X272352380Y-96666666D02*
X273066666Y-96666666D01*
X273209523Y-96619047D01*
X273304761Y-96523809D01*
X273352380Y-96380952D01*
X273352380Y-96285714D01*
X273352380Y-97666666D02*
X273352380Y-97095238D01*
X273352380Y-97380952D02*
X272352380Y-97380952D01*
X272495238Y-97285714D01*
X272590476Y-97190476D01*
X272638095Y-97095238D01*
%TO.C,C7*%
X266757142Y-88633333D02*
X266804761Y-88585714D01*
X266852380Y-88442857D01*
X266852380Y-88347619D01*
X266804761Y-88204761D01*
X266709523Y-88109523D01*
X266614285Y-88061904D01*
X266423809Y-88014285D01*
X266280952Y-88014285D01*
X266090476Y-88061904D01*
X265995238Y-88109523D01*
X265900000Y-88204761D01*
X265852380Y-88347619D01*
X265852380Y-88442857D01*
X265900000Y-88585714D01*
X265947619Y-88633333D01*
X265852380Y-88966666D02*
X265852380Y-89633333D01*
X266852380Y-89204761D01*
%TO.C,A1*%
X243876666Y-87770714D02*
X243876666Y-88246904D01*
X244162380Y-87675476D02*
X243162380Y-88008809D01*
X244162380Y-88342142D01*
X244162380Y-89199285D02*
X244162380Y-88627857D01*
X244162380Y-88913571D02*
X243162380Y-88913571D01*
X243305238Y-88818333D01*
X243400476Y-88723095D01*
X243448095Y-88627857D01*
%TD*%
M02*
